<svg version="1.1" id="Layer_1" xmlns="http://www.w3.org/2000/svg" xmlns:xlink="http://www.w3.org/1999/xlink" x="0px" y="0px"
	 width="100%" viewBox="0 0 270 148" enable-background="new 0 0 270 148" xml:space="preserve">
<path fill="#FDFDFB" opacity="1.000000" stroke="none" 
	d="
M177.000000,149.000000 
	C118.035004,149.000000 59.570011,149.000000 1.052507,149.000000 
	C1.052507,99.731239 1.052507,50.462406 1.052507,1.096786 
	C90.881531,1.096786 180.763199,1.096786 270.822449,1.096786 
	C270.822449,50.332817 270.822449,99.666351 270.822449,149.000000 
	C239.796005,149.000000 208.647995,149.000000 177.000000,149.000000 
M198.086395,7.159986 
	C198.086395,7.159986 197.629608,7.068064 197.194839,6.588855 
	C194.808167,5.814761 192.421494,5.040668 189.002853,3.931865 
	C190.606201,10.434377 191.787415,15.224875 192.962112,20.668043 
	C193.640106,21.447586 194.318085,22.227129 195.321411,23.456125 
	C196.251312,23.079771 197.181213,22.703419 198.874100,22.082872 
	C199.875412,21.721491 200.876740,21.360111 202.459991,21.523151 
	C207.627258,24.576099 209.066528,24.355995 210.335922,20.167482 
	C211.487579,16.367445 212.588394,12.546644 213.520828,8.688890 
	C213.791962,7.567127 213.850266,5.722116 213.211975,5.221788 
	C212.407486,4.591192 210.525558,4.522800 209.571487,5.049911 
	C206.870956,6.541932 204.406509,8.461294 201.229462,10.113786 
	C200.809448,10.104508 200.389450,10.095230 199.859482,9.542953 
	C199.785645,9.373690 199.711792,9.204425 199.727615,8.489456 
	C199.272720,8.193377 198.817841,7.897298 198.102463,7.692341 
	C198.102463,7.692341 198.339584,7.551143 198.086395,7.159986 
M113.041656,111.844391 
	C115.641068,111.233765 118.240479,110.623138 121.018600,109.134674 
	C121.018600,107.176979 121.018600,105.219292 121.018600,103.547974 
	C126.056595,101.108833 127.785873,104.391899 129.745972,107.325195 
	C133.183426,112.469360 136.298218,113.327820 142.609894,110.855278 
	C141.598770,109.310005 140.616821,107.783211 139.607895,106.274467 
	C138.519257,104.646484 137.405380,103.035378 136.211746,101.283714 
	C137.533157,100.109009 138.720016,99.203156 139.728699,98.129852 
	C143.038727,94.607796 144.475739,88.041901 141.325394,84.285309 
	C138.622040,81.061729 134.286606,77.956207 130.290344,77.359154 
	C124.220085,76.452240 117.818756,77.761284 111.129837,78.154213 
	C111.291962,81.440002 111.478905,85.228889 111.416428,89.656509 
	C111.499687,90.097870 111.582947,90.539238 111.347832,91.865768 
	C111.372856,98.169731 111.397873,104.473701 111.338219,111.294533 
	C111.624580,111.427330 111.910934,111.560127 113.041656,111.844391 
M70.728737,78.195534 
	C70.728737,78.195534 70.769859,78.197739 70.530533,78.975464 
	C70.553391,88.675568 70.576241,98.375671 70.332520,108.659889 
	C70.879150,109.702156 71.425781,110.744431 72.893784,111.917671 
	C75.076767,111.895760 77.259743,111.873840 79.400368,112.081299 
	C79.400368,112.081299 79.415535,112.202881 79.415535,112.202881 
	C79.415535,112.202881 79.363098,111.876297 79.821846,111.512917 
	C79.873596,111.324829 79.925339,111.136734 80.226311,110.755997 
	C80.353561,110.429245 80.297508,110.140877 80.135834,109.001617 
	C80.135834,106.092407 80.135834,103.183205 80.135834,99.685455 
	C85.888596,99.685455 90.778976,99.685455 95.611374,99.685455 
	C95.611374,96.972008 95.611374,94.868546 95.611374,92.195557 
	C90.458603,92.195557 85.553612,92.195557 80.508499,92.195557 
	C80.508499,89.406540 80.508499,87.200035 80.508499,84.478264 
	C86.460945,84.478264 92.042175,84.478264 98.439301,84.478264 
	C97.851173,81.597679 97.394470,79.360786 96.020691,76.965363 
	C87.704941,77.026642 79.389191,77.087921 70.600800,77.139732 
	C70.479935,77.240196 70.240196,77.394623 70.257370,77.432442 
	C70.374619,77.690742 70.545837,77.924553 70.728737,78.195534 
M157.728622,77.255501 
	C157.556274,77.849014 157.383926,78.442528 157.092712,79.961624 
	C157.157806,89.294540 157.222916,98.627457 157.059647,108.639679 
	C157.138412,109.104202 157.217178,109.568718 157.258224,110.790581 
	C163.235550,113.202057 166.149414,112.240150 166.644028,107.059654 
	C166.563431,105.787865 166.482819,104.516068 166.655685,102.435616 
	C166.602127,95.309868 166.548569,88.184128 166.795990,80.281837 
	C167.169083,77.446938 166.272125,76.191032 163.234070,77.220924 
	C161.873520,77.682144 160.404556,77.823502 158.509552,77.944801 
	C158.349426,77.894913 158.189301,77.845032 157.728622,77.255501 
M170.008728,130.906616 
	C168.572525,130.600876 166.693878,129.577682 165.789963,130.135101 
	C163.753510,131.390900 161.333618,133.182007 160.747574,135.234390 
	C160.342896,136.651642 162.326859,139.646622 163.993134,140.543365 
	C166.319153,141.795181 169.399689,141.908386 171.345627,137.840057 
	C169.688339,137.968430 168.523819,138.394623 167.673645,138.048538 
	C166.273178,137.478470 165.076111,136.408752 163.793304,135.549667 
	C165.070831,134.678009 166.256165,133.576889 167.657669,133.013779 
	C168.623123,132.625870 169.888046,132.983246 171.618118,133.015366 
	C172.017075,133.019867 172.416031,133.024368 173.110153,133.641434 
	C173.678986,135.103638 174.247803,136.565857 174.340851,138.572784 
	C174.244171,139.789841 174.147491,141.006897 173.428955,142.315781 
	C172.903915,142.871170 172.378891,143.426575 171.362396,144.046570 
	C171.168488,144.260345 170.974579,144.474121 170.780655,144.687897 
	C171.255859,144.758835 171.731049,144.829788 172.995819,144.988663 
	C174.849030,144.308365 177.597107,144.163971 178.386154,142.846375 
	C180.671921,139.029556 182.170563,134.741348 183.978134,130.638153 
	C183.404114,130.302536 182.830093,129.966919 182.256058,129.631302 
	C180.848328,131.762634 179.440613,133.893967 178.238693,135.713699 
	C176.436340,133.694794 174.712738,131.764130 172.733826,129.557495 
	C172.515717,129.770294 172.297592,129.983093 172.020630,130.603729 
	C172.020630,130.603729 171.867249,130.986191 171.297775,131.025146 
	C171.110672,131.060883 170.923569,131.096634 170.008728,130.906616 
M256.220276,131.357147 
	C253.832748,130.978409 251.009598,129.649399 249.180176,130.488083 
	C247.349060,131.327545 245.495193,134.364273 245.557404,136.378983 
	C245.607559,138.003021 248.264664,140.265381 250.200943,140.886887 
	C251.774643,141.391983 253.994888,139.882782 255.928421,139.266876 
	C255.767075,138.758484 255.605743,138.250092 255.444397,137.741699 
	C254.830139,137.656555 254.218307,137.536285 253.601105,137.493240 
	C252.095840,137.388321 250.552948,137.462631 249.112030,137.110016 
	C248.836288,137.042542 248.619827,134.698715 248.957001,134.523575 
	C250.213928,133.870636 251.737091,133.756821 253.113800,133.300262 
	C254.436371,132.861649 255.701233,132.249039 257.450439,132.583954 
	C257.714630,133.857864 258.120850,135.121109 258.217316,136.407593 
	C258.551270,140.863297 260.874481,141.862579 265.603729,140.385986 
	C261.187195,137.595642 260.315155,134.631821 264.314270,131.564285 
	C259.332794,126.696671 259.332794,126.696671 256.220276,131.357147 
M60.383347,133.777176 
	C58.124195,127.830231 53.309334,130.879471 49.180244,130.229752 
	C49.180244,135.389099 49.180244,140.113480 49.180244,144.837860 
	C49.581146,145.008942 49.982048,145.180008 50.382950,145.351089 
	C51.195427,143.995895 52.007900,142.640686 52.820377,141.285492 
	C53.062157,141.633881 53.303932,141.982285 53.545712,142.330673 
	C56.023773,140.485306 58.501839,138.639954 61.668053,137.063568 
	C65.745895,142.067596 68.910744,142.638962 72.287323,138.630234 
	C70.184303,138.326401 68.284615,138.051956 66.384926,137.777512 
	C66.399643,137.442886 66.414360,137.108246 66.429077,136.773621 
	C68.622528,136.563812 70.815979,136.354004 74.470718,136.004425 
	C72.665855,133.617416 71.721329,131.114410 70.118652,130.578064 
	C68.273140,129.960449 65.763687,130.840042 63.704983,131.544205 
	C62.618019,131.916000 61.876423,133.297516 60.383347,133.777176 
M110.242393,131.735397 
	C111.238869,134.184143 112.115822,136.692673 113.295128,139.049942 
	C113.721344,139.901871 114.863037,140.889679 115.695145,140.905136 
	C116.518761,140.920380 117.759888,139.961060 118.125465,139.126053 
	C119.253548,136.549438 120.051056,133.828079 120.976967,131.162949 
	C120.528046,130.875168 120.079132,130.587402 119.630219,130.299622 
	C118.328308,132.102524 117.026405,133.905426 115.527046,135.981781 
	C114.846191,134.562195 114.503021,133.000977 113.540939,132.102371 
	C112.739037,131.353363 111.211174,131.381607 109.231667,130.673309 
	C108.497246,129.054413 107.762825,127.435509 106.516167,124.687485 
	C105.504990,127.301384 105.009155,128.583099 104.521538,129.843597 
	C98.480568,130.076431 95.933975,131.892731 96.143166,135.784500 
	C96.382858,140.243408 98.766502,141.245255 108.426201,140.665466 
	C108.426201,138.934036 108.220360,137.130600 108.487595,135.400223 
	C108.726082,133.856018 109.487274,132.392532 110.242393,131.735397 
M30.026018,40.123280 
	C29.715715,37.087368 29.405413,34.051456 29.396830,30.795374 
	C29.234859,30.537472 29.072891,30.279568 28.772215,29.538750 
	C28.783810,29.371670 28.795406,29.204592 29.283815,28.793871 
	C29.033171,28.157894 28.782524,27.521919 28.291527,26.193583 
	C27.428198,24.508369 26.564867,22.823156 25.605566,20.950611 
	C19.236200,28.658390 20.215208,37.509949 28.199551,46.562981 
	C28.505424,46.696751 28.811298,46.830521 29.587515,47.419697 
	C36.004486,53.917671 42.438473,60.398975 48.830318,66.921570 
	C51.505299,69.651276 54.182301,70.021378 56.987988,67.187752 
	C64.816650,59.281124 72.794594,51.514305 80.409050,43.406273 
	C85.891502,37.568436 86.071098,28.647190 81.116364,21.419762 
	C80.759499,21.613062 80.402641,21.806360 79.567970,22.532421 
	C79.002068,23.579037 78.436157,24.625652 77.743866,25.556601 
	C77.743866,25.556601 77.868111,25.693512 77.291771,26.318478 
	C75.851814,31.212357 74.411858,36.106236 72.319550,40.945202 
	C71.069656,41.656429 69.916603,37.372253 68.593559,41.633076 
	C67.670036,44.503773 66.746513,47.374470 65.822990,50.245167 
	C65.343796,50.091007 64.864609,49.936844 64.385414,49.782684 
	C64.150566,48.603813 63.915722,47.424942 63.564201,45.660397 
	C62.288223,47.590744 61.383083,48.960075 60.477947,50.329407 
	C60.089539,50.190975 59.701134,50.052544 59.312729,49.914112 
	C60.118885,46.400696 60.925045,42.887283 61.960361,38.375153 
	C58.684277,41.029728 56.177990,43.060547 53.671700,45.091366 
	C53.325485,44.726822 52.979275,44.362274 52.633060,43.997730 
	C54.937645,41.102108 57.395466,38.313419 59.509071,35.284527 
	C62.321190,31.254633 61.641659,29.688335 57.182781,28.276051 
	C55.798267,27.837528 54.609474,26.781080 53.331078,26.007528 
	C65.423195,25.989143 70.278557,23.527962 71.414101,14.722320 
	C64.839973,12.973902 62.522991,13.559200 52.853157,19.494434 
	C47.529839,15.029305 41.615231,12.297205 34.261883,14.813165 
	C35.798874,25.048784 43.682343,24.593475 52.393459,25.385418 
	C50.058418,26.744286 49.017464,27.680750 47.814293,27.993845 
	C42.162968,29.464462 41.624897,30.779753 44.788563,35.896477 
	C46.544617,38.736614 48.249756,41.608234 49.977840,44.465664 
	C49.592361,44.750103 49.206879,45.034538 48.821396,45.318977 
	C46.615070,42.910053 44.408745,40.501129 41.273201,37.077663 
	C42.049168,42.223732 42.607292,45.925117 43.165417,49.626507 
	C42.719532,49.721729 42.273647,49.816948 41.827763,49.912170 
	C40.677155,46.908997 39.526550,43.905823 38.375946,40.902649 
	C38.058411,41.001984 37.740871,41.101322 37.423332,41.200661 
	C37.423332,43.780666 37.423332,46.360672 37.423332,48.940678 
	C36.981815,48.959682 36.540298,48.978687 36.098782,48.997692 
	C35.681141,46.442478 35.389587,43.855247 34.754818,41.355156 
	C34.601299,40.750523 33.314045,40.433746 32.079453,40.281429 
	C31.398224,40.517689 30.716995,40.753952 30.026018,40.123280 
M206.399475,57.028320 
	C206.330124,49.023563 206.260773,41.018810 206.369949,32.534733 
	C206.307556,32.376057 206.245178,32.217381 206.461044,31.436455 
	C206.461044,29.993433 206.461044,28.550413 206.461044,26.952337 
	C203.152939,26.952337 200.244705,26.952337 196.974060,26.952337 
	C196.974060,38.278526 196.965469,49.366829 197.016602,60.454865 
	C197.018097,60.778526 197.650131,61.099289 198.780304,61.623604 
	C199.861298,61.543053 200.942307,61.462498 202.739853,61.632992 
	C203.485535,61.552078 204.231232,61.471165 205.817581,61.191650 
	C205.935562,60.106079 206.053543,59.020508 206.399475,57.028320 
M157.814102,55.187759 
	C158.532700,55.063084 159.251282,54.938408 160.870712,54.974991 
	C163.917084,54.920876 166.963440,54.866760 170.501389,54.944813 
	C170.661804,54.889496 170.822205,54.834183 171.630234,55.131229 
	C176.432175,62.652378 176.432175,62.652378 184.863892,61.156082 
	C181.625092,53.758064 178.032425,46.568871 175.318466,39.062000 
	C172.687668,31.785145 169.634567,25.825151 160.411285,27.173058 
	C160.250824,27.196507 160.096069,27.258825 159.536514,27.415865 
	C155.395935,37.104408 151.151337,47.036362 146.401382,57.481815 
	C145.928253,58.786266 145.455124,60.090717 144.981995,61.395172 
	C148.605865,59.924625 153.300232,64.924187 155.784164,58.728352 
	C156.218475,57.573650 156.652786,56.418949 157.814102,55.187759 
M100.136742,27.235725 
	C100.031013,38.145985 99.910912,49.056183 99.866486,59.966690 
	C99.864494,60.458031 100.548065,60.952164 101.648285,61.721966 
	C104.091179,61.721966 106.534081,61.721966 109.286827,61.721966 
	C109.405205,59.766743 109.538429,58.310089 109.574471,56.851036 
	C109.817696,47.004265 107.534988,48.229954 118.650360,47.933571 
	C122.350937,47.834900 123.269676,49.327339 123.034592,52.635437 
	C122.827690,55.546955 122.991318,58.484798 122.991318,61.503487 
	C126.604668,61.503487 129.512878,61.503487 132.599289,61.503487 
	C132.599289,49.836792 132.599289,38.465233 132.599289,27.016842 
	C129.344238,27.016842 126.428314,27.016842 122.985466,27.016842 
	C122.985466,30.406656 123.227684,33.553589 122.861046,36.627903 
	C122.722824,37.786880 121.267349,39.582024 120.253136,39.698288 
	C116.868591,40.086281 113.411942,39.845276 109.440254,39.845276 
	C109.440254,35.085045 109.440254,31.016977 109.440254,26.537704 
	C106.246223,26.704832 103.624214,26.842026 100.136742,27.235725 
M55.915577,105.606438 
	C51.825493,96.374771 47.735405,87.143097 43.541565,77.677246 
	C40.045429,77.677246 36.623062,77.677246 32.960629,77.677246 
	C28.166409,88.732063 23.271814,100.018326 18.100243,111.943260 
	C23.517298,111.657143 28.722425,113.806328 30.189045,106.895073 
	C30.343023,106.169464 31.890060,105.306915 32.830368,105.257248 
	C36.477512,105.064590 40.143883,105.093330 43.795273,105.237587 
	C44.574581,105.268379 45.855289,106.003357 46.001095,106.625694 
	C47.672493,113.759552 52.931263,111.916519 58.340099,111.635292 
	C57.498764,109.604118 56.824345,107.975922 55.915577,105.606438 
M232.224487,93.710220 
	C229.915512,99.672081 227.606552,105.633942 225.255447,111.704605 
	C232.872620,112.155647 232.824692,112.122345 236.522888,106.800049 
	C237.077179,106.002373 238.301697,105.268166 239.252304,105.220139 
	C242.731598,105.044357 246.232178,105.062599 249.710999,105.255592 
	C250.648483,105.307594 252.170227,106.075523 252.350647,106.786980 
	C254.163666,113.935616 259.279572,111.911240 264.631836,111.524391 
	C259.550934,99.935913 254.708954,88.892395 249.914001,77.956154 
	C246.288483,77.956154 242.824570,77.956154 239.218414,77.956154 
	C236.979996,83.042374 234.779831,88.041641 232.224487,93.710220 
M181.191559,91.053856 
	C180.354507,101.224808 184.456802,108.476006 192.695251,111.387665 
	C201.158447,114.378754 210.298782,112.086372 214.737259,105.640289 
	C212.953934,104.038239 211.140320,102.408974 209.411072,100.855492 
	C201.838013,105.450310 196.702911,105.409828 193.081848,100.931580 
	C190.185745,97.349899 190.304230,90.821487 193.326111,87.470734 
	C196.850296,83.563065 202.302155,83.682472 209.384781,88.000679 
	C211.223709,86.345688 213.133865,84.626610 215.487717,82.508224 
	C208.199356,76.564056 200.919830,74.615868 192.501678,77.656441 
	C186.469742,79.835136 183.215439,84.391571 181.191559,91.053856 
M208.336960,130.938431 
	C205.010986,130.620255 201.685013,130.302078 197.939651,129.943787 
	C197.939651,133.492111 197.838638,136.140366 198.003143,138.772003 
	C198.050583,139.530853 198.862167,140.241943 199.323425,140.974945 
	C199.870605,140.318848 200.566422,139.736572 200.936081,138.992294 
	C201.902771,137.045959 202.726913,135.028824 203.607895,133.039917 
	C204.244476,135.261292 204.877716,137.483658 205.521439,139.702957 
	C205.612457,140.016739 205.754532,140.315735 205.941467,140.798416 
	C210.322876,141.248825 208.292816,137.752655 208.974854,135.908676 
	C209.370193,134.839798 210.307083,133.971222 211.000275,133.012512 
	C211.711349,133.914856 212.734879,134.720245 213.052765,135.744614 
	C213.432251,136.967422 213.039383,138.415359 213.324295,139.688995 
	C213.444260,140.225342 214.399597,140.777847 215.058380,140.910797 
	C215.424789,140.984741 216.380737,140.182114 216.356354,139.823090 
	C216.168579,137.057602 216.419800,133.986526 215.229935,131.684830 
	C214.661560,130.585403 211.254623,130.953384 208.336960,130.938431 
M19.151239,136.335587 
	C19.599377,138.149750 17.731201,141.526611 22.291756,140.766403 
	C22.530590,138.985672 22.764071,137.244858 22.998646,135.495880 
	C25.035032,135.495880 26.767944,135.495880 28.438593,135.495880 
	C29.281427,140.559952 29.281427,140.559952 32.216446,140.469498 
	C32.216446,137.987259 32.361588,135.490082 32.172508,133.018463 
	C32.008518,130.874878 31.465895,128.760239 31.090618,126.632812 
	C29.988676,128.314499 28.886734,129.996201 27.433386,132.214172 
	C26.393604,132.152390 24.667627,132.049835 23.016754,131.951736 
	C22.833986,130.934891 22.859127,130.391724 22.638760,129.979950 
	C22.036966,128.855438 21.331635,127.786339 20.667311,126.695297 
	C20.153736,127.774849 19.348827,128.814270 19.193348,129.943161 
	C18.946373,131.736343 19.132967,133.589233 19.151239,136.335587 
M90.740417,138.318558 
	C92.028267,139.292450 93.316116,140.266342 94.603966,141.240234 
	C94.895485,140.877975 95.186996,140.515701 95.478508,140.153427 
	C93.702644,136.233521 92.038383,132.257721 90.112823,128.412766 
	C88.762924,125.717270 86.820656,125.567711 85.432838,128.340897 
	C83.459435,132.284195 81.809311,136.389282 79.884056,140.734482 
	C83.606163,139.753098 86.786491,138.914551 90.740417,138.318558 
M224.321213,130.040283 
	C222.737137,130.164963 221.153076,130.289658 219.206818,130.442841 
	C219.206818,133.892685 219.067642,137.032791 219.263870,140.151794 
	C219.366333,141.780563 220.058914,143.372223 220.484955,144.980621 
	C221.575027,143.823517 222.665085,142.666397 224.060806,141.184830 
	C227.194031,141.297455 230.730042,140.983032 231.117050,136.182388 
	C231.453674,132.006790 229.304520,130.003357 224.321213,130.040283 
M158.057617,132.631851 
	C154.387985,129.149841 152.350830,128.994095 149.339172,132.082291 
	C151.126007,132.413284 152.872528,132.736801 154.075302,132.959610 
	C151.904663,135.005295 148.026810,137.723450 148.378311,138.482086 
	C150.507141,143.076828 154.685379,140.639191 158.299927,140.718475 
	C158.299927,138.004898 158.299927,135.704834 158.057617,132.631851 
M130.075409,130.046997 
	C124.926346,130.170197 122.011383,132.515213 122.445587,136.185013 
	C122.837067,139.493774 126.267357,142.028244 129.770050,140.931290 
	C131.525696,140.381485 134.156174,138.267990 134.052277,137.063400 
	C133.848969,134.706070 132.005478,132.490219 130.075409,130.046997 
M35.798832,132.110870 
	C35.415009,133.501968 34.559040,134.957733 34.739014,136.271606 
	C35.212219,139.726273 37.664505,141.914261 40.942509,140.930481 
	C43.121220,140.276627 46.083843,137.784363 46.202160,135.953812 
	C46.323090,134.082840 43.721718,131.485367 41.680626,130.244949 
	C40.570324,129.570190 38.147881,131.054535 35.798832,132.110870 
M242.121841,136.544922 
	C241.972366,130.491699 241.394043,130.152328 233.313446,131.354507 
	C233.313446,133.046112 233.620178,134.803497 233.244431,136.400284 
	C232.617508,139.064529 233.373520,140.993347 236.051636,140.900024 
	C238.374908,140.819107 242.602005,142.904861 242.121841,136.544922 
M140.055725,133.394485 
	C142.195419,133.211349 144.335114,133.028229 147.507263,132.756729 
	C143.280960,129.280945 139.908249,128.805511 137.062134,132.162903 
	C134.860947,134.759537 135.152786,137.933746 138.087189,139.917664 
	C140.995651,141.884033 144.070160,142.032425 146.509171,138.507599 
	C144.418243,136.253357 137.834183,141.337036 140.055725,133.394485 
M191.504547,136.302292 
	C191.571152,137.755203 191.637756,139.208115 191.773010,142.158386 
	C193.377304,140.491013 194.896851,139.584641 194.803207,138.898453 
	C194.248596,134.834854 196.661438,130.140930 193.353424,126.622055 
	C192.737274,126.671837 192.121140,126.721619 191.504990,126.771400 
	C191.504990,129.646255 191.504990,132.521118 191.504547,136.302292 
z"/>
<path fill="#FDCE11" opacity="1.000000" stroke="none" 
	d="
M77.870255,25.672272 
	C78.436157,24.625652 79.002068,23.579037 80.158188,22.235096 
	C80.981400,21.905920 81.214401,21.874069 81.447395,21.842216 
	C86.071098,28.647190 85.891502,37.568436 80.409050,43.406273 
	C72.794594,51.514305 64.816650,59.281124 56.987988,67.187752 
	C54.182301,70.021378 51.505299,69.651276 48.830318,66.921570 
	C42.438473,60.398975 36.004486,53.917671 29.373890,46.937927 
	C29.114502,46.292282 29.068737,46.128410 29.007330,45.977905 
	C28.991686,45.991276 28.969120,46.025700 29.341217,46.108955 
	C30.658255,44.123013 31.603195,42.053810 32.548134,39.984604 
	C33.314045,40.433746 34.601299,40.750523 34.754818,41.355156 
	C35.389587,43.855247 35.681141,46.442478 36.098782,48.997692 
	C36.540298,48.978687 36.981815,48.959682 37.423332,48.940678 
	C37.423332,46.360672 37.423332,43.780666 37.423332,41.200661 
	C37.740871,41.101322 38.058411,41.001984 38.375946,40.902649 
	C39.526550,43.905823 40.677155,46.908997 41.827763,49.912170 
	C42.273647,49.816948 42.719532,49.721729 43.165417,49.626507 
	C42.607292,45.925117 42.049168,42.223732 41.273201,37.077663 
	C44.408745,40.501129 46.615070,42.910053 48.821396,45.318977 
	C49.206879,45.034538 49.592361,44.750103 49.977840,44.465664 
	C48.249756,41.608234 46.544617,38.736614 44.788563,35.896477 
	C41.624897,30.779753 42.162968,29.464462 47.814293,27.993845 
	C49.017464,27.680750 50.058418,26.744286 52.393459,25.385418 
	C43.682343,24.593475 35.798874,25.048784 34.261883,14.813165 
	C41.615231,12.297205 47.529839,15.029305 52.853157,19.494434 
	C62.522991,13.559200 64.839973,12.973902 71.414101,14.722320 
	C70.278557,23.527962 65.423195,25.989143 53.331078,26.007528 
	C54.609474,26.781080 55.798267,27.837528 57.182781,28.276051 
	C61.641659,29.688335 62.321190,31.254633 59.509071,35.284527 
	C57.395466,38.313419 54.937645,41.102108 52.633060,43.997730 
	C52.979275,44.362274 53.325485,44.726822 53.671700,45.091366 
	C56.177990,43.060547 58.684277,41.029728 61.960361,38.375153 
	C60.925045,42.887283 60.118885,46.400696 59.312729,49.914112 
	C59.701134,50.052544 60.089539,50.190975 60.477947,50.329407 
	C61.383083,48.960075 62.288223,47.590744 63.564201,45.660397 
	C63.915722,47.424942 64.150566,48.603813 64.385414,49.782684 
	C64.864609,49.936844 65.343796,50.091007 65.822990,50.245167 
	C66.746513,47.374470 67.670036,44.503773 69.013046,41.308434 
	C70.365257,43.343006 71.297974,45.702217 72.230698,48.061432 
	C72.764404,47.949913 73.298111,47.838394 73.831825,47.726875 
	C73.545181,45.484623 73.258545,43.242371 72.971909,41.000118 
	C74.411858,36.106236 75.851814,31.212357 77.562294,26.002785 
	C77.832817,25.687090 77.870255,25.672272 77.870255,25.672272 
z"/>
<path fill="#51A13C" opacity="1.000000" stroke="none" 
	d="
M111.422897,110.777664 
	C111.397873,104.473701 111.372856,98.169731 111.788475,91.410675 
	C112.699928,90.624916 113.170738,90.294235 113.641548,89.963554 
	C112.982986,89.648293 112.324417,89.333038 111.665848,89.017776 
	C111.478905,85.228889 111.291962,81.440002 111.129837,78.154213 
	C117.818756,77.761284 124.220085,76.452240 130.290344,77.359154 
	C134.286606,77.956207 138.622040,81.061729 141.325394,84.285309 
	C144.475739,88.041901 143.038727,94.607796 139.728699,98.129852 
	C138.720016,99.203156 137.533157,100.109009 136.211746,101.283714 
	C137.405380,103.035378 138.519257,104.646484 139.607895,106.274467 
	C140.616821,107.783211 141.598770,109.310005 142.609894,110.855278 
	C136.298218,113.327820 133.183426,112.469360 129.745972,107.325195 
	C127.785873,104.391899 126.056595,101.108833 121.018600,103.547974 
	C121.018600,105.219292 121.018600,107.176979 120.509842,109.570480 
	C117.354820,110.212189 114.708542,110.418083 111.901505,110.658539 
	C111.740730,110.693100 111.422897,110.777664 111.422897,110.777664 
M128.882660,84.945534 
	C126.330803,84.945534 123.778946,84.945534 121.281387,84.945534 
	C121.281387,88.590073 121.281387,91.503868 121.281387,94.773048 
	C125.270622,94.570663 129.533508,96.660606 132.138290,92.147736 
	C133.886261,89.119301 132.444321,86.803352 128.882660,84.945534 
z"/>
<path fill="#53A23E" opacity="1.000000" stroke="none" 
	d="
M101.002205,26.979221 
	C103.624214,26.842026 106.246223,26.704832 109.440254,26.537704 
	C109.440254,31.016977 109.440254,35.085045 109.440254,39.845276 
	C113.411942,39.845276 116.868591,40.086281 120.253136,39.698288 
	C121.267349,39.582024 122.722824,37.786880 122.861046,36.627903 
	C123.227684,33.553589 122.985466,30.406656 122.985466,27.016842 
	C126.428314,27.016842 129.344238,27.016842 132.599289,27.016842 
	C132.599289,38.465233 132.599289,49.836792 132.599289,61.503487 
	C129.512878,61.503487 126.604668,61.503487 122.991318,61.503487 
	C122.991318,58.484798 122.827690,55.546955 123.034592,52.635437 
	C123.269676,49.327339 122.350937,47.834900 118.650360,47.933571 
	C107.534988,48.229954 109.817696,47.004265 109.574471,56.851036 
	C109.538429,58.310089 109.405205,59.766743 109.286827,61.721966 
	C106.534081,61.721966 104.091179,61.721966 101.313087,61.083927 
	C100.985992,49.290333 100.994102,38.134777 101.002205,26.979221 
z"/>
<path fill="#51A13D" opacity="1.000000" stroke="none" 
	d="
M56.032753,105.977081 
	C56.824345,107.975922 57.498764,109.604118 58.340099,111.635292 
	C52.931263,111.916519 47.672493,113.759552 46.001095,106.625694 
	C45.855289,106.003357 44.574581,105.268379 43.795273,105.237587 
	C40.143883,105.093330 36.477512,105.064590 32.830368,105.257248 
	C31.890060,105.306915 30.343023,106.169464 30.189045,106.895073 
	C28.722425,113.806328 23.517298,111.657143 18.100243,111.943260 
	C23.271814,100.018326 28.166409,88.732063 32.960629,77.677246 
	C36.623062,77.677246 40.045429,77.677246 43.541565,77.677246 
	C47.735405,87.143097 51.825493,96.374771 56.032753,105.977081 
M41.405331,94.371460 
	C40.489292,92.184608 39.573254,89.997765 38.104019,86.490273 
	C36.377842,91.011803 35.162766,94.194557 33.720398,97.972687 
	C36.531689,97.972687 38.525764,98.193741 40.413059,97.841934 
	C41.001755,97.732193 41.301880,96.074348 41.405331,94.371460 
z"/>
<path fill="#52A13D" opacity="1.000000" stroke="none" 
	d="
M232.402069,93.375565 
	C234.779831,88.041641 236.979996,83.042374 239.218414,77.956154 
	C242.824570,77.956154 246.288483,77.956154 249.914001,77.956154 
	C254.708954,88.892395 259.550934,99.935913 264.631836,111.524391 
	C259.279572,111.911240 254.163666,113.935616 252.350647,106.786980 
	C252.170227,106.075523 250.648483,105.307594 249.710999,105.255592 
	C246.232178,105.062599 242.731598,105.044357 239.252304,105.220139 
	C238.301697,105.268166 237.077179,106.002373 236.522888,106.800049 
	C232.824692,112.122345 232.872620,112.155647 225.255447,111.704605 
	C227.606552,105.633942 229.915512,99.672081 232.402069,93.375565 
M240.490402,96.707863 
	C243.075623,97.261292 245.660828,97.814728 249.478241,98.631950 
	C247.547836,94.023911 246.233032,90.885384 244.373398,86.446289 
	C242.745834,90.554337 241.676208,93.254143 240.490402,96.707863 
z"/>
<path fill="#51A13D" opacity="1.000000" stroke="none" 
	d="
M146.906738,56.968315 
	C151.151337,47.036362 155.395935,37.104408 159.536514,27.415865 
	C160.096069,27.258825 160.250824,27.196507 160.411285,27.173058 
	C169.634567,25.825151 172.687668,31.785145 175.318466,39.062000 
	C178.032425,46.568871 181.625092,53.758064 184.863892,61.156082 
	C176.432175,62.652378 176.432175,62.652378 171.211823,54.815948 
	C170.532227,54.604668 170.271011,54.708660 170.009811,54.812653 
	C166.963440,54.866760 163.917084,54.920876 160.204041,54.671825 
	C158.720627,54.667191 157.903854,54.965717 157.087097,55.264248 
	C156.652786,56.418949 156.218475,57.573650 155.311401,58.858139 
	C152.320740,57.819622 148.677948,61.069206 146.906738,56.968315 
M168.673218,45.851952 
	C167.534973,43.001389 166.396713,40.150822 164.749023,36.024433 
	C162.975204,40.560852 161.746384,43.703461 159.954895,48.285049 
	C163.751785,47.570320 166.275620,47.095226 168.673218,45.851952 
z"/>
<path fill="#51A13D" opacity="1.000000" stroke="none" 
	d="
M181.274353,90.640503 
	C183.215439,84.391571 186.469742,79.835136 192.501678,77.656441 
	C200.919830,74.615868 208.199356,76.564056 215.487717,82.508224 
	C213.133865,84.626610 211.223709,86.345688 209.384781,88.000679 
	C202.302155,83.682472 196.850296,83.563065 193.326111,87.470734 
	C190.304230,90.821487 190.185745,97.349899 193.081848,100.931580 
	C196.702911,105.409828 201.838013,105.450310 209.411072,100.855492 
	C211.140320,102.408974 212.953934,104.038239 214.737259,105.640289 
	C210.298782,112.086372 201.158447,114.378754 192.695251,111.387665 
	C184.456802,108.476006 180.354507,101.224808 181.274353,90.640503 
z"/>
<path fill="#55A341" opacity="1.000000" stroke="none" 
	d="
M96.937759,77.123894 
	C97.394470,79.360786 97.851173,81.597679 98.439301,84.478264 
	C92.042175,84.478264 86.460945,84.478264 80.508499,84.478264 
	C80.508499,87.200035 80.508499,89.406540 80.508499,92.195557 
	C85.553612,92.195557 90.458603,92.195557 95.611374,92.195557 
	C95.611374,94.868546 95.611374,96.972008 95.611374,99.685455 
	C90.778976,99.685455 85.888596,99.685455 80.135834,99.685455 
	C80.135834,103.183205 80.135834,106.092407 80.051025,109.708771 
	C79.969849,110.593506 79.973473,110.771080 79.977089,110.948647 
	C79.925339,111.136734 79.873596,111.324829 79.618332,111.709274 
	C79.414818,111.905624 79.442726,111.851929 79.442726,111.851929 
	C77.259743,111.873840 75.076767,111.895760 72.434174,111.555328 
	C71.516068,110.153923 71.057587,109.114845 70.599098,108.075775 
	C70.576241,98.375671 70.553391,88.675568 71.133850,78.552788 
	C75.235580,78.097969 78.738121,78.161591 82.231400,78.010628 
	C87.137131,77.798615 92.035980,77.427155 96.937759,77.123894 
z"/>
<path fill="#4EA03A" opacity="1.000000" stroke="none" 
	d="
M206.191406,33.014053 
	C206.260773,41.018810 206.330124,49.023563 205.977386,57.711403 
	C205.362488,59.393074 205.169693,60.391663 204.976913,61.390251 
	C204.231232,61.471165 203.485535,61.552078 202.354706,61.176613 
	C200.737289,59.785347 199.505005,58.850456 197.988174,57.699684 
	C197.988174,59.183685 197.988174,60.302547 197.988174,61.421410 
	C197.650131,61.099289 197.018097,60.778526 197.016602,60.454865 
	C196.965469,49.366829 196.974060,38.278526 196.974060,26.952337 
	C200.244705,26.952337 203.152939,26.952337 206.461044,26.952337 
	C206.461044,28.550413 206.461044,29.993433 206.051910,31.748041 
	C205.388077,32.170811 205.133377,32.281998 204.878677,32.393181 
	C205.316254,32.600136 205.753830,32.807095 206.191406,33.014053 
z"/>
<path fill="#55A341" opacity="1.000000" stroke="none" 
	d="
M158.984787,78.110016 
	C160.404556,77.823502 161.873520,77.682144 163.234070,77.220924 
	C166.272125,76.191032 167.169083,77.446938 166.298370,80.812393 
	C165.529449,87.005791 165.137863,92.667030 165.062500,98.332474 
	C165.040802,99.963516 165.930420,101.606674 166.402222,103.244278 
	C166.482819,104.516068 166.563431,105.787865 166.159607,107.639442 
	C162.882111,108.823898 160.089020,109.428574 157.295944,110.033241 
	C157.217178,109.568718 157.138412,109.104202 157.544403,108.182312 
	C158.356583,106.182831 158.951141,104.643448 158.966934,103.098137 
	C159.052139,94.769569 158.993683,86.439545 158.984787,78.110016 
z"/>
<path fill="#F8C51C" opacity="1.000000" stroke="none" 
	d="
M201.849075,10.212321 
	C204.406509,8.461294 206.870956,6.541932 209.571487,5.049911 
	C210.525558,4.522800 212.407486,4.591192 213.211975,5.221788 
	C213.850266,5.722116 213.791962,7.567127 213.520828,8.688890 
	C212.588394,12.546644 211.487579,16.367445 210.335922,20.167482 
	C209.066528,24.355995 207.627258,24.576099 202.154510,20.904957 
	C201.849060,16.928616 201.849060,13.570469 201.849075,10.212321 
z"/>
<path fill="#FCCE14" opacity="1.000000" stroke="none" 
	d="
M27.982672,46.094158 
	C20.215208,37.509949 19.236200,28.658390 25.605566,20.950611 
	C26.564867,22.823156 27.428198,24.508369 28.308506,26.813917 
	C28.485989,27.968672 28.646496,28.503094 28.807003,29.037516 
	C28.795406,29.204592 28.783810,29.371670 28.814507,30.042225 
	C28.936234,30.702314 29.015671,30.858931 29.095108,31.015545 
	C29.405413,34.051456 29.715715,37.087368 29.834219,40.873680 
	C29.417986,43.091286 29.193552,44.558491 28.969120,46.025700 
	C28.969120,46.025700 28.991686,45.991276 28.751530,46.044399 
	C28.335142,46.096401 28.158907,46.095280 27.982672,46.094158 
z"/>
<path fill="#FBC828" opacity="1.000000" stroke="none" 
	d="
M208.735168,130.797577 
	C211.254623,130.953384 214.661560,130.585403 215.229935,131.684830 
	C216.419800,133.986526 216.168579,137.057602 216.356354,139.823090 
	C216.380737,140.182114 215.424789,140.984741 215.058380,140.910797 
	C214.399597,140.777847 213.444260,140.225342 213.324295,139.688995 
	C213.039383,138.415359 213.432251,136.967422 213.052765,135.744614 
	C212.734879,134.720245 211.711349,133.914856 211.000275,133.012512 
	C210.307083,133.971222 209.370193,134.839798 208.974854,135.908676 
	C208.292816,137.752655 210.322876,141.248825 205.941467,140.798416 
	C205.754532,140.315735 205.612457,140.016739 205.521439,139.702957 
	C204.877716,137.483658 204.244476,135.261292 203.607880,133.039917 
	C202.726913,135.028824 201.902771,137.045959 200.936081,138.992294 
	C200.566422,139.736572 199.870605,140.318848 199.323425,140.974945 
	C198.862167,140.241943 198.050583,139.530853 198.003143,138.772003 
	C197.838638,136.140366 197.939651,133.492111 197.939651,129.943787 
	C201.685013,130.302078 205.010986,130.620255 208.735168,130.797577 
z"/>
<path fill="#FBC829" opacity="1.000000" stroke="none" 
	d="
M19.143700,135.876221 
	C19.132967,133.589233 18.946373,131.736343 19.193348,129.943161 
	C19.348827,128.814270 20.153736,127.774849 20.667311,126.695297 
	C21.331635,127.786339 22.036966,128.855438 22.638760,129.979950 
	C22.859127,130.391724 22.833986,130.934891 23.016754,131.951736 
	C24.667627,132.049835 26.393604,132.152390 27.433386,132.214172 
	C28.886734,129.996201 29.988676,128.314499 31.090618,126.632812 
	C31.465895,128.760239 32.008518,130.874878 32.172508,133.018463 
	C32.361588,135.490082 32.216446,137.987259 32.216446,140.469498 
	C29.281427,140.559952 29.281427,140.559952 28.438593,135.495880 
	C26.767944,135.495880 25.035032,135.495880 22.998646,135.495880 
	C22.764071,137.244858 22.530590,138.985672 22.291756,140.766403 
	C17.731201,141.526611 19.599377,138.149750 19.143700,135.876221 
z"/>
<path fill="#FAC720" opacity="1.000000" stroke="none" 
	d="
M90.353622,138.197281 
	C86.786491,138.914551 83.606163,139.753098 79.884056,140.734482 
	C81.809311,136.389282 83.459435,132.284195 85.432838,128.340897 
	C86.820656,125.567711 88.762924,125.717270 90.112823,128.412766 
	C92.038383,132.257721 93.702644,136.233521 95.478508,140.153427 
	C95.186996,140.515701 94.895485,140.877975 94.603966,141.240234 
	C93.316116,140.266342 92.028267,139.292450 90.353622,138.197281 
z"/>
<path fill="#FBC828" opacity="1.000000" stroke="none" 
	d="
M110.017807,130.893433 
	C109.487274,132.392532 108.726082,133.856018 108.487595,135.400223 
	C108.220360,137.130600 108.426201,138.934036 108.426201,140.665466 
	C98.766502,141.245255 96.382858,140.243408 96.143166,135.784500 
	C95.933975,131.892731 98.480568,130.076431 104.521538,129.843597 
	C105.009155,128.583099 105.504990,127.301384 106.516167,124.687485 
	C107.762825,127.435509 108.497246,129.054413 109.618767,130.840866 
	C110.005867,131.008423 110.017799,130.893433 110.017807,130.893433 
M102.348473,138.593246 
	C105.012154,137.834641 105.966812,136.063843 104.434341,133.787903 
	C103.949959,133.068497 101.994324,133.339722 100.712013,133.157578 
	C101.009041,134.942551 101.306076,136.727509 102.348473,138.593246 
z"/>
<path fill="#4A9E30" opacity="1.000000" stroke="none" 
	d="
M192.968628,20.015375 
	C191.787415,15.224875 190.606201,10.434377 189.002853,3.931865 
	C192.421494,5.040668 194.808167,5.814761 197.329575,6.992754 
	C197.756073,7.448148 198.047821,7.499645 198.339584,7.551142 
	C198.339584,7.551143 198.102463,7.692341 198.194580,7.934746 
	C198.737122,8.463153 199.187531,8.749155 199.637939,9.035158 
	C199.711792,9.204425 199.785645,9.373690 199.913208,10.227991 
	C199.348328,14.717709 198.729721,18.522388 198.111115,22.327068 
	C197.181213,22.703419 196.251312,23.079771 195.191986,22.901096 
	C195.484421,21.057039 195.906296,19.768013 196.550522,17.799597 
	C194.892868,18.825024 193.930740,19.420200 192.968628,20.015375 
M195.847488,9.423765 
	C194.639130,8.572632 193.430771,7.721498 192.222412,6.870364 
	C191.935242,7.514594 191.648087,8.158823 191.360916,8.803053 
	C192.822311,9.224563 194.283707,9.646071 195.847488,9.423765 
z"/>
<path fill="#FBC92B" opacity="1.000000" stroke="none" 
	d="
M224.757645,130.002960 
	C229.304520,130.003357 231.453674,132.006790 231.117050,136.182388 
	C230.730042,140.983032 227.194031,141.297455 224.060806,141.184830 
	C222.665085,142.666397 221.575027,143.823517 220.484955,144.980621 
	C220.058914,143.372223 219.366333,141.780563 219.263870,140.151794 
	C219.067642,137.032791 219.206818,133.892685 219.206818,130.442841 
	C221.153076,130.289658 222.737137,130.164963 224.757645,130.002960 
M226.748856,138.087479 
	C226.590698,136.317841 226.432541,134.548203 226.274384,132.778564 
	C225.131805,133.328796 223.247910,133.645859 222.987595,134.473572 
	C222.248779,136.822662 222.799683,138.874939 226.748856,138.087479 
z"/>
<path fill="#FBC82D" opacity="1.000000" stroke="none" 
	d="
M60.978897,134.223129 
	C61.876423,133.297516 62.618019,131.916000 63.704983,131.544205 
	C65.763687,130.840042 68.273140,129.960449 70.118652,130.578064 
	C71.721329,131.114410 72.665855,133.617416 74.470718,136.004425 
	C70.815979,136.354004 68.622528,136.563812 66.429077,136.773621 
	C66.414360,137.108246 66.399643,137.442886 66.384926,137.777512 
	C68.284615,138.051956 70.184303,138.326401 72.287323,138.630234 
	C68.910744,142.638962 65.745895,142.067596 61.325893,136.607651 
	C60.982121,135.508865 60.980511,134.865997 60.978897,134.223129 
z"/>
<path fill="#FBC51C" opacity="1.000000" stroke="none" 
	d="
M60.681122,134.000153 
	C60.980511,134.865997 60.982121,135.508865 60.981819,136.473160 
	C58.501839,138.639954 56.023773,140.485306 53.545712,142.330673 
	C53.303932,141.982285 53.062157,141.633881 52.820377,141.285492 
	C52.007900,142.640686 51.195427,143.995895 50.382950,145.351089 
	C49.982048,145.180008 49.581146,145.008942 49.180244,144.837860 
	C49.180244,140.113480 49.180244,135.389099 49.180244,130.229752 
	C53.309334,130.879471 58.124195,127.830231 60.681122,134.000153 
M53.290962,137.991013 
	C54.684788,137.634476 56.309834,137.580078 57.360882,136.775665 
	C57.793240,136.444763 57.312931,134.249695 56.636852,133.374451 
	C56.173378,132.774414 53.821182,132.679062 53.743347,132.888809 
	C53.199821,134.353455 53.029449,135.956558 53.290962,137.991013 
z"/>
<path fill="#FAC316" opacity="1.000000" stroke="none" 
	d="
M158.178772,133.018311 
	C158.299927,135.704834 158.299927,138.004898 158.299927,140.718475 
	C154.685379,140.639191 150.507141,143.076828 148.378311,138.482086 
	C148.026810,137.723450 151.904663,135.005295 154.075302,132.959610 
	C152.872528,132.736801 151.126007,132.413284 149.339172,132.082291 
	C152.350830,128.994095 154.387985,129.149841 158.178772,133.018311 
z"/>
<path fill="#FAC622" opacity="1.000000" stroke="none" 
	d="
M171.867249,130.986191 
	C171.867249,130.986191 172.020630,130.603729 172.293625,130.349792 
	C172.566620,130.095840 172.989136,129.833450 172.989136,129.833450 
	C174.712738,131.764130 176.436340,133.694794 178.238693,135.713699 
	C179.440613,133.893967 180.848328,131.762634 182.256058,129.631302 
	C182.830093,129.966919 183.404114,130.302536 183.978134,130.638153 
	C182.170563,134.741348 180.671921,139.029556 178.386154,142.846375 
	C177.597107,144.163971 174.849030,144.308365 172.531143,144.708023 
	C172.066467,144.427383 171.853851,143.981964 171.853851,143.981964 
	C172.378891,143.426575 172.903915,142.871170 174.116669,142.325714 
	C174.808441,140.899796 174.812531,139.463928 174.816620,138.028061 
	C174.247803,136.565857 173.678986,135.103638 172.942963,133.048416 
	C172.472931,131.965652 172.170090,131.475922 171.867249,130.986191 
z"/>
<path fill="#FBC829" opacity="1.000000" stroke="none" 
	d="
M130.458160,130.131409 
	C132.005478,132.490219 133.848969,134.706070 134.052277,137.063400 
	C134.156174,138.267990 131.525696,140.381485 129.770050,140.931290 
	C126.267357,142.028244 122.837067,139.493774 122.445587,136.185013 
	C122.011383,132.515213 124.926346,130.170197 130.458160,130.131409 
M127.676743,132.789856 
	C127.458321,134.539993 127.239891,136.290131 127.021477,138.040268 
	C128.196426,137.842743 129.969559,138.054565 130.436325,137.372437 
	C131.953049,135.155975 131.384781,133.294281 127.676743,132.789856 
z"/>
<path fill="#FBC725" opacity="1.000000" stroke="none" 
	d="
M36.058048,131.837967 
	C38.147881,131.054535 40.570324,129.570190 41.680626,130.244949 
	C43.721718,131.485367 46.323090,134.082840 46.202160,135.953812 
	C46.083843,137.784363 43.121220,140.276627 40.942509,140.930481 
	C37.664505,141.914261 35.212219,139.726273 34.739014,136.271606 
	C34.559040,134.957733 35.415009,133.501968 36.058048,131.837967 
M38.500507,133.426300 
	C37.628017,135.616348 37.286972,137.824249 40.340443,138.209305 
	C41.173393,138.314362 42.972401,136.683151 43.045826,135.748077 
	C43.246136,133.197250 42.054619,131.618164 38.500507,133.426300 
z"/>
<path fill="#F9C414" opacity="1.000000" stroke="none" 
	d="
M242.128220,137.005676 
	C242.602005,142.904861 238.374908,140.819107 236.051636,140.900024 
	C233.373520,140.993347 232.617508,139.064529 233.244431,136.400284 
	C233.620178,134.803497 233.313446,133.046112 233.313446,131.354507 
	C241.394043,130.152328 241.972366,130.491699 242.128220,137.005676 
z"/>
<path fill="#FBC930" opacity="1.000000" stroke="none" 
	d="
M256.991455,131.712906 
	C255.701233,132.249039 254.436371,132.861649 253.113800,133.300262 
	C251.737091,133.756821 250.213928,133.870636 248.957001,134.523575 
	C248.619827,134.698715 248.836288,137.042542 249.112030,137.110016 
	C250.552948,137.462631 252.095840,137.388321 253.601105,137.493240 
	C254.218307,137.536285 254.830139,137.656555 255.444397,137.741699 
	C255.605743,138.250092 255.767075,138.758484 255.928421,139.266876 
	C253.994888,139.882782 251.774643,141.391983 250.200943,140.886887 
	C248.264664,140.265381 245.607559,138.003021 245.557404,136.378983 
	C245.495193,134.364273 247.349060,131.327545 249.180176,130.488083 
	C251.009598,129.649399 253.832748,130.978409 256.620911,131.433456 
	C257.021576,131.509766 256.991455,131.712906 256.991455,131.712906 
z"/>
<path fill="#FBC722" opacity="1.000000" stroke="none" 
	d="
M139.793549,133.687195 
	C137.834183,141.337036 144.418243,136.253357 146.509171,138.507599 
	C144.070160,142.032425 140.995651,141.884033 138.087189,139.917664 
	C135.152786,137.933746 134.860947,134.759537 137.062134,132.162903 
	C139.908249,128.805511 143.280960,129.280945 147.507263,132.756729 
	C144.335114,133.028229 142.195419,133.211349 139.793549,133.687195 
z"/>
<path fill="#FBCA33" opacity="1.000000" stroke="none" 
	d="
M257.220947,132.148438 
	C256.991455,131.712906 257.021576,131.509766 257.036560,131.456787 
	C259.332794,126.696671 259.332794,126.696671 264.314270,131.564285 
	C260.315155,134.631821 261.187195,137.595642 265.603729,140.385986 
	C260.874481,141.862579 258.551270,140.863297 258.217316,136.407593 
	C258.120850,135.121109 257.714630,133.857864 257.220947,132.148438 
z"/>
<path fill="#FCC828" opacity="1.000000" stroke="none" 
	d="
M171.019135,133.007538 
	C169.888046,132.983246 168.623123,132.625870 167.657669,133.013779 
	C166.256165,133.576889 165.070831,134.678009 163.793304,135.549667 
	C165.076111,136.408752 166.273178,137.478470 167.673645,138.048538 
	C168.523819,138.394623 169.688339,137.968430 171.345627,137.840057 
	C169.399689,141.908386 166.319153,141.795181 163.993134,140.543365 
	C162.326859,139.646622 160.342896,136.651642 160.747574,135.234390 
	C161.333618,133.182007 163.753510,131.390900 165.789963,130.135101 
	C166.693878,129.577682 168.572525,130.600876 170.450607,131.328247 
	C170.934692,132.169083 170.976913,132.588318 171.019135,133.007538 
z"/>
<path fill="#FBC624" opacity="1.000000" stroke="none" 
	d="
M110.130096,131.314423 
	C110.017799,130.893433 110.005867,131.008423 110.005356,131.037018 
	C111.211174,131.381607 112.739037,131.353363 113.540939,132.102371 
	C114.503021,133.000977 114.846191,134.562195 115.527046,135.981781 
	C117.026405,133.905426 118.328308,132.102524 119.630219,130.299622 
	C120.079132,130.587402 120.528046,130.875168 120.976967,131.162949 
	C120.051056,133.828079 119.253548,136.549438 118.125465,139.126053 
	C117.759888,139.961060 116.518761,140.920380 115.695145,140.905136 
	C114.863037,140.889679 113.721344,139.901871 113.295128,139.049942 
	C112.115822,136.692673 111.238869,134.184143 110.130096,131.314423 
z"/>
<path fill="#429A2A" opacity="1.000000" stroke="none" 
	d="
M158.747162,78.027405 
	C158.993683,86.439545 159.052139,94.769569 158.966934,103.098137 
	C158.951141,104.643448 158.356583,106.182831 157.658569,107.842667 
	C157.222916,98.627457 157.157806,89.294540 157.372162,79.357544 
	C157.777466,78.434021 157.903320,78.114578 158.029190,77.795143 
	C158.189301,77.845032 158.349426,77.894913 158.747162,78.027405 
z"/>
<path fill="#FBC621" opacity="1.000000" stroke="none" 
	d="
M191.504761,135.849136 
	C191.504990,132.521118 191.504990,129.646255 191.504990,126.771400 
	C192.121140,126.721619 192.737274,126.671837 193.353424,126.622055 
	C196.661438,130.140930 194.248596,134.834854 194.803207,138.898453 
	C194.896851,139.584641 193.377304,140.491013 191.773010,142.158386 
	C191.637756,139.208115 191.571152,137.755203 191.504761,135.849136 
z"/>
<path fill="#409B2A" opacity="1.000000" stroke="none" 
	d="
M166.528961,102.839951 
	C165.930420,101.606674 165.040802,99.963516 165.062500,98.332474 
	C165.137863,92.667030 165.529449,87.005791 166.147888,81.200668 
	C166.548569,88.184128 166.602127,95.309868 166.528961,102.839951 
z"/>
<path fill="#38961A" opacity="1.000000" stroke="none" 
	d="
M100.569473,27.107473 
	C100.994102,38.134777 100.985992,49.290333 100.945099,60.945442 
	C100.548065,60.952164 99.864494,60.458031 99.866486,59.966690 
	C99.910912,49.056183 100.031013,38.145985 100.569473,27.107473 
z"/>
<path fill="#5EA94B" opacity="1.000000" stroke="none" 
	d="
M146.654053,57.225067 
	C148.677948,61.069206 152.320740,57.819622 155.105347,59.088863 
	C153.300232,64.924187 148.605865,59.924625 144.981995,61.395172 
	C145.455124,60.090717 145.928253,58.786266 146.654053,57.225067 
z"/>
<path fill="#58A340" opacity="1.000000" stroke="none" 
	d="
M198.492615,22.204971 
	C198.729721,18.522388 199.348328,14.717709 199.968185,10.499491 
	C200.389450,10.095230 200.809448,10.104508 201.539276,10.163054 
	C201.849060,13.570469 201.849060,16.928616 201.863556,20.642746 
	C200.876740,21.360111 199.875412,21.721491 198.492615,22.204971 
z"/>
<path fill="#FCEFC0" opacity="1.000000" stroke="none" 
	d="
M72.645729,40.972660 
	C73.258545,43.242371 73.545181,45.484623 73.831825,47.726875 
	C73.298111,47.838394 72.764404,47.949913 72.230698,48.061432 
	C71.297974,45.702217 70.365257,43.343006 69.022583,40.928566 
	C69.916603,37.372253 71.069656,41.656429 72.645729,40.972660 
z"/>
<path fill="#249406" opacity="1.000000" stroke="none" 
	d="
M96.479233,77.044632 
	C92.035980,77.427155 87.137131,77.798615 82.231400,78.010628 
	C78.738121,78.161591 75.235580,78.097969 71.253510,78.163925 
	C70.769859,78.197739 70.728737,78.195534 70.853592,77.943298 
	C71.010109,77.510445 71.041771,77.329826 71.073441,77.149200 
	C79.389191,77.087921 87.704941,77.026642 96.479233,77.044632 
z"/>
<path fill="#409B2A" opacity="1.000000" stroke="none" 
	d="
M157.277084,110.411911 
	C160.089020,109.428574 162.882111,108.823898 166.022827,108.000877 
	C166.149414,112.240150 163.235550,113.202057 157.277084,110.411911 
z"/>
<path fill="#459B2F" opacity="1.000000" stroke="none" 
	d="
M112.062271,110.623978 
	C114.708542,110.418083 117.354820,110.212189 120.420486,110.009399 
	C118.240479,110.623138 115.641068,111.233765 112.614548,111.497818 
	C112.145714,110.975494 112.103996,110.799728 112.062271,110.623978 
z"/>
<path fill="#FDEFC6" opacity="1.000000" stroke="none" 
	d="
M29.341215,46.108955 
	C29.193552,44.558491 29.417986,43.091286 29.839092,41.307144 
	C30.716995,40.753952 31.398224,40.517689 32.313797,40.133018 
	C31.603195,42.053810 30.658255,44.123013 29.341215,46.108955 
z"/>
<path fill="#58A340" opacity="1.000000" stroke="none" 
	d="
M192.965363,20.341709 
	C193.930740,19.420200 194.892868,18.825024 196.550522,17.799597 
	C195.906296,19.768013 195.484421,21.057039 195.029327,22.676369 
	C194.318085,22.227129 193.640106,21.447586 192.965363,20.341709 
z"/>
<path fill="#489E2F" opacity="1.000000" stroke="none" 
	d="
M198.384247,61.522507 
	C197.988174,60.302547 197.988174,59.183685 197.988174,57.699684 
	C199.505005,58.850456 200.737289,59.785347 201.996429,61.051090 
	C200.942307,61.462498 199.861298,61.543053 198.384247,61.522507 
z"/>
<path fill="#69AE59" opacity="1.000000" stroke="none" 
	d="
M70.465805,108.367828 
	C71.057587,109.114845 71.516068,110.153923 71.973480,111.489845 
	C71.425781,110.744431 70.879150,109.702156 70.465805,108.367828 
z"/>
<path fill="#FCF6E3" opacity="1.000000" stroke="none" 
	d="
M174.578735,138.300415 
	C174.812531,139.463928 174.808441,140.899796 174.427582,142.279816 
	C174.147491,141.006897 174.244171,139.789841 174.578735,138.300415 
z"/>
<path fill="#459B2F" opacity="1.000000" stroke="none" 
	d="
M111.541138,89.337143 
	C112.324417,89.333038 112.982986,89.648293 113.641548,89.963554 
	C113.170738,90.294235 112.699928,90.624916 111.947662,90.968094 
	C111.582947,90.539238 111.499687,90.097870 111.541138,89.337143 
z"/>
<path fill="#FDEFC6" opacity="1.000000" stroke="none" 
	d="
M29.045410,28.915693 
	C28.646496,28.503094 28.485989,27.968672 28.428680,27.160097 
	C28.782524,27.521919 29.033171,28.157894 29.045410,28.915693 
z"/>
<path fill="#FCF6E3" opacity="1.000000" stroke="none" 
	d="
M171.318634,133.011444 
	C170.976913,132.588318 170.934692,132.169083 170.814468,131.441132 
	C170.923569,131.096634 171.110672,131.060883 171.582520,131.005676 
	C172.170090,131.475922 172.472931,131.965652 172.795380,132.742126 
	C172.416031,133.024368 172.017075,133.019867 171.318634,133.011444 
z"/>
<path fill="#5EA94B" opacity="1.000000" stroke="none" 
	d="
M157.450592,55.226006 
	C157.903854,54.965717 158.720627,54.667191 159.753632,54.591194 
	C159.251282,54.938408 158.532700,55.063084 157.450592,55.226006 
z"/>
<path fill="#489E2F" opacity="1.000000" stroke="none" 
	d="
M205.397247,61.290951 
	C205.169693,60.391663 205.362488,59.393074 205.863403,58.164711 
	C206.053543,59.020508 205.935562,60.106079 205.397247,61.290951 
z"/>
<path fill="#FCF6E3" opacity="1.000000" stroke="none" 
	d="
M171.608124,144.014267 
	C171.853851,143.981964 172.066467,144.427383 172.136353,144.664062 
	C171.731049,144.829788 171.255859,144.758835 170.780655,144.687897 
	C170.974579,144.474121 171.168488,144.260345 171.608124,144.014267 
z"/>
<path fill="#58A340" opacity="1.000000" stroke="none" 
	d="
M199.682770,8.762306 
	C199.187531,8.749155 198.737122,8.463153 198.324829,7.889185 
	C198.817841,7.897298 199.272720,8.193377 199.682770,8.762306 
z"/>
<path fill="#489E2F" opacity="1.000000" stroke="none" 
	d="
M206.280670,32.774391 
	C205.753830,32.807095 205.316254,32.600136 204.878677,32.393181 
	C205.133377,32.281998 205.388077,32.170811 205.912781,32.059166 
	C206.245178,32.217381 206.307556,32.376057 206.280670,32.774391 
z"/>
<path fill="#72B364" opacity="1.000000" stroke="none" 
	d="
M157.878906,77.525322 
	C157.903320,78.114578 157.777466,78.434021 157.431580,78.894745 
	C157.383926,78.442528 157.556274,77.849014 157.878906,77.525322 
z"/>
<path fill="#FDCF16" opacity="1.000000" stroke="none" 
	d="
M81.281876,21.630989 
	C81.214401,21.874069 80.981400,21.905920 80.397095,21.968714 
	C80.402641,21.806360 80.759499,21.613062 81.281876,21.630989 
z"/>
<path fill="#58A340" opacity="1.000000" stroke="none" 
	d="
M198.212982,7.355563 
	C198.047821,7.499645 197.756073,7.448148 197.546967,7.232358 
	C197.629608,7.068064 198.086395,7.159986 198.212982,7.355563 
z"/>
<path fill="#FCF6E3" opacity="1.000000" stroke="none" 
	d="
M172.861481,129.695465 
	C172.989136,129.833450 172.566620,130.095840 172.323044,130.145874 
	C172.297592,129.983093 172.515717,129.770294 172.861481,129.695465 
z"/>
<path fill="#69AE59" opacity="1.000000" stroke="none" 
	d="
M79.421547,111.966614 
	C79.442726,111.851929 79.414818,111.905624 79.388962,111.890961 
	C79.363098,111.876297 79.415535,112.202881 79.415535,112.202881 
	C79.415535,112.202881 79.400368,112.081299 79.421547,111.966614 
z"/>
<path fill="#93C187" opacity="1.000000" stroke="none" 
	d="
M111.901505,110.658539 
	C112.103996,110.799728 112.145714,110.975494 112.192368,111.422089 
	C111.910934,111.560127 111.624580,111.427330 111.380554,111.036102 
	C111.422897,110.777664 111.740730,110.693100 111.901505,110.658539 
z"/>
<path fill="#69AE59" opacity="1.000000" stroke="none" 
	d="
M80.101700,110.852325 
	C79.973473,110.771080 79.969849,110.593506 80.012177,110.153404 
	C80.297508,110.140877 80.353561,110.429245 80.101700,110.852325 
z"/>
<path fill="#FDCF16" opacity="1.000000" stroke="none" 
	d="
M77.807060,25.614437 
	C77.870255,25.672272 77.832817,25.687090 77.850464,25.690300 
	C77.868111,25.693512 77.743866,25.556601 77.807060,25.614437 
z"/>
<path fill="#FDEFC6" opacity="1.000000" stroke="none" 
	d="
M29.245968,30.905460 
	C29.015671,30.858931 28.936234,30.702314 28.883858,30.283682 
	C29.072891,30.279568 29.234859,30.537472 29.245968,30.905460 
z"/>
<path fill="#69AE59" opacity="1.000000" stroke="none" 
	d="
M70.837120,77.144470 
	C71.041771,77.329826 71.010109,77.510445 70.839050,77.928665 
	C70.545837,77.924553 70.374619,77.690742 70.257370,77.432442 
	C70.240196,77.394623 70.479935,77.240196 70.837120,77.144470 
z"/>
<path fill="#5EA94B" opacity="1.000000" stroke="none" 
	d="
M170.255600,54.878731 
	C170.271011,54.708660 170.532227,54.604668 170.888031,54.639771 
	C170.822205,54.834183 170.661804,54.889496 170.255600,54.878731 
z"/>
<path fill="#FDEFC6" opacity="1.000000" stroke="none" 
	d="
M28.091110,46.328568 
	C28.158907,46.095280 28.335142,46.096401 28.767174,46.031029 
	C29.068737,46.128410 29.114502,46.292282 29.138718,46.710220 
	C28.811298,46.830521 28.505424,46.696751 28.091110,46.328568 
z"/>
<path fill="#F4F9F3" opacity="1.000000" stroke="none" 
	d="
M129.298126,85.032677 
	C132.444321,86.803352 133.886261,89.119301 132.138290,92.147736 
	C129.533508,96.660606 125.270622,94.570663 121.281387,94.773048 
	C121.281387,91.503868 121.281387,88.590073 121.281387,84.945534 
	C123.778946,84.945534 126.330803,84.945534 129.298126,85.032677 
z"/>
<path fill="#E8F4E7" opacity="1.000000" stroke="none" 
	d="
M41.569717,94.748322 
	C41.301880,96.074348 41.001755,97.732193 40.413059,97.841934 
	C38.525764,98.193741 36.531689,97.972687 33.720398,97.972687 
	C35.162766,94.194557 36.377842,91.011803 38.104019,86.490273 
	C39.573254,89.997765 40.489292,92.184608 41.569717,94.748322 
z"/>
<path fill="#E6F1E4" opacity="1.000000" stroke="none" 
	d="
M240.548492,96.330902 
	C241.676208,93.254143 242.745834,90.554337 244.373398,86.446289 
	C246.233032,90.885384 247.547836,94.023911 249.478241,98.631950 
	C245.660828,97.814728 243.075623,97.261292 240.548492,96.330902 
z"/>
<path fill="#E3EFE0" opacity="1.000000" stroke="none" 
	d="
M168.736343,46.236042 
	C166.275620,47.095226 163.751785,47.570320 159.954895,48.285049 
	C161.746384,43.703461 162.975204,40.560852 164.749023,36.024433 
	C166.396713,40.150822 167.534973,43.001389 168.736343,46.236042 
z"/>
<path fill="#FCF4E1" opacity="1.000000" stroke="none" 
	d="
M101.975784,138.552856 
	C101.306076,136.727509 101.009041,134.942551 100.712013,133.157578 
	C101.994324,133.339722 103.949959,133.068497 104.434341,133.787903 
	C105.966812,136.063843 105.012154,137.834641 101.975784,138.552856 
z"/>
<path fill="#58A340" opacity="1.000000" stroke="none" 
	d="
M195.796295,9.745672 
	C194.283707,9.646071 192.822311,9.224563 191.360916,8.803053 
	C191.648087,8.158823 191.935242,7.514594 192.222412,6.870364 
	C193.430771,7.721498 194.639130,8.572632 195.796295,9.745672 
z"/>
<path fill="#FDF4DE" opacity="1.000000" stroke="none" 
	d="
M226.413391,138.260437 
	C222.799683,138.874939 222.248779,136.822662 222.987595,134.473572 
	C223.247910,133.645859 225.131805,133.328796 226.274384,132.778564 
	C226.432541,134.548203 226.590698,136.317841 226.413391,138.260437 
z"/>
<path fill="#FCF4DD" opacity="1.000000" stroke="none" 
	d="
M53.015270,137.753174 
	C53.029449,135.956558 53.199821,134.353455 53.743347,132.888809 
	C53.821182,132.679062 56.173378,132.774414 56.636852,133.374451 
	C57.312931,134.249695 57.793240,136.444763 57.360882,136.775665 
	C56.309834,137.580078 54.684788,137.634476 53.015270,137.753174 
z"/>
<path fill="#FCF5E0" opacity="1.000000" stroke="none" 
	d="
M128.087204,132.705383 
	C131.384781,133.294281 131.953049,135.155975 130.436325,137.372437 
	C129.969559,138.054565 128.196426,137.842743 127.021469,138.040268 
	C127.239891,136.290131 127.458321,134.539993 128.087204,132.705383 
z"/>
<path fill="#FCF5E1" opacity="1.000000" stroke="none" 
	d="
M38.816643,133.194336 
	C42.054619,131.618164 43.246136,133.197250 43.045826,135.748077 
	C42.972401,136.683151 41.173393,138.314362 40.340443,138.209305 
	C37.286972,137.824249 37.628017,135.616348 38.816643,133.194336 
z"/>
</svg>