<?xml version="1.0" encoding="UTF-8"?>
<svg version="1.1" xmlns="http://www.w3.org/2000/svg" width="500" height="385">
<path d="M0 0 C1 2 1 2 0.4765625 3.953125 C0.19554687 4.71109375 -0.08546875 5.4690625 -0.375 6.25 C-2.66348649 12.45244003 -3.20305977 18.6223648 -3.5625 25.1875 C-3.6049585 25.93056396 -3.64741699 26.67362793 -3.69116211 27.43920898 C-4.00613786 33.29572987 -4.11400464 39.13509439 -4 45 C-1.9237343 46.03513247 0.16131479 47.05266211 2.25 48.0625 C3.41015625 48.63097656 4.5703125 49.19945312 5.765625 49.78515625 C8.76000763 51.13031765 8.76000763 51.13031765 11.15234375 50.984375 C13.8495236 49.54739969 15.37576509 47.53703809 17.3125 45.1875 C20.95528048 40.98567895 23.93731515 38.27304218 29 36 C29.66 36 30.32 36 31 36 C31.24492187 35.47921875 31.48984375 34.9584375 31.7421875 34.421875 C33.38061187 31.26714486 35.24881638 28.26647897 37.125 25.25 C37.49753906 24.64800781 37.87007812 24.04601562 38.25390625 23.42578125 C39.16774724 21.94957657 40.08366598 20.47465846 41 19 C42.03894239 21.65575806 42.12545245 22.70320977 40.99609375 25.375 C40.48175781 26.24125 39.96742188 27.1075 39.4375 28 C36.04496088 33.88728686 32.99967827 39.90490905 30 46 C30.54938232 46.25692627 31.09876465 46.51385254 31.66479492 46.77856445 C34.17366801 47.95378039 36.6805909 49.13310075 39.1875 50.3125 C40.48397461 50.91868164 40.48397461 50.91868164 41.80664062 51.53710938 C45.24478682 53.15738517 48.5695686 54.72773554 51.78515625 56.76171875 C55.96819716 59.10038536 60.3673651 58.66823028 65 58 C68.28723647 56.75212113 71.05681471 54.90627847 74 53 C76.46395112 51.53576102 78.95063628 50.11236124 81.4375 48.6875 C82.05343018 48.32591797 82.66936035 47.96433594 83.30395508 47.59179688 C87.77306356 45 87.77306356 45 90 45 C89.45018084 51.04801071 88.09570426 56.30601106 86 62 C87.57201172 61.45859375 87.57201172 61.45859375 89.17578125 60.90625 C90.55460651 60.43726182 91.93351725 59.9685249 93.3125 59.5 C94.00279297 59.26152344 94.69308594 59.02304688 95.40429688 58.77734375 C98.38931489 57.76791737 100.82658914 57 104 57 C104 52.38 104 47.76 104 43 C107.63 43 111.26 43 115 43 C115.33 45.31 115.66 47.62 116 50 C116.97582031 49.48308594 117.95164062 48.96617187 118.95703125 48.43359375 C120.24191582 47.76770467 121.52708715 47.10236872 122.8125 46.4375 C123.45509766 46.09525391 124.09769531 45.75300781 124.75976562 45.40039062 C126.46926395 44.5234977 128.23321294 43.75484383 130 43 C130.99 43.33 131.98 43.66 133 44 C132.67 52.91 132.34 61.82 132 71 C134.64 71 137.28 71 140 71 C140 67.04 140 63.08 140 59 C143.3 59 146.6 59 150 59 C150 63.29 150 67.58 150 72 C151.98 72 153.96 72 156 72 C156 62.43 156 52.86 156 43 C156.66 43 157.32 43 158 43 C158 52.9 158 62.8 158 73 C154.7 73 151.4 73 148 73 C148 69.04 148 65.08 148 61 C146.02 61 144.04 61 142 61 C142 64.96 142 68.92 142 73 C138.32790856 73.04648217 134.6710339 73.04742938 131 73 C129.75089844 73.01160156 129.75089844 73.01160156 128.4765625 73.0234375 C124.97338797 72.891919 122.82528773 72.70933822 120.109375 70.375 C118.61478717 68.64295429 117.26711185 66.90315231 116 65 C115.67 67.64 115.34 70.28 115 73 C111.37 73 107.74 73 104 73 C104 69.04 104 65.08 104 61 C102.72382813 61.5053125 101.44765625 62.010625 100.1328125 62.53125 C98.46361142 63.18767739 96.79433676 63.84391772 95.125 64.5 C94.28324219 64.83386719 93.44148437 65.16773438 92.57421875 65.51171875 C91.76855469 65.82753906 90.96289062 66.14335937 90.1328125 66.46875 C89.38918457 66.76201172 88.64555664 67.05527344 87.87939453 67.35742188 C86 68 86 68 84 68 C83.91959473 68.59538574 83.83918945 69.19077148 83.75634766 69.80419922 C83.38791016 72.49573761 83.00662173 75.18530069 82.625 77.875 C82.49867188 78.81214844 82.37234375 79.74929687 82.2421875 80.71484375 C82.11328125 81.61074219 81.984375 82.50664062 81.8515625 83.4296875 C81.73635254 84.25710449 81.62114258 85.08452148 81.50244141 85.93701172 C81 88 81 88 79 90 C78.5059668 89.63124756 78.01193359 89.26249512 77.50292969 88.88256836 C75.26145732 87.22092313 73.00614182 85.57916417 70.75 83.9375 C69.97269531 83.35677734 69.19539062 82.77605469 68.39453125 82.17773438 C67.64042969 81.63310547 66.88632812 81.08847656 66.109375 80.52734375 C65.41811523 80.01937256 64.72685547 79.51140137 64.01464844 78.98803711 C62.02818944 77.77644567 62.02818944 77.77644567 59.74316406 78.34204102 C59.16791992 78.55916748 58.59267578 78.77629395 58 79 C59.01578125 79.65484375 60.0315625 80.3096875 61.078125 80.984375 C69.50454033 86.53147415 76.82996518 92.30969377 83.7421875 99.6640625 C85.77471021 102.02581918 85.77471021 102.02581918 88 103 C87.67 103.66 87.34 104.32 87 105 C85.96166016 104.13375 85.96166016 104.13375 84.90234375 103.25 C77.97024994 97.98928059 72.86186696 95.61658818 63.99609375 96.0703125 C57.63138912 97.1844909 52.43039096 101.06567351 47.1015625 104.51171875 C40.32166404 108.81795646 32.82537265 110.5006129 25 112 C24.92652344 112.93972656 24.92652344 112.93972656 24.8515625 113.8984375 C24.77679688 114.71570313 24.70203125 115.53296875 24.625 116.375 C24.55539063 117.18710937 24.48578125 117.99921875 24.4140625 118.8359375 C24 121 24 121 22 123 C20.9944239 121.54550599 19.99569565 120.08627557 19 118.625 C18.443125 117.81289063 17.88625 117.00078125 17.3125 116.1640625 C16 114 16 114 16 112 C11.71 112 7.42 112 3 112 C3.020625 113.876875 3.04125 115.75375 3.0625 117.6875 C3.06998398 124.49792049 2.62131252 131.22103658 2 138 C-0.1755479 134.73667815 -1.30040786 131.50215462 -2.5 127.8125 C-2.81904297 126.86020508 -2.81904297 126.86020508 -3.14453125 125.88867188 C-4.65544207 121.30495776 -5.8725342 116.69255442 -7 112 C-7.59425781 112.00636475 -8.18851562 112.01272949 -8.80078125 112.01928711 C-28.19259374 112.08148869 -28.19259374 112.08148869 -32.9375 107.75 C-34.00006919 106.53527888 -35.02602393 105.28684548 -36 104 C-41.1351815 98.8648185 -45.83422967 97.25665367 -53 97 C-59.29118244 97.92379817 -64.60032677 102.13474254 -69.77734375 105.57421875 C-72 107 -72 107 -73 107 C-73.19335938 106.40832031 -73.38671875 105.81664062 -73.5859375 105.20703125 C-73.97652344 104.02173828 -73.97652344 104.02173828 -74.375 102.8125 C-74.63023437 102.03519531 -74.88546875 101.25789063 -75.1484375 100.45703125 C-76.02206922 97.93632321 -76.99120398 95.46935722 -78 93 C-75.91794343 91.70623653 -73.83442696 90.41493446 -71.75 89.125 C-70.87021484 88.57779297 -70.87021484 88.57779297 -69.97265625 88.01953125 C-63.29329194 83.8918342 -59.86693345 82.43453969 -52 84 C-45.64534296 85.59387163 -39.35405401 87.40258231 -33.05737305 89.2097168 C-30.86943296 89.83501294 -28.67900879 90.45096031 -26.48828125 91.06640625 C-25.49433098 91.35699669 -25.49433098 91.35699669 -24.4803009 91.65345764 C-20.55310145 92.75449212 -17.07344183 93.1944223 -13 93 C-12.505 91.515 -12.505 91.515 -12 90 C-24.17963214 85.95160742 -36.48643073 82.83818556 -49 80 C-49 79.34 -49 78.68 -49 78 C-48.28980713 77.71801758 -47.57961426 77.43603516 -46.84790039 77.14550781 C-43.58535243 75.84887796 -40.32392223 74.54945866 -37.0625 73.25 C-35.94552734 72.8065625 -34.82855469 72.363125 -33.67773438 71.90625 C-27.39023581 69.39862594 -21.15617368 66.81573009 -15 64 C-16.10041919 62.31318262 -16.10041919 62.31318262 -18 61 C-22.42447075 61.23940945 -25.97439078 62.69703151 -29.953125 64.5625 C-31.11424805 65.10447021 -32.27537109 65.64644043 -33.47167969 66.20483398 C-34.73124606 66.80295682 -35.99068283 67.40135265 -37.25 68 C-38.55880305 68.61491213 -39.86772474 69.22957183 -41.17675781 69.84399414 C-48.66035162 73.37375251 -56.08140691 77.01932733 -63.46875 80.74609375 C-64.24635681 81.13793854 -65.02396362 81.52978333 -65.82513428 81.9335022 C-69.64204655 83.85962507 -73.45251106 85.79728173 -77.25488281 87.75195312 C-78.64381192 88.45846759 -80.03280597 89.16485442 -81.421875 89.87109375 C-82.06008179 90.20370712 -82.69828857 90.5363205 -83.35583496 90.87901306 C-84.87454884 91.64701392 -86.43455833 92.33238517 -88 93 C-88.66 92.67 -89.32 92.34 -90 92 C-89.0925 91.2575 -88.185 90.515 -87.25 89.75 C-85.73221268 88.16523586 -85.73221268 88.16523586 -85 86 C-85.62276893 82.69453414 -86.68429275 79.820394 -87.94921875 76.70703125 C-89 74 -89 74 -89 71 C-81.8821847 73.03807293 -74.93292719 75.40344742 -68 78 C-66.68 76.68 -65.36 75.36 -64 74 C-64.5256958 73.82766846 -65.0513916 73.65533691 -65.59301758 73.4777832 C-68.06523539 72.66125853 -70.53275507 71.83142774 -73 71 C-73.86286621 70.71431152 -74.72573242 70.42862305 -75.61474609 70.13427734 C-93.18768255 64.13399965 -93.18768255 64.13399965 -96.6953125 58.296875 C-98.25380111 54.98157518 -99.2497621 51.58787239 -100 48 C-80.73970936 47.05586811 -80.73970936 47.05586811 -72 53 C-62.52281957 59.75533337 -62.52281957 59.75533337 -51.31640625 61.4765625 C-45.47252855 60.27428075 -41.06237658 57.91406198 -36.1875 54.5625 C-28.22398577 49.28000068 -21.45455219 47.10533387 -12 46 C-11.92652344 44.15148437 -11.92652344 44.15148437 -11.8515625 42.265625 C-10.50735192 11.16619574 -10.50735192 11.16619574 -1.30859375 1.16015625 C-0.87675781 0.77730469 -0.44492188 0.39445313 0 0 Z M106 45 C106 48.3 106 51.6 106 55 C110.07964281 53.69844994 110.07964281 53.69844994 114 52 C114 49.69 114 47.38 114 45 C111.36 45 108.72 45 106 45 Z M123.375 51 C122.37210938 51.556875 121.36921875 52.11375 120.3359375 52.6875 C119.56507813 53.120625 118.79421875 53.55375 118 54 C119.37195861 57.09709467 120.93792501 59.15870525 123.375 61.5 C123.96023438 62.0671875 124.54546875 62.634375 125.1484375 63.21875 C125.75945312 63.8065625 126.37046875 64.394375 127 65 C128.32 66.32 129.64 67.64 131 69 C131 62.07 131 55.14 131 48 C127.9728902 48 125.99583932 49.53720596 123.375 51 Z M-6 56 C-5.67 57.32 -5.34 58.64 -5 60 C-4.67 59.34 -4.34 58.68 -4 58 C-4.66 57.34 -5.32 56.68 -6 56 Z M6 56 C6.99 59.96 7.98 63.92 9 68 C9.99 66.68 10.98 65.36 12 64 C10.68 61.36 9.36 58.72 8 56 C7.34 56 6.68 56 6 56 Z M109.8125 57.5 C108.554375 57.995 107.29625 58.49 106 59 C106 62.96 106 66.92 106 71 C108.64 71 111.28 71 114 71 C114.33 67.7 114.66 64.4 115 61 C115.59167969 61.721875 116.18335938 62.44375 116.79296875 63.1875 C117.58316406 64.115625 118.37335938 65.04375 119.1875 66 C119.96480469 66.928125 120.74210938 67.85625 121.54296875 68.8125 C123.80590418 71.25152614 123.80590418 71.25152614 126.80078125 71.3125 C127.88939453 71.1578125 127.88939453 71.1578125 129 71 C126.85123646 67.17768025 124.41178875 63.96326235 121.5 60.6875 C120.7265625 59.80449219 119.953125 58.92148438 119.15625 58.01171875 C115.86907337 54.94487823 113.65384204 55.98865231 109.8125 57.5 Z M0 59 C1 61 1 61 1 61 Z M1 61 C0.74969023 63.41619823 0.74969023 63.41619823 1 66 C2.485 66.99 2.485 66.99 4 68 C3.34 65.69 2.68 63.38 2 61 C1.67 61 1.34 61 1 61 Z M23 62 C22.01 63.485 22.01 63.485 21 65 C22.19496094 65.38671875 23.38992187 65.7734375 24.62109375 66.171875 C32.01649784 68.58857214 39.26243073 70.96925834 46.296875 74.3203125 C48.58044532 75.23164561 50.57596349 75.3127789 53 75 C53.33 74.34 53.66 73.68 54 73 C43.82790989 66.84705469 34.80499236 63.48919746 23 62 Z M-7 67 C-7.37851209 72.93002267 -6.10575375 77.47239641 -4 83 C-2.35 81.35 -0.7 79.7 1 78 C-0.4870121 73.40378078 -2.79812128 70.53027653 -6 67 C-6.33 67 -6.66 67 -7 67 Z M14 73 C13.34 74.32 12.68 75.64 12 77 C13.32 77.99 14.64 78.98 16 80 C15.67 77.69 15.34 75.38 15 73 C14.67 73 14.34 73 14 73 Z M6 82 C5.06934867 84.60582371 4.85082593 85.64198224 5.9375 88.25 C6.288125 88.8275 6.63875 89.405 7 90 C7 87.36 7 84.72 7 82 C6.67 82 6.34 82 6 82 Z M1 89 C0.67 90.32 0.34 91.64 0 93 C0.99 93.495 0.99 93.495 2 94 C2 92.35 2 90.7 2 89 C1.67 89 1.34 89 1 89 Z " fill="#D31420" transform="translate(231,148)"/>
<path d="M0 0 C3.63 0 7.26 0 11 0 C11.495 3.465 11.495 3.465 12 7 C12.97582031 6.48308594 13.95164062 5.96617187 14.95703125 5.43359375 C16.24191582 4.76770467 17.52708715 4.10236872 18.8125 3.4375 C19.45509766 3.09525391 20.09769531 2.75300781 20.75976562 2.40039062 C22.46926395 1.5234977 24.23321294 0.75484383 26 0 C26.99 0.33 27.98 0.66 29 1 C28.67 9.91 28.34 18.82 28 28 C30.64 28 33.28 28 36 28 C36 24.04 36 20.08 36 16 C39.3 16 42.6 16 46 16 C46 20.29 46 24.58 46 29 C47.98 29 49.96 29 52 29 C52 19.43 52 9.86 52 0 C52.66 0 53.32 0 54 0 C54 9.9 54 19.8 54 30 C50.7 30 47.4 30 44 30 C44 26.04 44 22.08 44 18 C42.02 18 40.04 18 38 18 C38 21.96 38 25.92 38 30 C34.32790856 30.04648217 30.6710339 30.04742938 27 30 C26.16726563 30.00773437 25.33453125 30.01546875 24.4765625 30.0234375 C20.97338797 29.891919 18.82528773 29.70933822 16.109375 27.375 C14.61478717 25.64295429 13.26711185 23.90315231 12 22 C11.67 24.64 11.34 27.28 11 30 C7.37 30 3.74 30 0 30 C0 26.04 0 22.08 0 18 C-1.27617187 18.5053125 -2.55234375 19.010625 -3.8671875 19.53125 C-5.53638858 20.18767739 -7.20566324 20.84391772 -8.875 21.5 C-9.71675781 21.83386719 -10.55851562 22.16773438 -11.42578125 22.51171875 C-12.23144531 22.82753906 -13.03710938 23.14335937 -13.8671875 23.46875 C-14.61081543 23.76201172 -15.35444336 24.05527344 -16.12060547 24.35742188 C-18 25 -18 25 -20 25 C-20.08040527 25.59538574 -20.16081055 26.19077148 -20.24365234 26.80419922 C-20.61208984 29.49573761 -20.99337827 32.18530069 -21.375 34.875 C-21.56449219 36.28072266 -21.56449219 36.28072266 -21.7578125 37.71484375 C-21.88671875 38.61074219 -22.015625 39.50664062 -22.1484375 40.4296875 C-22.26364746 41.25710449 -22.37885742 42.08452148 -22.49755859 42.93701172 C-23 45 -23 45 -25 47 C-25.7410498 46.44687134 -25.7410498 46.44687134 -26.49707031 45.88256836 C-28.73854268 44.22092313 -30.99385818 42.57916417 -33.25 40.9375 C-34.02730469 40.35677734 -34.80460937 39.77605469 -35.60546875 39.17773438 C-36.35957031 38.63310547 -37.11367188 38.08847656 -37.890625 37.52734375 C-38.58188477 37.01937256 -39.27314453 36.51140137 -39.98535156 35.98803711 C-41.97181056 34.77644567 -41.97181056 34.77644567 -44.25683594 35.34204102 C-45.11970215 35.66773071 -45.11970215 35.66773071 -46 36 C-44.98421875 36.65484375 -43.9684375 37.3096875 -42.921875 37.984375 C-34.49545967 43.53147415 -27.17003482 49.30969377 -20.2578125 56.6640625 C-18.22528979 59.02581918 -18.22528979 59.02581918 -16 60 C-16.495 60.99 -16.495 60.99 -17 62 C-18.03833984 61.13375 -18.03833984 61.13375 -19.09765625 60.25 C-26.0215196 54.99552662 -31.11741461 52.63930388 -39.96875 53.05078125 C-47.16297628 54.30404979 -53.38600145 59.03952639 -59.22338867 63.19555664 C-61 64 -61 64 -63.0234375 63.81054688 C-65.27981565 62.88525346 -66.50129959 61.85742149 -68.20703125 60.12109375 C-68.7906543 59.53303955 -69.37427734 58.94498535 -69.97558594 58.33911133 C-70.58176758 57.71157959 -71.18794922 57.08404785 -71.8125 56.4375 C-72.43543945 55.80287842 -73.05837891 55.16825684 -73.70019531 54.5144043 C-88.36610723 39.48203644 -88.36610723 39.48203644 -89.1796875 30.51953125 C-88.88466812 26.3828464 -86.9728463 24.75532096 -84 22 C-76.01705678 22.84484712 -69.18871763 25.35113813 -61.92797852 28.61157227 C-58.13473102 30.28081207 -55.24205779 31.44915906 -51 31 C-60.41965772 24.73733928 -68.72148306 21.45036766 -80 20 C-80 17 -80 17 -79 15 C-78.34 15 -77.68 15 -77 15 C-76.62875 14.195625 -76.62875 14.195625 -76.25 13.375 C-74.70303025 10.43575748 -72.86985631 7.74245592 -71 5 C-66.87612642 6.19990196 -63.39109767 7.83847484 -59.69775391 10.02270508 C-52.89450622 14.00051695 -47.05496419 16.90204384 -39 15 C-35.72964184 13.7070677 -32.94474232 11.90728695 -30 10 C-27.53604888 8.53576102 -25.04936372 7.11236124 -22.5625 5.6875 C-21.94656982 5.32591797 -21.33063965 4.96433594 -20.69604492 4.59179688 C-16.22693644 2 -16.22693644 2 -14 2 C-14.54981916 8.04801071 -15.90429574 13.30601106 -18 19 C-16.95199219 18.6390625 -15.90398437 18.278125 -14.82421875 17.90625 C-13.44539349 17.43726182 -12.06648275 16.9685249 -10.6875 16.5 C-9.99720703 16.26152344 -9.30691406 16.02304688 -8.59570312 15.77734375 C-5.61068511 14.76791737 -3.17341086 14 0 14 C0 9.38 0 4.76 0 0 Z M2 2 C2 5.3 2 8.6 2 12 C6.07964281 10.69844994 6.07964281 10.69844994 10 9 C10 6.69 10 4.38 10 2 C7.36 2 4.72 2 2 2 Z M19.375 8 C18.37210937 8.556875 17.36921875 9.11375 16.3359375 9.6875 C15.56507813 10.120625 14.79421875 10.55375 14 11 C15.37195861 14.09709467 16.93792501 16.15870525 19.375 18.5 C19.96023438 19.0671875 20.54546875 19.634375 21.1484375 20.21875 C21.75945312 20.8065625 22.37046875 21.394375 23 22 C24.32 23.32 25.64 24.64 27 26 C27 19.07 27 12.14 27 5 C23.9728902 5 21.99583932 6.53720596 19.375 8 Z M5.8125 14.5 C4.554375 14.995 3.29625 15.49 2 16 C2 19.96 2 23.92 2 28 C4.64 28 7.28 28 10 28 C10.33 24.7 10.66 21.4 11 18 C11.59167969 18.721875 12.18335938 19.44375 12.79296875 20.1875 C13.58316406 21.115625 14.37335938 22.04375 15.1875 23 C15.96480469 23.928125 16.74210937 24.85625 17.54296875 25.8125 C19.80590418 28.25152614 19.80590418 28.25152614 22.80078125 28.3125 C23.88939453 28.1578125 23.88939453 28.1578125 25 28 C22.85123646 24.17768025 20.41178875 20.96326235 17.5 17.6875 C16.7265625 16.80449219 15.953125 15.92148438 15.15625 15.01171875 C11.86907337 11.94487823 9.65384204 12.98865231 5.8125 14.5 Z " fill="#8F8F8F" transform="translate(335,191)"/>
<path d="M0 0 C1.32 0.33 2.64 0.66 4 1 C5.96082651 6.4467403 4.31177557 11.91409374 2 17 C0.68 17 -0.64 17 -2 17 C-2.11214844 17.68964844 -2.22429687 18.37929688 -2.33984375 19.08984375 C-3.35672341 23.57253813 -5.20815821 27.69421204 -6.94140625 31.94140625 C-8.21804607 35.090566 -8.21804607 35.090566 -8 39 C-2.81585338 36.5558614 0.19842812 34.31519518 2.5625 29 C4.73252415 24.12108664 7.04064298 21.16766598 12 19 C15.31638622 18.48978674 16.99648258 18.39788955 19.875 20.125 C21.59272195 22.98786991 21.51581456 24.71168219 21 28 C17.71485768 32.97748836 14.26969616 35.31348823 9 38 C9 39.32 9 40.64 9 42 C18.09455034 43.23315937 23.89000602 39.27723647 31 34 C32.74478726 32.39077976 34.36740246 30.72632073 36 29 C35.28972656 28.68546875 34.57945312 28.3709375 33.84765625 28.046875 C32.46900391 27.40492187 32.46900391 27.40492187 31.0625 26.75 C30.14597656 26.33234375 29.22945313 25.9146875 28.28515625 25.484375 C26 24 26 24 25.05859375 22.015625 C25 20 25 20 27 17 C31.89552183 17.5021048 35.55346689 19.10085369 39.8515625 21.35546875 C42.0119981 22.24262932 42.0119981 22.24262932 44.109375 21.1875 C44.73328125 20.795625 45.3571875 20.40375 46 20 C48.625 18.8125 48.625 18.8125 51 18 C51.66 18.33 52.32 18.66 53 19 C52.35812082 24.13503344 51.31727753 28.9943454 50 34 C48.35 34 46.7 34 45 34 C44.5978125 34.83724609 44.5978125 34.83724609 44.1875 35.69140625 C42.45386159 39.06173619 40.42966277 42.24252048 38.4375 45.46484375 C37.04403163 47.92234639 35.98399105 50.35552405 35 53 C37.00240549 52.68143549 39.00211562 52.34578768 41 52 C42.11375 51.9071875 42.11375 51.9071875 43.25 51.8125 C43.8275 51.544375 44.405 51.27625 45 51 C45.28875 50.0925 45.5775 49.185 45.875 48.25 C47.35852996 43.96424677 49.24355424 42.48067173 53 40 C56.6875 39.0625 56.6875 39.0625 60 39 C61.485 39.99 61.485 39.99 63 41 C63.5 44.3125 63.5 44.3125 63 48 C59.71778065 52.27683127 55.68207994 54.5212518 51 57 C51.495 58.98 51.495 58.98 52 61 C54.60478343 61.72355095 56.42577404 62.15660708 59.0625 61.4375 C61.25011479 59.99285165 61.25011479 59.99285165 62.875 57.0625 C65.33855387 53.51208412 66.95231501 52.4285947 71 51 C74.75 50.625 74.75 50.625 78 51 C80 54 80 54 79.9375 56.875 C78.72975913 60.9008029 77.33363446 62.44657786 74 65 C71.32372191 65.95652161 68.81104704 66.47590648 66 67 C66.56076801 69.49004504 66.56076801 69.49004504 68 72 C71.02982306 73.37189827 71.02982306 73.37189827 74 74 C74.042721 75.66611905 74.04063832 77.33382885 74 79 C73.67 79.33 73.34 79.66 73 80 C68.99229355 79.96748311 65.19521424 79.50796605 61.5 77.9375 C59.11518289 74.85711123 59.2521478 71.84525401 59 68 C58.01 68.495 58.01 68.495 57 69 C48.70434783 69.46956522 48.70434783 69.46956522 45 67 C43.68760518 64.41737566 42.79554312 61.78116699 42 59 C41.26394531 59.30035156 40.52789062 59.60070312 39.76953125 59.91015625 C38.79371094 60.29042969 37.81789063 60.67070313 36.8125 61.0625 C35.84957031 61.44535156 34.88664062 61.82820313 33.89453125 62.22265625 C30.77193511 63.0612482 29.05852062 62.95069469 26 62 C25 61 25 61 24.6875 58.0625 C24.71928425 52.97701985 26.943674 48.56247331 29 44 C28.20335937 44.39832031 28.20335937 44.39832031 27.390625 44.8046875 C25.26041667 45.86979167 23.13020833 46.93489583 21 48 C20.36578125 48.36738281 19.7315625 48.73476562 19.078125 49.11328125 C16.45598665 50.232126 14.34453806 50.300778 11.5 50.3125 C10.5615625 50.32925781 9.623125 50.34601563 8.65625 50.36328125 C5.47829265 49.92864885 4.18047878 49.35392596 2 47 C1.25 43.8125 1.25 43.8125 1 41 C0.31292969 41.48210937 -0.37414062 41.96421875 -1.08203125 42.4609375 C-1.98308594 43.09257813 -2.88414062 43.72421875 -3.8125 44.375 C-4.70582031 45.00148437 -5.59914063 45.62796875 -6.51953125 46.2734375 C-11.89180735 50.01288008 -11.89180735 50.01288008 -14.625 49.6875 C-17 49 -17 49 -18 48 C-18.52618714 42.29759979 -17.83492674 37.39009729 -16 32 C-16.50789063 32.39832031 -17.01578125 32.79664063 -17.5390625 33.20703125 C-27.73274015 41.05272697 -27.73274015 41.05272697 -32.6875 40.9375 C-35.48160643 39.80475415 -36.30342356 38.42996683 -38 36 C-38.50789063 36.63808594 -39.01578125 37.27617188 -39.5390625 37.93359375 C-45.1626669 44.68402524 -45.1626669 44.68402524 -49.3125 46.25 C-52 46 -52 46 -53.75 45 C-55.52127815 42.16595495 -56.20860221 39.22646792 -57 36 C-57.66 36.99 -58.32 37.98 -59 39 C-59.66 39 -60.32 39 -61 39 C-62.04715463 35.24354055 -62.34661224 33.62475786 -60.41796875 30.1484375 C-59.31388672 28.77558594 -59.31388672 28.77558594 -58.1875 27.375 C-55.75958216 24.3067994 -53.71719083 21.50495114 -52 18 C-50.125 16.6875 -50.125 16.6875 -48 16 C-46.68 16.33 -45.36 16.66 -44 17 C-45.32 23.6 -46.64 30.2 -48 37 C-44.24737447 35.74912482 -43.6500594 34.37837936 -41.5 31.125 C-37.34924501 24.88066245 -37.34924501 24.88066245 -35 23 C-32.3125 23.3125 -32.3125 23.3125 -30 24 C-29.505 27.96 -29.505 27.96 -29 32 C-22.08440541 30.90887285 -17.47616613 23.78585119 -13.5 18.5 C-12.675 17.345 -11.85 16.19 -11 15 C-16.94 13.515 -16.94 13.515 -23 12 C-22.67 9.69 -22.34 7.38 -22 5 C-17.44013915 4.9050029 -13.22113382 4.91080511 -8.75 5.875 C-5.1495282 6.39868117 -5.1495282 6.39868117 -3.390625 4.73046875 C-1.80752653 2.89730668 -1.80752653 2.89730668 0 0 Z M11 28 C10.01 29.485 10.01 29.485 9 31 C10.32 30.34 11.64 29.68 13 29 C12.34 28.67 11.68 28.34 11 28 Z M71 58 C70.67 58.66 70.34 59.32 70 60 C70.66 60 71.32 60 72 60 C71.67 59.34 71.34 58.68 71 58 Z " fill="#000000" transform="translate(294,31)"/>
<path d="M0 0 C0.99 0.33 1.98 0.66 3 1 C2.37183502 4.94949704 1.1354471 8.19892028 -0.5625 11.8125 C-1.01753906 12.78832031 -1.47257812 13.76414062 -1.94140625 14.76953125 C-2.46541016 15.87361328 -2.46541016 15.87361328 -3 17 C-2.67 16.34 -2.34 15.68 -2 15 C-0.125 13.3125 -0.125 13.3125 2 12 C2.99 12.33 3.98 12.66 5 13 C5.495 16.465 5.495 16.465 6 20 C9.27773504 19.24849977 9.27773504 19.24849977 11 16 C12.32 16.66 13.64 17.32 15 18 C13.72624115 22.97923913 11.9988211 25.74514561 8 29 C5.375 30 5.375 30 3 30 C1.3515625 28.5 1.3515625 28.5 0 27 C-0.36351562 27.87011719 -0.36351562 27.87011719 -0.734375 28.7578125 C-2.78393614 33.53486653 -4.96817715 37.77710389 -8 42 C-12.875 41.125 -12.875 41.125 -14 40 C-15.55995124 46.66524622 -16.11017082 52.42573423 -15.30078125 59.22265625 C-14.98488704 62.13954951 -14.85535068 65.00417597 -14.8125 67.9375 C-14.79832031 68.81277344 -14.78414063 69.68804687 -14.76953125 70.58984375 C-15.01577511 73.16497019 -15.69961355 74.78471716 -17 77 C-17.99 77 -18.98 77 -20 77 C-21.58918905 72.72340183 -22.34267863 68.92351096 -22.625 64.375 C-22.74101562 62.53808594 -22.74101562 62.53808594 -22.859375 60.6640625 C-22.98683688 57.34297241 -22.96081472 54.07102953 -22.875 50.75 C-22.79878337 45.07948283 -24.03399477 40.28949027 -26 35 C-27.45270181 37.53889629 -28.35478109 40.05759569 -29.1484375 42.85546875 C-29.45007813 43.91217773 -29.45007813 43.91217773 -29.7578125 44.99023438 C-30.17176056 46.46394187 -30.57530205 47.94060937 -30.96875 49.41992188 C-31.5859375 51.54296875 -31.5859375 51.54296875 -33 55 C-35.1640625 55.98828125 -35.1640625 55.98828125 -37 56 C-37.0928125 57.546875 -37.0928125 57.546875 -37.1875 59.125 C-38.21400436 64.02063619 -39.28124399 65.6944391 -43 69 C-46.3125 68.875 -46.3125 68.875 -49 68 C-49.33 66.68 -49.66 65.36 -50 64 C-50.66 64 -51.32 64 -52 64 C-52.03738281 64.62648438 -52.07476562 65.25296875 -52.11328125 65.8984375 C-52.17902344 66.71570313 -52.24476562 67.53296875 -52.3125 68.375 C-52.39951172 69.59316406 -52.39951172 69.59316406 -52.48828125 70.8359375 C-53 73 -53 73 -56 75 C-58.26171875 75.1953125 -58.26171875 75.1953125 -60.6875 75.125 C-61.49574219 75.10695313 -62.30398437 75.08890625 -63.13671875 75.0703125 C-63.75160156 75.04710937 -64.36648437 75.02390625 -65 75 C-65.01458252 75.59014893 -65.02916504 76.18029785 -65.04418945 76.78833008 C-65.11868844 79.46371229 -65.21533995 82.13784892 -65.3125 84.8125 C-65.33505859 85.74126953 -65.35761719 86.67003906 -65.38085938 87.62695312 C-65.41630859 88.51962891 -65.45175781 89.41230469 -65.48828125 90.33203125 C-65.51446533 91.15421143 -65.54064941 91.9763916 -65.56762695 92.82348633 C-66.08463956 95.42606532 -66.98202695 96.33910717 -69 98 C-72.17218843 94.37464179 -73.42902597 90.48849722 -75 86 C-75.33 86 -75.66 86 -76 86 C-76.33 93.92 -76.66 101.84 -77 110 C-78.98 110.495 -78.98 110.495 -81 111 C-82.32 108.03 -83.64 105.06 -85 102 C-84.94779297 103.71896484 -84.94779297 103.71896484 -84.89453125 105.47265625 C-84.86637297 107.00258939 -84.83907501 108.53253854 -84.8125 110.0625 C-84.78736328 110.81466797 -84.76222656 111.56683594 -84.73632812 112.34179688 C-84.66738431 117.65047094 -85.43130671 121.31913474 -88 126 C-90.5625 127 -90.5625 127 -93 127 C-93.66 126.67 -94.32 126.34 -95 126 C-94.97679688 127.24136719 -94.95359375 128.48273438 -94.9296875 129.76171875 C-94.91092269 131.4036398 -94.89272325 133.04556738 -94.875 134.6875 C-94.84986328 135.91243164 -94.84986328 135.91243164 -94.82421875 137.16210938 C-94.75883091 145.23750752 -94.75883091 145.23750752 -97 149 C-97.99 149.33 -98.98 149.66 -100 150 C-101.5 148.6875 -101.5 148.6875 -103 147 C-103 146.01 -103 145.02 -103 144 C-104.32 144 -105.64 144 -107 144 C-107.07468636 139.44681299 -107.12885256 134.89399002 -107.16479492 130.34033203 C-107.1797933 128.79437032 -107.20019887 127.24845052 -107.22631836 125.70263672 C-107.48676127 109.8820065 -107.48676127 109.8820065 -104 103 C-103.01 103.33 -102.02 103.66 -101 104 C-100.67 110.6 -100.34 117.2 -100 124 C-99.855625 122.39125 -99.71125 120.7825 -99.5625 119.125 C-99.125 114.25 -99.125 114.25 -98 112 C-95.06296616 112.62936439 -92.66211372 113.62420173 -90 115 C-90.01160156 113.74445313 -90.02320312 112.48890625 -90.03515625 111.1953125 C-90.1894232 87.78413479 -90.1894232 87.78413479 -87 83 C-83.125 84.75 -83.125 84.75 -82 87 C-80.66534754 82.99604261 -80.62333765 79.10709538 -80.37890625 74.91015625 C-80.01732485 72.13306197 -79.41880708 70.38382566 -78 68 C-76.68 68 -75.36 68 -74 68 C-73.01 69.98 -72.02 71.96 -71 74 C-70.76925781 73.36191406 -70.53851563 72.72382813 -70.30078125 72.06640625 C-67.63751215 65.31875607 -67.63751215 65.31875607 -64.625 63.8125 C-61.4919227 64.03629124 -58.91354271 64.84813428 -56 66 C-55.87238281 64.88367188 -55.74476562 63.76734375 -55.61328125 62.6171875 C-55.00024639 57.74511708 -54.14095639 52.94088954 -53.1875 48.125 C-52.95836914 46.84496094 -52.95836914 46.84496094 -52.72460938 45.5390625 C-52.56154297 44.724375 -52.39847656 43.9096875 -52.23046875 43.0703125 C-52.09020264 42.33570801 -51.94993652 41.60110352 -51.80541992 40.84423828 C-50.72299539 38.36571906 -49.44289501 38.01707059 -47 37 C-46.360625 36.443125 -45.72125 35.88625 -45.0625 35.3125 C-43 34 -43 34 -40.4375 33.875 C-38 35 -38 35 -36.1875 38.5625 C-35.5996875 40.2640625 -35.5996875 40.2640625 -35 42 C-32.80756652 35.75156457 -31.00713849 29.46318009 -29.35839844 23.05444336 C-28.09913613 18.19827226 -28.09913613 18.19827226 -27 16 C-25.68 16 -24.36 16 -23 16 C-22.32550034 18.39387157 -21.66023359 20.78969221 -21 23.1875 C-20.80921875 23.86103516 -20.6184375 24.53457031 -20.421875 25.22851562 C-19.4174164 28.90555156 -18.76295259 32.1850182 -19 36 C-18.34 36 -17.68 36 -17 36 C-16.690625 34.2365625 -16.690625 34.2365625 -16.375 32.4375 C-14.14727664 22.43644407 -9.74065816 8.26036405 -2.0390625 1.203125 C-1.36617188 0.80609375 -0.69328125 0.4090625 0 0 Z M-6 23 C-5 25 -5 25 -5 25 Z M-7 26 C-6 28 -6 28 -6 28 Z M-43 44 C-45.32637691 49.79622721 -46.43680971 53.86090397 -45 60 C-44.01 60 -43.02 60 -42 60 C-39.73886898 55.61905865 -39.11385044 50.85000134 -40 46 C-40.99 45.34 -41.98 44.68 -43 44 Z " fill="#000000" transform="translate(175,63)"/>
<path d="M0 0 C19.26029064 -0.94413189 19.26029064 -0.94413189 28 5 C37.47718043 11.75533337 37.47718043 11.75533337 48.68359375 13.4765625 C54.65004734 12.24906277 59.04693671 9.88495373 64 6.5 C68.24089907 3.60174365 71.98555338 1.40649113 77 0 C77.40089844 0.47308594 77.80179687 0.94617188 78.21484375 1.43359375 C78.78332031 2.09488281 79.35179687 2.75617188 79.9375 3.4375 C80.56914062 4.17484375 81.20078125 4.9121875 81.8515625 5.671875 C83.95965827 8.04295075 83.95965827 8.04295075 86.3984375 10.078125 C92.34159023 15.27117107 94.08599554 19.09748964 94.8046875 26.95703125 C94.86914062 27.96121094 94.93359375 28.96539062 95 30 C95.1932048 31.43961138 95.39801323 32.8778272 95.625 34.3125 C95.810625 35.6428125 95.810625 35.6428125 96 37 C94.515 37.495 94.515 37.495 93 38 C91.79117904 40.00016466 91.79117904 40.00016466 91 42 C87.40563696 42 84.49021288 40.93547849 81.125 39.8125 C71.2329103 36.60176636 61.13569079 34.29886219 51 32 C51 31.34 51 30.68 51 30 C51.71019287 29.71801758 52.42038574 29.43603516 53.15209961 29.14550781 C56.41464757 27.84887796 59.67607777 26.54945866 62.9375 25.25 C64.05447266 24.8065625 65.17144531 24.363125 66.32226562 23.90625 C72.60976419 21.39862594 78.84382632 18.81573009 85 16 C83.89958081 14.31318262 83.89958081 14.31318262 82 13 C77.57552925 13.23940945 74.02560922 14.69703151 70.046875 16.5625 C68.88575195 17.10447021 67.72462891 17.64644043 66.52832031 18.20483398 C65.26875394 18.80295682 64.00931717 19.40135265 62.75 20 C61.44119695 20.61491213 60.13227526 21.22957183 58.82324219 21.84399414 C51.33964838 25.37375251 43.91859309 29.01932733 36.53125 32.74609375 C35.75364319 33.13793854 34.97603638 33.52978333 34.17486572 33.9335022 C30.35795345 35.85962507 26.54748894 37.79728173 22.74511719 39.75195312 C21.35618808 40.45846759 19.96719403 41.16485442 18.578125 41.87109375 C17.62081482 42.37001381 17.62081482 42.37001381 16.64416504 42.87901306 C15.12545116 43.64701392 13.56544167 44.33238517 12 45 C11.34 44.67 10.68 44.34 10 44 C10.9075 43.2575 11.815 42.515 12.75 41.75 C14.26778732 40.16523586 14.26778732 40.16523586 15 38 C14.37723107 34.69453414 13.31570725 31.820394 12.05078125 28.70703125 C11 26 11 26 11 23 C18.1178153 25.03807293 25.06707281 27.40344742 32 30 C33.32 28.68 34.64 27.36 36 26 C35.4743042 25.82766846 34.9486084 25.65533691 34.40698242 25.4777832 C31.93476461 24.66125853 29.46724493 23.83142774 27 23 C26.13713379 22.71431152 25.27426758 22.42862305 24.38525391 22.13427734 C6.81231745 16.13399965 6.81231745 16.13399965 3.3046875 10.296875 C1.74619889 6.98157518 0.7502379 3.58787239 0 0 Z " fill="#8E8D8D" transform="translate(131,196)"/>
<path d="M0 0 C9.48895062 1.18611883 18.79617143 3.15907892 26.625 8.9375 C27.305625 9.9584375 27.305625 9.9584375 28 11 C27.67 12.65 27.34 14.3 27 16 C18.585 14.02 18.585 14.02 10 12 C12.31119792 13.00911458 14.62239583 14.01822917 16.93359375 15.02734375 C19 16 19 16 20 17 C20.25 19.375 20.25 19.375 20 22 C19 23 18 24 17 25 C17.36959745 27.07764788 17.36959745 27.07764788 18 29 C25.97259698 30.82977636 32.72081793 31.78994505 40.75 30 C46.46916433 28.74587532 52.16450604 28.58661245 58 29 C59 30 59 30 59.375 33.375 C59 37 59 37 56.9765625 38.69921875 C53.28303604 40.3133189 49.95765403 40.39882586 46 40.4375 C38.07993832 40.68416931 31.45709711 42.21169412 24 45 C25.258125 44.79375 26.51625 44.5875 27.8125 44.375 C31.4014758 43.78664331 31.75073878 43.83382585 35 46 C35 46.66 35 47.32 35 48 C35.75925781 48.04898438 36.51851563 48.09796875 37.30078125 48.1484375 C38.29464844 48.22320312 39.28851563 48.29796875 40.3125 48.375 C41.29863281 48.44460937 42.28476562 48.51421875 43.30078125 48.5859375 C46 49 46 49 49 51 C48.125 54.875 48.125 54.875 47 56 C45.07421875 55.9140625 45.07421875 55.9140625 42.6875 55.625 C41.51767578 55.48964844 41.51767578 55.48964844 40.32421875 55.3515625 C38.16607328 55.02512033 36.10576641 54.56860512 34 54 C33.35639463 58.06764754 33.35639463 58.06764754 34 62 C37.16977847 65.05237927 41.04011012 66.95553193 44.8984375 69.01171875 C48.01309862 70.81214481 48.95975345 71.89334665 50.25 75.3125 C49.90632768 80.38166678 47.57297009 82.59273287 44 86 C45.07401108 88.91517292 45.77810176 90.77810176 48 93 C47.625 95.625 47.625 95.625 47 98 C42.71663493 97.25668285 40.93507025 95.3960899 38.2734375 92.0859375 C36.07942582 88.49206561 35.66895093 85.15880389 36 81 C36.75626843 77.88511941 37.76346634 74.95510586 39 72 C38.319375 71.773125 37.63875 71.54625 36.9375 71.3125 C32.86644958 69.49352003 28.05471016 67.10942032 26 63 C25.92966231 61.12620395 25.9156978 59.24998898 25.9375 57.375 C25.94652344 56.37210938 25.95554687 55.36921875 25.96484375 54.3359375 C25.97644531 53.56507813 25.98804688 52.79421875 26 52 C25.30132812 51.87882812 24.60265625 51.75765625 23.8828125 51.6328125 C22.97273438 51.46523437 22.06265625 51.29765625 21.125 51.125 C20.22007812 50.96257812 19.31515625 50.80015625 18.3828125 50.6328125 C16 50 16 50 14 48 C13.4375 45.1875 13.4375 45.1875 14 42 C15.71214913 40.39459333 17.46951034 39.20619306 19.46875 37.98046875 C19.9740625 37.65691406 20.479375 37.33335937 21 37 C21 36.67 21 36.34 21 36 C20.38511719 35.82984375 19.77023437 35.6596875 19.13671875 35.484375 C18.32847656 35.24203125 17.52023437 34.9996875 16.6875 34.75 C15.88699219 34.51796875 15.08648437 34.2859375 14.26171875 34.046875 C11.48755581 32.76280649 10.46832558 31.67310554 9 29 C8.70703125 26.421875 8.70703125 26.421875 8.8125 23.75 C8.83957031 22.85796875 8.86664063 21.9659375 8.89453125 21.046875 C8.92933594 20.37140625 8.96414063 19.6959375 9 19 C8.32453125 18.81824219 7.6490625 18.63648438 6.953125 18.44921875 C6.06109375 18.19785156 5.1690625 17.94648438 4.25 17.6875 C3.36828125 17.44386719 2.4865625 17.20023438 1.578125 16.94921875 C-1.12412236 15.9543004 -2.92585399 14.99732578 -5 13 C-5.25 9.3125 -5.25 9.3125 -5 6 C-4.360625 5.7525 -3.72125 5.505 -3.0625 5.25 C-0.81258459 4.18437567 -0.81258459 4.18437567 -0.25 1.875 C-0.1675 1.25625 -0.085 0.6375 0 0 Z " fill="#000000" transform="translate(411,152)"/>
<path d="M0 0 C-0.49294996 5.42244953 -1.54238128 10.02443513 -3.4765625 15.1171875 C-4.24548066 17.06774289 -4.24548066 17.06774289 -3 19 C-49.96103896 39 -49.96103896 39 -72 39 C-74.76203505 34.85694742 -75.35348455 30.95646816 -75 26 C-73.62236289 23.40289893 -72.19265328 22.03221523 -70 20 C-62.01705678 20.84484712 -55.18871763 23.35113813 -47.92797852 26.61157227 C-44.13473102 28.28081207 -41.24205779 29.44915906 -37 29 C-46.41965772 22.73733928 -54.72148306 19.45036766 -66 18 C-66 15 -66 15 -65 13 C-64.34 13 -63.68 13 -63 13 C-62.62875 12.195625 -62.62875 12.195625 -62.25 11.375 C-60.70303025 8.43575748 -58.86985631 5.74245592 -57 3 C-52.87612642 4.19990196 -49.39109767 5.83847484 -45.69775391 8.02270508 C-38.89450622 12.00051695 -33.05496419 14.90204384 -25 13 C-21.72964184 11.7070677 -18.94474232 9.90728695 -16 8 C-13.53604888 6.53576102 -11.04936372 5.11236124 -8.5625 3.6875 C-7.94656982 3.32591797 -7.33063965 2.96433594 -6.69604492 2.59179688 C-2.22693644 0 -2.22693644 0 0 0 Z " fill="#8F8E8D" transform="translate(321,193)"/>
<path d="M0 0 C3.63 0 7.26 0 11 0 C11.32613281 1.0621875 11.65226563 2.124375 11.98828125 3.21875 C12.4295624 4.64587202 12.87097576 6.07295317 13.3125 7.5 C13.52583984 8.19609375 13.73917969 8.8921875 13.95898438 9.609375 C14.17490234 10.30546875 14.39082031 11.0015625 14.61328125 11.71875 C14.80704346 12.34716797 15.00080566 12.97558594 15.20043945 13.62304688 C16.37485503 17.11437819 17.70661421 20.55097123 19 24 C21.31 16.08 23.62 8.16 26 0 C34.91 0 43.82 0 53 0 C53 0.66 53 1.32 53 2 C52.51104248 2.37680908 52.02208496 2.75361816 51.51831055 3.1418457 C49.15634547 6.03248989 49.63123994 9.16591122 49.70703125 12.73046875 C49.71339851 13.85609978 49.71339851 13.85609978 49.71989441 15.00447083 C49.7366755 17.39918026 49.7743251 19.79304534 49.8125 22.1875 C49.82754765 23.8118368 49.84123591 25.4361868 49.85351562 27.06054688 C49.88657695 31.04068948 49.93835406 35.02020163 50 39 C50.99 39 51.98 39 53 39 C53 39.99 53 40.98 53 42 C43.1 42 33.2 42 23 42 C23 41.01 23 40.02 23 39 C23.99 39 24.98 39 26 39 C26 30.42 26 21.84 26 13 C25.45730469 15.00964844 24.91460937 17.01929688 24.35546875 19.08984375 C23.82016086 21.02946585 23.28476476 22.96906484 22.74682617 24.90795898 C22.37477769 26.25795421 22.00724012 27.60920096 21.64428711 28.96166992 C21.12234973 30.90344788 20.58290882 32.8404945 20.04296875 34.77734375 C19.72352295 35.94515381 19.40407715 37.11296387 19.07495117 38.31616211 C18.72021729 39.20182861 18.3654834 40.08749512 18 41 C16.515 41.495 16.515 41.495 15 42 C12.36 32.76 9.72 23.52 7 14 C7 22.25 7 30.5 7 39 C7.99 39 8.98 39 10 39 C10 39.99 10 40.98 10 42 C6.7 42 3.4 42 0 42 C0 41.01 0 40.02 0 39 C0.99 39 1.98 39 3 39 C2.67 27.12 2.34 15.24 2 3 C1.34 2.67 0.68 2.34 0 2 C0 1.34 0 0.68 0 0 Z M36 2 C33.50257597 4.49742403 33.76323536 5.97717611 33.74775696 9.38478088 C33.75494247 10.11502975 33.76212799 10.84527863 33.76953125 11.59765625 C33.76998947 12.34712021 33.77044769 13.09658417 33.7709198 13.86875916 C33.77394189 15.45329369 33.78182694 17.03782526 33.79418945 18.62231445 C33.81245317 21.05625858 33.81469911 23.48982262 33.81445312 25.92382812 C33.81936799 27.46094081 33.82519618 28.9980509 33.83203125 30.53515625 C33.83314407 31.26742935 33.8342569 31.99970245 33.83540344 32.75416565 C33.56515692 36.16523002 33.56515692 36.16523002 35 39 C38 39.16666667 38 39.16666667 41 39 C42.96741628 37.03258372 42.16388207 33.22432269 42.16796875 30.53515625 C42.17296135 29.4123954 42.17296135 29.4123954 42.17805481 28.26695251 C42.18312693 26.68066016 42.18546305 25.0943571 42.18530273 23.50805664 C42.18748773 21.07615631 42.20563581 18.64471051 42.22460938 16.21289062 C42.22754349 14.67448072 42.22952817 13.13606866 42.23046875 11.59765625 C42.24124702 10.50228294 42.24124702 10.50228294 42.25224304 9.38478088 C42.36709434 5.23730007 42.36709434 5.23730007 40 2 C38.68 2 37.36 2 36 2 Z " fill="#000000" transform="translate(226,322)"/>
<path d="M0 0 C2.97 0 5.94 0 9 0 C9 0.66 9 1.32 9 2 C8.34 2 7.68 2 7 2 C7 4.31 7 6.62 7 9 C8.65 9 10.3 9 12 9 C11.34 6.03 10.68 3.06 10 0 C15.61 0 21.22 0 27 0 C27 0.66 27 1.32 27 2 C26.34 2 25.68 2 25 2 C25.33 7.94 25.66 13.88 26 20 C27.32 20 28.64 20 30 20 C30.33 14.06 30.66 8.12 31 2 C30.34 2 29.68 2 29 2 C29 1.34 29 0.68 29 0 C33.29 0 37.58 0 42 0 C45 7.5 45 7.5 45 12 C45.66 12 46.32 12 47 12 C47.185625 10.700625 47.185625 10.700625 47.375 9.375 C47.98058121 6.10486147 48.88306035 3.12743101 50 0 C52.31 0 54.62 0 57 0 C57 0.66 57 1.32 57 2 C56.34 2 55.68 2 55 2 C55 7.94 55 13.88 55 20 C55.99 19.67 56.98 19.34 58 19 C58.9735593 17.09572062 58.9735593 17.09572062 59.60546875 14.74609375 C59.86650391 13.89208984 60.12753906 13.03808594 60.39648438 12.15820312 C60.65751953 11.26037109 60.91855469 10.36253906 61.1875 9.4375 C61.59645508 8.08495117 61.59645508 8.08495117 62.01367188 6.70507812 C62.68680791 4.47310073 63.348329 2.23832072 64 0 C64.99 0.33 65.98 0.66 67 1 C68.04844427 3.64030754 68.90522453 6.15712449 69.6875 8.875 C70.02491211 9.97521484 70.02491211 9.97521484 70.36914062 11.09765625 C71.28448669 14.1525194 72 16.79511041 72 20 C73.32 20 74.64 20 76 20 C75.85919445 17.22882696 75.71256882 14.45817359 75.5625 11.6875 C75.52318359 10.90181641 75.48386719 10.11613281 75.44335938 9.30664062 C75.40146484 8.54931641 75.35957031 7.79199219 75.31640625 7.01171875 C75.27974854 6.31522217 75.24309082 5.61872559 75.20532227 4.90112305 C75.04418847 2.7783428 75.04418847 2.7783428 74 0 C76.625 -0.625 76.625 -0.625 80 0 C82.42504235 3.11323005 84.22831653 6.48176333 86 10 C86.11320856 4.91696314 86.11320856 4.91696314 85 0 C86.98 0 88.96 0 91 0 C91 0.66 91 1.32 91 2 C90.34 2 89.68 2 89 2 C89 8.93 89 15.86 89 23 C84.90810238 21.63603413 84.38452673 19.65151017 82.3125 15.9375 C81.37857422 14.28041016 81.37857422 14.28041016 80.42578125 12.58984375 C79.95527344 11.73519531 79.48476563 10.88054687 79 10 C78.67 13.3 78.34 16.6 78 20 C78.66 20 79.32 20 80 20 C80 20.66 80 21.32 80 22 C75.05 22 70.1 22 65 22 C65 21.34 65 20.68 65 20 C65.66 20 66.32 20 67 20 C66.505 18.515 66.505 18.515 66 17 C64.68 17 63.36 17 62 17 C61.505 18.485 61.505 18.485 61 20 C61.66 20 62.32 20 63 20 C63 20.66 63 21.32 63 22 C58.05 22 53.1 22 48 22 C48 21.34 48 20.68 48 20 C48.66 20 49.32 20 50 20 C49.505 16.04 49.505 16.04 49 12 C48.01 15.3 47.02 18.6 46 22 C45.01 21.67 44.02 21.34 43 21 C42.05078125 18.71484375 42.05078125 18.71484375 41.3125 15.9375 C41.06113281 15.01839844 40.80976563 14.09929687 40.55078125 13.15234375 C40.36902344 12.44207031 40.18726563 11.73179687 40 11 C39.67 13.97 39.34 16.94 39 20 C39.66 20 40.32 20 41 20 C41 20.66 41 21.32 41 22 C39.02 22 37.04 22 35 22 C35 21.34 35 20.68 35 20 C35.66 20 36.32 20 37 20 C37 14.06 37 8.12 37 2 C36.01 2.33 35.02 2.66 34 3 C33.96132812 4.66289062 33.96132812 4.66289062 33.921875 6.359375 C33.86558344 7.82295547 33.80823633 9.28649562 33.75 10.75 C33.73582031 11.47960937 33.72164062 12.20921875 33.70703125 12.9609375 C33.54648584 16.4929365 33.26615836 18.6391453 31.14453125 21.515625 C29 23 29 23 25.9375 23 C22.45186214 21.81339988 21.73571626 21.20597003 20 18 C19.78659617 15.16599714 19.71535009 12.56983831 19.8125 9.75 C19.83280273 8.63238281 19.83280273 8.63238281 19.85351562 7.4921875 C19.88872796 5.66114584 19.94253149 3.83047831 20 2 C19.01 2.33 18.02 2.66 17 3 C16.97302863 5.60423592 16.95317511 8.20819244 16.9375 10.8125 C16.92912109 11.55048828 16.92074219 12.28847656 16.91210938 13.04882812 C16.89740172 16.29922068 16.96468298 18.89404895 18 22 C15.36 22 12.72 22 10 22 C10.66 18.7 11.32 15.4 12 12 C10.35 12 8.7 12 7 12 C7 14.64 7 17.28 7 20 C7.66 20 8.32 20 9 20 C9 20.66 9 21.32 9 22 C6.03 22 3.06 22 0 22 C0 21.34 0 20.68 0 20 C0.66 20 1.32 20 2 20 C2 14.06 2 8.12 2 2 C1.34 2 0.68 2 0 2 C0 1.34 0 0.68 0 0 Z M63 10 C62.67 11.32 62.34 12.64 62 14 C62.99 14 63.98 14 65 14 C64.67 12.68 64.34 11.36 64 10 C63.67 10 63.34 10 63 10 Z " fill="#000000" transform="translate(215,288)"/>
<path d="M0 0 C3.41812842 2.55976433 5.64284474 4.92853423 7 9 C7.12607249 11.70029677 7.18978333 14.36189717 7.1875 17.0625 C7.18814453 17.84802246 7.18878906 18.63354492 7.18945312 19.44287109 C7.11438882 28.03602802 6.12658206 36.49028194 5 45 C5.56517334 45.24016846 6.13034668 45.48033691 6.71264648 45.7277832 C7.44555908 46.06124756 8.17847168 46.39471191 8.93359375 46.73828125 C9.66376709 47.06094971 10.39394043 47.38361816 11.14624023 47.71606445 C13 49 13 49 13.78930664 50.99682617 C14.0625 53.1875 14.0625 53.1875 14 57 C13.67 57.33 13.34 57.66 13 58 C6.65742251 57.53017945 6.65742251 57.53017945 4.0625 55.4375 C3.711875 54.963125 3.36125 54.48875 3 54 C1.68 54.66 0.36 55.32 -1 56 C-1.06058594 55.09765625 -1.12117188 54.1953125 -1.18359375 53.265625 C-2.21315318 49.14738728 -3.65628273 48.18369673 -7.0625 45.75 C-8.73675712 44.53833566 -10.390744 43.29675075 -12 42 C-12 41.34 -12 40.68 -12 40 C-12.556875 39.79375 -13.11375 39.5875 -13.6875 39.375 C-16 38 -16 38 -18.25 34.8125 C-20.58658615 31.79583606 -20.58658615 31.79583606 -23.0625 31.8671875 C-25.05610672 32.15910848 -27.03082469 32.57334535 -29 33 C-30.82295175 31.17704825 -30.46673608 28.65817558 -30.625 26.1875 C-30.56930803 17.74088451 -26.70043207 12.91320092 -21 7 C-14.80731763 1.25363708 -8.61694289 -2.46198368 0 0 Z M-20 19 C-20.33 19.99 -20.66 20.98 -21 22 C-19.02 21.67 -17.04 21.34 -15 21 C-14.55269531 21.73605469 -14.10539062 22.47210938 -13.64453125 23.23046875 C-9.40749035 30.06935993 -5.62085515 35.34087971 1 40 C1.90102685 34.59383892 2.16583303 29.22580436 2.25 23.75 C2.27126953 23.05261719 2.29253906 22.35523438 2.31445312 21.63671875 C2.33558049 18.50383242 2.18951739 16.34058198 0.65234375 13.578125 C-5.85684317 7.36131291 -14.80477631 14.11963835 -20 19 Z " fill="#000000" transform="translate(53,193)"/>
<path d="M0 0 C3.6875899 0.59903886 3.94292891 0.92340459 6.375 4.1875 C6.87386719 4.8990625 7.37273437 5.610625 7.88671875 6.34375 C11.25196935 10.57363985 15.16700886 14.24779692 19.06201172 17.98706055 C22.27941248 21.11467541 24.91087787 23.96609509 27 28 C24.03 28.66 21.06 29.32 18 30 C17.814375 32.165625 17.814375 32.165625 17.625 34.375 C17.25 38.75 17.25 38.75 15 41 C13.9944239 39.54550599 12.99569565 38.08627557 12 36.625 C11.443125 35.81289063 10.88625 35.00078125 10.3125 34.1640625 C9 32 9 32 9 30 C4.71 30 0.42 30 -4 30 C-3.979375 31.876875 -3.95875 33.75375 -3.9375 35.6875 C-3.93001602 42.49792049 -4.37868748 49.22103658 -5 56 C-7.17525206 52.73712191 -8.30252331 49.5024989 -9.5 45.8125 C-9.72067139 45.14210693 -9.94134277 44.47171387 -10.16870117 43.78100586 C-11.65150267 39.2221506 -12.95035773 34.67567921 -14 30 C-17.3 29.67 -20.6 29.34 -24 29 C-23.25 26.625 -23.25 26.625 -22 24 C-20.67479497 23.31731862 -19.34187818 22.6492959 -18 22 C-17.87625 21.41863281 -17.7525 20.83726562 -17.625 20.23828125 C-16.77922881 17.20936317 -15.16038261 15.57170734 -13.0625 13.25 C-12.35222656 12.45078125 -11.64195312 11.6515625 -10.91015625 10.828125 C-9 9 -9 9 -7 9 C-6.67 9.66 -6.34 10.32 -6 11 C-5.896875 9.88625 -5.79375 8.7725 -5.6875 7.625 C-5.460625 6.42875 -5.23375 5.2325 -5 4 C-4.01 3.34 -3.02 2.68 -2 2 C-1.67 2.66 -1.34 3.32 -1 4 C-0.67 2.68 -0.34 1.36 0 0 Z " fill="#918B8B" transform="translate(238,230)"/>
<path d="M0 0 C2.9375 0.625 2.9375 0.625 4.9375 2.3125 C5.9375 4.625 5.9375 4.625 5.5625 6.9375 C3.68035335 10.050281 1.44686298 12.214752 -1.17578125 14.7109375 C-4.16527152 17.74375372 -6.60379127 21.15759026 -9.0625 24.625 C-8.36382812 25.22828125 -7.66515625 25.8315625 -6.9453125 26.453125 C-6.03523438 27.25234375 -5.12515625 28.0515625 -4.1875 28.875 C-2.83011719 30.05835938 -2.83011719 30.05835938 -1.4453125 31.265625 C0.9375 33.625 0.9375 33.625 2.0078125 35.859375 C2.80681747 37.78139794 2.80681747 37.78139794 4.8046875 38.60546875 C7.0776369 38.83854496 7.0776369 38.83854496 9.0078125 37.11328125 C9.68585938 36.39527344 10.36390625 35.67726562 11.0625 34.9375 C11.74570312 34.23238281 12.42890625 33.52726562 13.1328125 32.80078125 C14.79316403 30.79901545 15.89913104 28.99612087 16.9375 26.625 C23.5625 26.375 23.5625 26.375 26.9375 28.625 C26.8125 30.8125 26.8125 30.8125 25.9375 33.625 C23.97822937 35.3393618 21.97869788 37.00905168 19.9375 38.625 C19.6075 39.615 19.2775 40.605 18.9375 41.625 C16.8203125 43.3515625 16.8203125 43.3515625 14.0625 45.25 C10.02233495 48.10218906 6.12520247 51.03717381 2.3125 54.1875 C1.41015625 54.92871094 0.5078125 55.66992188 -0.421875 56.43359375 C-2.15255798 57.8698558 -3.87184797 59.31998358 -5.578125 60.78515625 C-6.35671875 61.43355469 -7.1353125 62.08195312 -7.9375 62.75 C-8.61554688 63.33007812 -9.29359375 63.91015625 -9.9921875 64.5078125 C-12.0625 65.625 -12.0625 65.625 -14.8203125 65.3046875 C-15.56023437 65.08039063 -16.30015625 64.85609375 -17.0625 64.625 C-16.4025 62.975 -15.7425 61.325 -15.0625 59.625 C-14.4025 59.625 -13.7425 59.625 -13.0625 59.625 C-12.85882813 59.09390625 -12.65515625 58.5628125 -12.4453125 58.015625 C-10.46744391 54.59625896 -7.75923101 52.11162079 -4.9375 49.375 C-4.09251953 48.54355469 -4.09251953 48.54355469 -3.23046875 47.6953125 C-1.84563972 46.33395515 -0.45466796 44.97885141 0.9375 43.625 C-2.89244427 38.63064044 -6.33902452 35.32475258 -12.0625 32.625 C-13.0525 32.625 -14.0425 32.625 -15.0625 32.625 C-17.5375 37.08 -17.5375 37.08 -20.0625 41.625 C-19.0725 41.625 -18.0825 41.625 -17.0625 41.625 C-17.3925 42.615 -17.7225 43.605 -18.0625 44.625 C-21.625 45.8125 -21.625 45.8125 -25.0625 46.625 C-26.0525 45.635 -27.0425 44.645 -28.0625 43.625 C-26.68950501 39.33073907 -25.31530967 35.06825569 -23.5 30.9375 C-21.99970647 27.71379318 -21.99970647 27.71379318 -21.25 24.5 C-19.94654848 21.34427526 -18.45219989 20.18882584 -15.77734375 18.16796875 C-11.69603522 14.49572075 -8.63407759 9.40127121 -5.94140625 4.64453125 C-4.19885932 1.60049698 -3.5262886 0.71965073 0 0 Z " fill="#000000" transform="translate(410.0625,90.375)"/>
<path d="M0 0 C0.89074219 0.68835938 1.78148437 1.37671875 2.69921875 2.0859375 C3.6634375 2.82328125 4.62765625 3.560625 5.62109375 4.3203125 C6.53375 5.02671875 7.44640625 5.733125 8.38671875 6.4609375 C9.7406703 7.41957473 11.09481248 8.37794282 12.44921875 9.3359375 C16.808463 12.594089 20.51214392 16.47937317 24.28515625 20.38671875 C26.21178637 22.50264172 26.21178637 22.50264172 28.38671875 23.4609375 C28.05671875 24.1209375 27.72671875 24.7809375 27.38671875 25.4609375 C26.34837891 24.5946875 26.34837891 24.5946875 25.2890625 23.7109375 C18.36519915 18.45646412 13.26930414 16.10024138 4.41796875 16.51171875 C-2.77625753 17.76498729 -8.9992827 22.50046389 -14.83666992 26.65649414 C-16.61328125 27.4609375 -16.61328125 27.4609375 -18.63232422 27.27368164 C-20.90611868 26.34079259 -22.16040152 25.28676162 -23.890625 23.546875 C-24.48681641 22.95003906 -25.08300781 22.35320312 -25.69726562 21.73828125 C-26.30892578 21.11050781 -26.92058594 20.48273438 -27.55078125 19.8359375 C-28.15857422 19.23136719 -28.76636719 18.62679687 -29.39257812 18.00390625 C-33.27166488 14.07878934 -36.51853815 10.02964742 -39.61328125 5.4609375 C-38.56011719 5.29078125 -37.50695312 5.120625 -36.421875 4.9453125 C-27.70899285 3.49485953 -19.26700182 1.7027971 -10.78515625 -0.76953125 C-6.38321586 -1.83748969 -3.98904898 -2.34930538 0 0 Z " fill="#908D8D" transform="translate(290.61328125,227.5390625)"/>
<path d="M0 0 C1 2 1 2 0.4765625 3.953125 C0.19554687 4.71109375 -0.08546875 5.4690625 -0.375 6.25 C-2.66348649 12.45244003 -3.20305977 18.6223648 -3.5625 25.1875 C-3.6049585 25.93056396 -3.64741699 26.67362793 -3.69116211 27.43920898 C-4.00613786 33.29572987 -4.11400464 39.13509439 -4 45 C-1.9237343 46.03513247 0.16131479 47.05266211 2.25 48.0625 C3.41015625 48.63097656 4.5703125 49.19945312 5.765625 49.78515625 C8.76000763 51.13031765 8.76000763 51.13031765 11.15234375 50.984375 C13.8495236 49.54739969 15.37576509 47.53703809 17.3125 45.1875 C20.95528048 40.98567895 23.93731515 38.27304218 29 36 C29.66 36 30.32 36 31 36 C31.24492187 35.47921875 31.48984375 34.9584375 31.7421875 34.421875 C33.38061187 31.26714486 35.24881638 28.26647897 37.125 25.25 C37.49753906 24.64800781 37.87007813 24.04601562 38.25390625 23.42578125 C39.16774724 21.94957657 40.08366598 20.47465846 41 19 C42.03894239 21.65575806 42.12545245 22.70320977 40.99609375 25.375 C40.48175781 26.24125 39.96742188 27.1075 39.4375 28 C36.51461797 33.05726565 33.91158353 38.19888848 31.39453125 43.46875 C30.11622001 45.78904603 29.0608696 47.35574825 27 49 C26.34 49 25.68 49 25 49 C24.7525 49.7425 24.505 50.485 24.25 51.25 C22.89534961 54.23023087 21.4898459 55.89919252 19 58 C18.34 58 17.68 58 17 58 C16.7525 58.804375 16.505 59.60875 16.25 60.4375 C15 63 15 63 12.875 63.8125 C12.25625 63.874375 11.6375 63.93625 11 64 C10.01 62.02 9.02 60.04 8 58 C8 60.62834278 8.19789762 63.08186701 8.5 65.6875 C8.5928125 66.49574219 8.685625 67.30398437 8.78125 68.13671875 C8.8534375 68.75160156 8.925625 69.36648437 9 70 C7.515 70.99 7.515 70.99 6 72 C4.68 69.03 3.36 66.06 2 63 C1.34 63.99 0.68 64.98 0 66 C-0.38671875 65.37351562 -0.7734375 64.74703125 -1.171875 64.1015625 C-1.69265625 63.28429687 -2.2134375 62.46703125 -2.75 61.625 C-3.51570312 60.40683594 -3.51570312 60.40683594 -4.296875 59.1640625 C-6.12002199 56.84749499 -7.37383986 56.21207391 -10 55 C-11.921875 53.2734375 -11.921875 53.2734375 -13.75 51.375 C-14.36359375 50.74335938 -14.9771875 50.11171875 -15.609375 49.4609375 C-16.06828125 48.97882813 -16.5271875 48.49671875 -17 48 C-14 46 -14 46 -12 46 C-11.95101562 44.76765625 -11.90203125 43.5353125 -11.8515625 42.265625 C-10.50735192 11.16619574 -10.50735192 11.16619574 -1.30859375 1.16015625 C-0.87675781 0.77730469 -0.44492188 0.39445313 0 0 Z M0 59 C1 61 1 61 1 61 Z " fill="#918B8C" transform="translate(231,148)"/>
<path d="M0 0 C3.63 0 7.26 0 11 0 C13.31 7.92 15.62 15.84 18 24 C20.00756745 18.6464868 21.74833525 13.56365234 23.125 8.0625 C24.86970475 1.13029525 24.86970475 1.13029525 26 0 C27.85287502 -0.07226502 29.70833878 -0.0838122 31.5625 -0.0625 C32.57441406 -0.05347656 33.58632812 -0.04445313 34.62890625 -0.03515625 C35.41136719 -0.02355469 36.19382813 -0.01195312 37 0 C37 0.66 37 1.32 37 2 C36.34 2.33 35.68 2.66 35 3 C35 14.55 35 26.1 35 38 C35.99 38.495 35.99 38.495 37 39 C37 39.99 37 40.98 37 42 C32.38 42 27.76 42 23 42 C23 41.01 23 40.02 23 39 C23.99 38.505 23.99 38.505 25 38 C25 30.41 25 22.82 25 15 C24.50628906 16.78148437 24.01257813 18.56296875 23.50390625 20.3984375 C22.85687804 22.72398816 22.20973678 25.04950738 21.5625 27.375 C21.23701172 28.550625 20.91152344 29.72625 20.57617188 30.9375 C20.26357422 32.05898438 19.95097656 33.18046875 19.62890625 34.3359375 C19.34088135 35.37282715 19.05285645 36.4097168 18.75610352 37.47802734 C18 40 18 40 17 42 C16.34 42 15.68 42 15 42 C14.04003656 38.97968228 13.08232942 35.95865354 12.125 32.9375 C11.85558594 32.08994141 11.58617187 31.24238281 11.30859375 30.36914062 C11.04433594 29.53447266 10.78007812 28.69980469 10.5078125 27.83984375 C10.26691895 27.08050537 10.02602539 26.32116699 9.77783203 25.53881836 C8.80772122 22.37240834 7.90979025 19.18426586 7 16 C7 23.26 7 30.52 7 38 C7.99 38.33 8.98 38.66 10 39 C10 39.99 10 40.98 10 42 C6.37 42 2.74 42 -1 42 C-1 41.01 -1 40.02 -1 39 C0.485 38.505 0.485 38.505 2 38 C2.33 26.45 2.66 14.9 3 3 C2.01 2.67 1.02 2.34 0 2 C0 1.34 0 0.68 0 0 Z " fill="#000000" transform="translate(188,322)"/>
<path d="M0 0 C2.24144728 0.62683316 4.48342889 1.25168571 6.72589111 1.87487793 C8.11229416 2.26079416 9.49803789 2.64908968 10.88299561 3.04016113 C14.31952016 4.00310292 17.73889449 4.85733479 21.25 5.5 C18.93628822 9.6431583 16.12866725 13.21270593 13.0625 16.8125 C12.36737305 17.63717773 12.36737305 17.63717773 11.65820312 18.47851562 C10.52528137 19.82167028 9.3880774 21.16121101 8.25 22.5 C3.77838693 20.02353373 0.75254616 17.06424856 -2.6875 13.33984375 C-6.86179299 9.61618466 -12.22702074 8.44847967 -17.75 8.5 C-24.10593782 10.16713123 -29.07867073 13.45426129 -34.52734375 17.07421875 C-36.75 18.5 -36.75 18.5 -37.75 18.5 C-38.04003906 17.61248047 -38.04003906 17.61248047 -38.3359375 16.70703125 C-38.59632813 15.91683594 -38.85671875 15.12664062 -39.125 14.3125 C-39.38023437 13.53519531 -39.63546875 12.75789063 -39.8984375 11.95703125 C-40.77206922 9.43632321 -41.74120398 6.96935722 -42.75 4.5 C-40.66794343 3.20623653 -38.58442696 1.91493446 -36.5 0.625 C-35.91347656 0.26019531 -35.32695312 -0.10460937 -34.72265625 -0.48046875 C-22.67113955 -7.92803525 -12.88424613 -3.63760829 0 0 Z " fill="#8F8D8D" transform="translate(195.75,236.5)"/>
<path d="M0 0 C2.97 0 5.94 0 9 0 C9 0.66 9 1.32 9 2 C8.34 2 7.68 2 7 2 C7.33 3.65 7.66 5.3 8 7 C9.62831762 5.19038423 9.62831762 5.19038423 11 3 C10.67 2.01 10.34 1.02 10 0 C12.31 0 14.62 0 17 0 C17 0.66 17 1.32 17 2 C16.175 2.804375 15.35 3.60875 14.5 4.4375 C11.65083807 6.76122416 11.65083807 6.76122416 12 10 C12.97728871 12.2884865 12.97728871 12.2884865 14.3125 14.625 C14.74175781 15.42164063 15.17101562 16.21828125 15.61328125 17.0390625 C16.92456336 19.30373657 16.92456336 19.30373657 20 20 C20 14.06 20 8.12 20 2 C19.34 2 18.68 2 18 2 C18 1.34 18 0.68 18 0 C22.62 0 27.24 0 32 0 C32 2.31 32 4.62 32 7 C31.34 6.67 30.68 6.34 30 6 C30 5.01 30 4.02 30 3 C27.525 2.505 27.525 2.505 25 2 C25 4.31 25 6.62 25 9 C25.66 9 26.32 9 27 9 C27 7.68 27 6.36 27 5 C27.66 5 28.32 5 29 5 C29 8.96 29 12.92 29 17 C27 16 27 16 26 13 C25.67 15.31 25.34 17.62 25 20 C28.37503669 18.8141763 30.64722731 17.72426311 33 15 C33 16.65 33 18.3 33 20 C33.66 19.67 34.32 19.34 35 19 C35.05411124 16.58303128 35.09372278 14.16728213 35.125 11.75 C35.14175781 11.06808594 35.15851563 10.38617188 35.17578125 9.68359375 C35.21213482 5.9391765 35.07944349 3.17647273 33 0 C36.125 -0.625 36.125 -0.625 40 0 C42.49515761 3.08511895 44.26536376 6.44177181 46 10 C46 7.36 46 4.72 46 2 C45.34 2 44.68 2 44 2 C44 1.34 44 0.68 44 0 C48.95 0 53.9 0 59 0 C58.67 0.99 58.34 1.98 58 3 C58.87914688 5.6569191 58.87914688 5.6569191 60 8 C60.99 6.02 61.98 4.04 63 2 C62.34 2 61.68 2 61 2 C61 1.34 61 0.68 61 0 C62.98 0 64.96 0 67 0 C65.88904011 2.82012894 64.73157207 5.56906722 63.4375 8.3125 C61.85356631 12.37563426 61.37897284 15.67970959 61 20 C61.66 20 62.32 20 63 20 C63 20.66 63 21.32 63 22 C60.03 22 57.06 22 54 22 C54 21.34 54 20.68 54 20 C54.66 20 55.32 20 56 20 C55.04719844 14.77986377 54.0803813 9.90375592 52 5 C52 4.01 52 3.02 52 2 C51.01 2.33 50.02 2.66 49 3 C48.67 9.6 48.34 16.2 48 23 C43.56486311 18.56486311 41.12851965 14.40380667 38 9 C38 12.63 38 16.26 38 20 C38.66 20 39.32 20 40 20 C40 20.66 40 21.32 40 22 C26.8 22 13.6 22 0 22 C0 21.34 0 20.68 0 20 C0.66 20 1.32 20 2 20 C2 14.06 2 8.12 2 2 C1.34 2 0.68 2 0 2 C0 1.34 0 0.68 0 0 Z M7 14 C7 15.98 7 17.96 7 20 C8.32 19.67 9.64 19.34 11 19 C10.03114628 17.31503702 9.03013277 15.64821244 8 14 C7.67 14 7.34 14 7 14 Z " fill="#000000" transform="translate(129,288)"/>
<path d="M0 0 C1 1 1 1 1.0625 4.5625 C1.041875 5.696875 1.02125 6.83125 1 8 C-2.3 8.33 -5.6 8.66 -9 9 C-8.67 9.99 -8.34 10.98 -8 12 C-7.90343479 14.39424908 -7.8701932 16.7913092 -7.875 19.1875 C-7.87113281 21.09595703 -7.87113281 21.09595703 -7.8671875 23.04296875 C-8 27 -8 27 -8.51171875 30.62109375 C-9.50670718 37.88079135 -8.99889199 45.31054401 -8.87304688 52.6171875 C-8.86208984 53.7928125 -8.85113281 54.9684375 -8.83984375 56.1796875 C-8.82300537 57.24944824 -8.80616699 58.31920898 -8.78881836 59.42138672 C-9 62 -9 62 -11 64 C-11.99 64 -12.98 64 -14 64 C-16.70604947 55.66060227 -17.65761558 47.72306043 -18 39 C-18.04366699 37.92266602 -18.08733398 36.84533203 -18.13232422 35.73535156 C-18.44803876 27.82441688 -18.73167701 19.91267384 -19 12 C-25.93 15.465 -25.93 15.465 -33 19 C-34.07090744 14.71637024 -34.00804968 12.26482557 -33 8 C-24.8066005 0.18171999 -10.67429389 -1.10860619 0 0 Z " fill="#000000" transform="translate(233,18)"/>
<path d="M0 0 C4.27793505 2.23339411 6.56143313 5.2360448 8.9375 9.375 C11.34065581 17.17023667 11.39716337 27.68881296 8.3125 35.25 C6.08748563 39.39913713 3.2043215 41.89783925 -1 44 C-6.01353911 44.37838031 -9.00482115 44.13135639 -13 41 C-18.757959 34.74850165 -19.88870443 28.28039062 -20 20 C-19.46387732 13.24882549 -17.56126423 7.14087239 -13 2 C-8.85057495 -0.60087673 -4.75910473 -0.89885283 0 0 Z M-7 3 C-12.05884155 8.24620605 -11.21426268 14.99113948 -11.25 21.8125 C-11.270625 22.78509766 -11.29125 23.75769531 -11.3125 24.75976562 C-11.34414302 30.60185793 -10.94969609 34.89556137 -8 40 C-5.42267086 41.05167527 -5.42267086 41.05167527 -3 41 C2.28967473 35.0277866 2.18123663 29.75378398 2.1875 22.125 C2.19974609 21.34769531 2.21199219 20.57039063 2.22460938 19.76953125 C2.23864844 14.20070061 1.9544987 8.75406634 -1.375 4.0625 C-3.23439173 2.63516709 -3.23439173 2.63516709 -7 3 Z " fill="#000000" transform="translate(176,321)"/>
<path d="M0 0 C5.37095118 2.9390176 8.27541667 7.15486372 10 13 C10.42268535 15.99287387 10.46552423 18.91852665 10.4375 21.9375 C10.4674707 23.07735352 10.4674707 23.07735352 10.49804688 24.24023438 C10.49261686 30.59878193 8.73448824 35.64694179 4.6940918 40.60131836 C1.97687663 43.2330894 -0.3676579 44.33300149 -4.0625 44.5 C-9.28816931 43.83642295 -11.61024028 42.46917456 -15.1875 38.6875 C-20.20679109 31.24510287 -19.6833505 22.59313256 -19 14 C-17.84708572 9.19182338 -15.79560073 5.44970742 -12.3125 1.9375 C-8.02255081 -0.57171556 -4.8498403 -1.18083068 0 0 Z M-7 3 C-11.46394739 8.73936094 -11.20948463 14.80161437 -11.25 21.75 C-11.270625 22.61882812 -11.29125 23.48765625 -11.3125 24.3828125 C-11.34788018 30.27361192 -10.55113961 34.66082925 -8 40 C-5.58256854 41.40127511 -5.58256854 41.40127511 -3 41 C-0.02192651 39.01461768 0.8526087 36.29509541 2 33 C2.4247508 29.40318166 2.37019629 25.80709514 2.375 22.1875 C2.39949219 21.22779297 2.42398437 20.26808594 2.44921875 19.27929688 C2.47602236 12.73474878 1.36692568 8.6226328 -2 3 C-4.37305578 2.58219121 -4.37305578 2.58219121 -7 3 Z " fill="#000000" transform="translate(361,321)"/>
<path d="M0 0 C3.3 0 6.6 0 10 0 C13.63 6.6 17.26 13.2 21 20 C21.33 14.39 21.66 8.78 22 3 C21.01 2.67 20.02 2.34 19 2 C19 1.34 19 0.68 19 0 C21.97 0 24.94 0 28 0 C27.34 1.32 26.68 2.64 26 4 C25.67939863 5.97352315 25.67939863 5.97352315 25.68115234 8.03417969 C25.66128265 8.81468689 25.64141296 9.59519409 25.62094116 10.39935303 C25.60361435 11.6480014 25.60361435 11.6480014 25.5859375 12.921875 C25.56657135 13.78186096 25.5472052 14.64184692 25.5272522 15.52789307 C25.46758186 18.26849521 25.4211214 21.00913964 25.375 23.75 C25.33680866 25.61069517 25.29775625 27.47137288 25.2578125 29.33203125 C25.16189065 33.88787864 25.07781332 38.44380879 25 43 C20.83892758 41.61297586 20.44228048 39.62075681 18.42578125 35.77734375 C18.09708542 35.15726944 17.76838959 34.53719513 17.42973328 33.89833069 C16.38157833 31.91601815 15.34695749 29.926989 14.3125 27.9375 C13.6043955 26.59263532 12.89542156 25.24822803 12.18554688 23.90429688 C10.44519935 20.6088318 8.72332326 17.30462604 7 14 C7 22.25 7 30.5 7 39 C7.99 39 8.98 39 10 39 C10 39.99 10 40.98 10 42 C6.7 42 3.4 42 0 42 C0 41.01 0 40.02 0 39 C0.99 38.505 0.99 38.505 2 38 C2.04957858 33.39186151 2.08580385 28.78387963 2.10986328 24.17553711 C2.11989726 22.60910333 2.13352754 21.04268817 2.15087891 19.47631836 C2.17524225 17.21984247 2.18650916 14.96361506 2.1953125 12.70703125 C2.20563507 12.01100296 2.21595764 11.31497467 2.22659302 10.59785461 C2.22750439 6.61415509 1.7555827 3.58709891 0 0 Z " fill="#000000" transform="translate(373,322)"/>
<path d="M0 0 C1.35434391 0.03544078 2.70855226 0.07674048 4.0625 0.125 C5.0525 0.125 6.0425 0.125 7.0625 0.125 C8.0525 0.125 9.0425 0.125 10.0625 0.125 C10.0625 4.745 10.0625 9.365 10.0625 14.125 C9.0725 13.795 8.0825 13.465 7.0625 13.125 C6.25390625 11.34765625 6.25390625 11.34765625 5.625 9.1875 C4.53549707 5.88790159 4.53549707 5.88790159 2 3.5625 C-0.0049281 2.89486497 -0.0049281 2.89486497 -1.9375 4.125 C-3.00680958 6.62005568 -3.00386178 7.88887552 -2.265625 10.515625 C-0.64070596 13.708113 1.17007528 15.03976358 4.0625 17.125 C7.81570744 19.83080071 9.7850008 21.62199178 11.0625 26.125 C11.53383742 31.96958397 11.03414029 35.8990119 8.0625 41.125 C5.71091866 43.27501722 4.24269017 44.13407839 1.03125 44.109375 C-1.81266753 43.80025353 -4.36376033 43.41186983 -6.9375 42.125 C-6.9375 42.785 -6.9375 43.445 -6.9375 44.125 C-7.5975 44.125 -8.2575 44.125 -8.9375 44.125 C-8.9375 38.845 -8.9375 33.565 -8.9375 28.125 C-8.2775 28.125 -7.6175 28.125 -6.9375 28.125 C-6.75574219 28.73988281 -6.57398438 29.35476563 -6.38671875 29.98828125 C-6.13535156 30.79652344 -5.88398438 31.60476563 -5.625 32.4375 C-5.25955078 33.63826172 -5.25955078 33.63826172 -4.88671875 34.86328125 C-3.88305283 37.25473213 -2.97994549 38.54106268 -0.9375 40.125 C1.22549211 39.89742269 1.22549211 39.89742269 3.0625 39.125 C4.00521002 35.86860341 4.00521002 35.86860341 4.0625 32.125 C2.06583267 29.45836666 2.06583267 29.45836666 -0.9375 27.125 C-2.20086251 25.93064469 -3.45051343 24.72165203 -4.6875 23.5 C-5.28046875 22.93023437 -5.8734375 22.36046875 -6.484375 21.7734375 C-9.43768639 18.42317565 -9.20537332 14.6415369 -9.1640625 10.4140625 C-8.57321537 4.44446913 -6.06954817 0.19268407 0 0 Z " fill="#000000" transform="translate(289.9375,320.875)"/>
<path d="M0 0 C0 4.62 0 9.24 0 14 C-0.66 14 -1.32 14 -2 14 C-2.23074219 13.36191406 -2.46148437 12.72382813 -2.69921875 12.06640625 C-3.67395761 9.59681097 -4.65430421 7.29027072 -6 5 C-8.5586734 3.69974951 -8.5586734 3.69974951 -11 4 C-11.33 4.33 -11.66 4.66 -12 5 C-11.8725541 9.39157326 -11.47250624 11.46394466 -8.53125 14.80078125 C-7.03078125 16.04408203 -7.03078125 16.04408203 -5.5 17.3125 C-0.05116796 21.89766407 -0.05116796 21.89766407 1 24 C1.14901491 26.10053716 1.22138453 28.20687825 1.25 30.3125 C1.27578125 31.44300781 1.3015625 32.57351563 1.328125 33.73828125 C0.9677312 37.3207672 0.14315471 39.14074312 -2 42 C-6.13073508 44.5243381 -9.37373127 43.96016898 -14 43 C-14.66 42.67 -15.32 42.34 -16 42 C-16 42.66 -16 43.32 -16 44 C-16.99 44 -17.98 44 -19 44 C-19 38.72 -19 33.44 -19 28 C-18.01 28 -17.02 28 -16 28 C-15.84144531 28.69867188 -15.68289063 29.39734375 -15.51953125 30.1171875 C-14.2961404 35.76832038 -14.2961404 35.76832038 -10.4375 39.6875 C-7.99668261 40.23055888 -7.99668261 40.23055888 -6 39 C-5.14040094 35.48345837 -4.43683169 32.36682405 -6 29 C-7.76591887 27.99083967 -7.76591887 27.99083967 -10 27 C-16.40091696 22.13530311 -16.40091696 22.13530311 -18 18 C-18.7208838 11.80227171 -18.61934678 6.28981452 -15 1 C-10.73840618 -1.13079691 -4.59236298 -0.04502317 0 0 Z " fill="#000000" transform="translate(322,321)"/>
<path d="M0 0 C0.66 0.33 1.32 0.66 2 1 C2 0.34 2 -0.32 2 -1 C2.66 -1 3.32 -1 4 -1 C4 3.95 4 8.9 4 14 C3.34 14 2.68 14 2 14 C1.65066406 13.28972656 1.30132812 12.57945312 0.94140625 11.84765625 C0.25884766 10.46900391 0.25884766 10.46900391 -0.4375 9.0625 C-0.88996094 8.14597656 -1.34242188 7.22945313 -1.80859375 6.28515625 C-2.80525394 4.09471096 -2.80525394 4.09471096 -4 3 C-5.66617115 2.95936168 -7.33388095 2.957279 -9 3 C-14.51755433 12.7114905 -13.77037359 24.44981015 -11 35 C-10.67 35.99 -10.34 36.98 -10 38 C-4.91696314 38.11320856 -4.91696314 38.11320856 0 37 C1.21869929 34.49552484 1.21869929 34.49552484 2 32 C2.99 32 3.98 32 5 32 C4.88721848 35.83457175 3.62045075 37.74540394 0.9375 40.3125 C-1.72288861 42.42227539 -3.65478751 43.44806108 -7.0625 43.625 C-11.57694987 42.90842066 -13.62110886 42.07171922 -17 39 C-21.44525823 32.32501161 -22.79981064 24.95601108 -22 17 C-20.59495758 10.65308425 -18.96788461 4.45910439 -13.8125 0.1875 C-9.07605354 -1.81233295 -4.84029213 -1.61343071 0 0 Z " fill="#000000" transform="translate(149,322)"/>
<path d="M0 0 C1.93719378 -0.05406122 3.87481921 -0.09282025 5.8125 -0.125 C6.89144531 -0.14820313 7.97039062 -0.17140625 9.08203125 -0.1953125 C12 0 12 0 15 2 C15.40843923 4.71203652 15.13336867 7.2437142 15 10 C14.01 10.33 13.02 10.66 12 11 C12.66 12.11375 13.32 13.2275 14 14.375 C16 17.75 16 17.75 16 20 C16.99 20 17.98 20 19 20 C19 14.06 19 8.12 19 2 C18.34 2 17.68 2 17 2 C17 1.34 17 0.68 17 0 C19.97 0 22.94 0 26 0 C26 0.66 26 1.32 26 2 C25.34 2 24.68 2 24 2 C24 7.94 24 13.88 24 20 C24.66 20 25.32 20 26 20 C26 20.66 26 21.32 26 22 C23.56065775 22.13501894 21.12875896 22.23403897 18.6875 22.3125 C17.99720703 22.35439453 17.30691406 22.39628906 16.59570312 22.43945312 C14.57421875 22.48828125 14.57421875 22.48828125 11 22 C9.01953125 19.48046875 9.01953125 19.48046875 8 17 C7.67 17.99 7.34 18.98 7 20 C7.66 20 8.32 20 9 20 C9 20.66 9 21.32 9 22 C6.03 22 3.06 22 0 22 C0 21.34 0 20.68 0 20 C0.66 20 1.32 20 2 20 C2 14.06 2 8.12 2 2 C1.34 2 0.68 2 0 2 C0 1.34 0 0.68 0 0 Z M7 2 C7 4.64 7 7.28 7 10 C7.99 9.67 8.98 9.34 10 9 C10 7.02 10 5.04 10 3 C9.01 2.67 8.02 2.34 7 2 Z " fill="#000000" transform="translate(311,288)"/>
<path d="M0 0 C0.99 0.33 1.98 0.66 3 1 C2.67 9.91 2.34 18.82 2 28 C4.64 28 7.28 28 10 28 C10 24.04 10 20.08 10 16 C13.3 16 16.6 16 20 16 C20 20.29 20 24.58 20 29 C21.98 29 23.96 29 26 29 C26 19.43 26 9.86 26 0 C26.66 0 27.32 0 28 0 C28 9.9 28 19.8 28 30 C24.7 30 21.4 30 18 30 C18 26.04 18 22.08 18 18 C16.02 18 14.04 18 12 18 C12 21.96 12 25.92 12 30 C8.32790856 30.04648217 4.6710339 30.04742938 1 30 C-0.24910156 30.01160156 -0.24910156 30.01160156 -1.5234375 30.0234375 C-5.02661203 29.891919 -7.17471227 29.70933822 -9.890625 27.375 C-11.38521283 25.64295429 -12.73288815 23.90315231 -14 22 C-14.33 24.64 -14.66 27.28 -15 30 C-18.63 30 -22.26 30 -26 30 C-26 26.04 -26 22.08 -26 18 C-26.99 17.67 -27.98 17.34 -29 17 C-27.35 16.67 -25.7 16.34 -24 16 C-24 19.96 -24 23.92 -24 28 C-21.36 28 -18.72 28 -16 28 C-16 24.37 -16 20.74 -16 17 C-12.85759017 19.49964419 -10.30316471 21.59875259 -7.875 24.8125 C-7.25625 25.534375 -6.6375 26.25625 -6 27 C-4.68 27 -3.36 27 -2 27 C-3.45699098 25.20724155 -4.91563655 23.41582771 -6.375 21.625 C-7.18710937 20.62726563 -7.99921875 19.62953125 -8.8359375 18.6015625 C-10.90265916 16.03639494 -10.90265916 16.03639494 -13 14 C-16.08347826 13.83318891 -16.08347826 13.83318891 -19 14 C-15.47531624 11.17847285 -11.67320292 9.01730814 -7.75 6.8125 C-7.1003125 6.44447266 -6.450625 6.07644531 -5.78125 5.69726562 C-4.18889373 4.79571097 -2.5946362 3.89751583 -1 3 C-1.33 2.34 -1.66 1.68 -2 1 C-1.34 0.67 -0.68 0.34 0 0 Z M-6.625 8 C-7.62789063 8.556875 -8.63078125 9.11375 -9.6640625 9.6875 C-10.43492187 10.120625 -11.20578125 10.55375 -12 11 C-10.62804139 14.09709467 -9.06207499 16.15870525 -6.625 18.5 C-6.03976562 19.0671875 -5.45453125 19.634375 -4.8515625 20.21875 C-4.24054688 20.8065625 -3.62953125 21.394375 -3 22 C-1.68 23.32 -0.36 24.64 1 26 C1 19.07 1 12.14 1 5 C-2.0271098 5 -4.00416068 6.53720596 -6.625 8 Z " fill="#8E8E8E" transform="translate(361,191)"/>
<path d="M0 0 C4.95 0 9.9 0 15 0 C15 0.66 15 1.32 15 2 C14.51104248 2.37680908 14.02208496 2.75361816 13.51831055 3.1418457 C11.15634547 6.03248989 11.63123994 9.16591122 11.70703125 12.73046875 C11.71127609 13.48088943 11.71552094 14.23131012 11.71989441 15.00447083 C11.7366755 17.39918026 11.7743251 19.79304534 11.8125 22.1875 C11.82754765 23.8118368 11.84123591 25.4361868 11.85351562 27.06054688 C11.88657695 31.04068948 11.93835406 35.02020163 12 39 C12.99 39 13.98 39 15 39 C15 39.99 15 40.98 15 42 C10.05 42 5.1 42 0 42 C0 41.01 0 40.02 0 39 C1.485 38.505 1.485 38.505 3 38 C3.07405295 33.19453321 3.12855497 28.3893971 3.16479492 23.58349609 C3.17989911 21.94802059 3.20038389 20.31258571 3.22631836 18.67724609 C3.26263145 16.32899976 3.27970932 13.98128795 3.29296875 11.6328125 C3.30845261 10.89942657 3.32393646 10.16604065 3.33988953 9.41043091 C3.37554636 7.1291908 3.37554636 7.1291908 3 4 C2.01 3.34 1.02 2.68 0 2 C0 1.34 0 0.68 0 0 Z " fill="#000000" transform="translate(325,322)"/>
<path d="M0 0 C2.97 0 5.94 0 9 0 C9 0.66 9 1.32 9 2 C8.34 2 7.68 2 7 2 C7 4.31 7 6.62 7 9 C8.65 9 10.3 9 12 9 C11.34 6.03 10.68 3.06 10 0 C12.64 0 15.28 0 18 0 C17.67 0.99 17.34 1.98 17 3 C16.90355695 5.67771286 16.8607108 8.32315677 16.875 11 C16.87113281 11.72445313 16.86726563 12.44890625 16.86328125 13.1953125 C16.86918073 16.39282879 16.98194202 18.94582607 18 22 C15.36 22 12.72 22 10 22 C10.66 18.7 11.32 15.4 12 12 C10.35 12 8.7 12 7 12 C7 14.64 7 17.28 7 20 C7.66 20 8.32 20 9 20 C9 20.66 9 21.32 9 22 C6.03 22 3.06 22 0 22 C0 21.34 0 20.68 0 20 C0.66 20 1.32 20 2 20 C2 14.06 2 8.12 2 2 C1.34 2 0.68 2 0 2 C0 1.34 0 0.68 0 0 Z " fill="#000000" transform="translate(355,288)"/>
<path d="M0 0 C5.3521875 -0.0928125 5.3521875 -0.0928125 10.8125 -0.1875 C11.93374268 -0.21481201 13.05498535 -0.24212402 14.21020508 -0.27026367 C15.53894653 -0.28150269 15.53894653 -0.28150269 16.89453125 -0.29296875 C18.25348511 -0.31653442 18.25348511 -0.31653442 19.63989258 -0.34057617 C22.47047434 0.06789197 23.27191381 0.77329209 25 3 C26.69805399 6.05649719 27 7.97408933 27 11.5 C25.67338117 16.1431659 23.88836299 17.26987279 20 20 C20.6496875 20.61488281 21.299375 21.22976562 21.96875 21.86328125 C22.8040625 22.67152344 23.639375 23.47976562 24.5 24.3125 C25.75296875 25.51326172 25.75296875 25.51326172 27.03125 26.73828125 C29 29 29 29 29 32 C22.87036113 32.42273372 19.94093052 32.02168763 15 28 C13.125 26.25 13.125 26.25 12 25 C11.67 26.98 11.34 28.96 11 31 C7.37 31 3.74 31 0 31 C0 20.77 0 10.54 0 0 Z M2 1 C2 10.57 2 20.14 2 30 C4.64 30 7.28 30 10 30 C10.33 26.7 10.66 23.4 11 20 C11.721875 21.093125 12.44375 22.18625 13.1875 23.3125 C15.44561597 26.45477969 17.36476689 28.45502593 21 30 C23.70953551 30.25196129 23.70953551 30.25196129 26 30 C25.41992188 29.32904297 25.41992188 29.32904297 24.828125 28.64453125 C21.81609925 25.1478974 18.85678969 21.62592537 16 18 C17.11375 17.87625 17.11375 17.87625 18.25 17.75 C21.6427671 16.82469988 22.93127504 15.83491939 25 13 C25.54109093 9.36696087 25.24054224 7.49201821 23.625 4.1875 C22.18398646 1.90394668 22.18398646 1.90394668 20 1 C18.62451844 0.91691362 17.24514204 0.89263984 15.8671875 0.90234375 C15.14128418 0.90484131 14.41538086 0.90733887 13.66748047 0.90991211 C12.74596191 0.91901611 11.82444336 0.92812012 10.875 0.9375 C6.481875 0.9684375 6.481875 0.9684375 2 1 Z " fill="#8E8E8E" transform="translate(335,223)"/>
<path d="M0 0 C0 2.64 0 5.28 0 8 C-0.66 8 -1.32 8 -2 8 C-2.7115625 6.7625 -2.7115625 6.7625 -3.4375 5.5 C-3.953125 4.675 -4.46875 3.85 -5 3 C-5.99 3 -6.98 3 -8 3 C-9.35550385 5.7110077 -9.16917207 7.91339169 -9.1875 10.9375 C-9.20167969 11.99839844 -9.21585937 13.05929687 -9.23046875 14.15234375 C-9.21565067 17.20277669 -9.21565067 17.20277669 -7 20 C-6.34 20 -5.68 20 -5 20 C-5 18.35 -5 16.7 -5 15 C-5.66 14.67 -6.32 14.34 -7 14 C-7 13.34 -7 12.68 -7 12 C-4.03 12 -1.06 12 2 12 C1.05760492 17.99705961 1.05760492 17.99705961 0 21 C-2.87714637 23.07793904 -4.54446278 23.00929668 -8.0625 22.9375 C-11 22 -11 22 -13.375 20.1875 C-15.90999851 15.21500293 -15.83742825 10.4621446 -15 5 C-11.42317054 -1.19983773 -6.44828817 -0.56344266 0 0 Z " fill="#000000" transform="translate(353,288)"/>
<path d="M0 0 C0 3.3 0 6.6 0 10 C-3.75976562 9.07226562 -3.75976562 9.07226562 -7.51953125 8.14453125 C-10.01499262 7.74917511 -10.01499262 7.74917511 -11.796875 9.19921875 C-13.20466238 11.30632909 -13.43272979 12.48133117 -13.4375 15 C-13.45683594 15.680625 -13.47617187 16.36125 -13.49609375 17.0625 C-13.12980185 19.14280589 -13.12980185 19.14280589 -11.36328125 20.73828125 C-8.32208248 22.36192952 -6.17756076 22.29926829 -2.75 22.1875 C-1.67234375 22.16042969 -0.5946875 22.13335937 0.515625 22.10546875 C1.74539063 22.05326172 1.74539063 22.05326172 3 22 C1.52433236 26.36189992 0.07614496 28.14223326 -4.14453125 30.265625 C-7.81729111 31.71926469 -10.39866318 31.66314903 -14.046875 30.15234375 C-17.75941472 28.15380503 -20.33332943 26.22296371 -22.0625 22.3125 C-23.84045252 16.2445201 -22.87474699 10.40555423 -20.75 4.5625 C-15.99289867 -2.40325551 -7.57343173 -2.52447724 0 0 Z M-17 3 C-21.00861481 7.4232991 -21.34839548 11.73446233 -21.28125 17.4921875 C-20.86460293 21.20729058 -19.47744601 23.25472199 -17 26 C-14.25981924 28.1633006 -12.51347849 28.92352448 -9.0625 29.4375 C-5.20844649 28.88692093 -3.03377915 27.38368362 0 25 C0 24.67 0 24.34 0 24 C-0.75925781 23.95101562 -1.51851563 23.90203125 -2.30078125 23.8515625 C-3.29464844 23.77679688 -4.28851563 23.70203125 -5.3125 23.625 C-6.29863281 23.55539063 -7.28476562 23.48578125 -8.30078125 23.4140625 C-11 23 -11 23 -14 21 C-15.26424781 16.92720169 -15.25762398 13.0519646 -14.25 8.9375 C-10.86251964 6.02050303 -7.63070776 6.62765918 -3.30078125 6.82421875 C-2.54152344 6.88222656 -1.78226562 6.94023437 -1 7 C-1.33 5.02 -1.66 3.04 -2 1 C-7.86845842 -0.08240455 -11.84518175 -0.55927927 -17 3 Z " fill="#8E8E8E" transform="translate(385,224)"/>
<path d="M0 0 C0 2.64 0 5.28 0 8 C-1.5 6.625 -1.5 6.625 -3 5 C-3 4.34 -3 3.68 -3 3 C-3.99 3 -4.98 3 -6 3 C-6 4.32 -6 5.64 -6 7 C-3.0929357 9.16026765 -3.0929357 9.16026765 0 11 C1.50934217 14.01868434 1.17510672 16.67297229 1 20 C0.34 20.99 -0.32 21.98 -1 23 C-3.3828125 23.29296875 -3.3828125 23.29296875 -6.125 23.1875 C-7.03507812 23.16042969 -7.94515625 23.13335937 -8.8828125 23.10546875 C-9.58148438 23.07066406 -10.28015625 23.03585937 -11 23 C-11 20.36 -11 17.72 -11 15 C-10.34 15 -9.68 15 -9 15 C-8.7525 15.804375 -8.505 16.60875 -8.25 17.4375 C-7.27761141 20.171081 -7.27761141 20.171081 -4.875 20.8125 C-3.946875 20.9053125 -3.946875 20.9053125 -3 21 C-4.02034372 17.66069328 -4.69404827 16.22386712 -7.5625 14.125 C-10 12 -10 12 -10.9375 8.5 C-11.03366059 3.11500701 -11.03366059 3.11500701 -9 1 C-6.03060908 0.27305367 -3.06802093 0 0 0 Z " fill="#000000" transform="translate(400,287)"/>
<path d="M0 0 C0.99 0.33 1.98 0.66 3 1 C4.04844427 3.64030754 4.90522453 6.15712449 5.6875 8.875 C5.91244141 9.60847656 6.13738281 10.34195312 6.36914062 11.09765625 C7.28448669 14.1525194 8 16.79511041 8 20 C8.66 20 9.32 20 10 20 C10 20.66 10 21.32 10 22 C7.03 22 4.06 22 1 22 C1 21.34 1 20.68 1 20 C1.66 20 2.32 20 3 20 C2.67 18.68 2.34 17.36 2 16 C0.35 16 -1.3 16 -3 16 C-3 17.32 -3 18.64 -3 20 C-2.34 20 -1.68 20 -1 20 C-1 20.66 -1 21.32 -1 22 C-2.98 22 -4.96 22 -7 22 C-4.84071065 14.60606981 -2.4695482 7.29582259 0 0 Z M-1 10 C-1.33 11.32 -1.66 12.64 -2 14 C-1.01 14 -0.02 14 1 14 C0.67 12.68 0.34 11.36 0 10 C-0.33 10 -0.66 10 -1 10 Z " fill="#000000" transform="translate(201,288)"/>
<path d="M0 0 C3.63 0 7.26 0 11 0 C11.33 2.31 11.66 4.62 12 7 C12.67546875 6.62746094 13.3509375 6.25492188 14.046875 5.87109375 C14.93890625 5.39800781 15.8309375 4.92492187 16.75 4.4375 C18.07257813 3.72400391 18.07257813 3.72400391 19.421875 2.99609375 C22.20701188 1.92001814 23.26980214 1.93471252 26 3 C11.6 13 11.6 13 7 13 C7 13.66 7 14.32 7 15 C4.73194205 15.69809445 2.46133393 16.38371017 0.1875 17.0625 C-0.45509766 17.26166016 -1.09769531 17.46082031 -1.75976562 17.66601562 C-6.66015625 19.11328125 -6.66015625 19.11328125 -10 18 C-9.34 18 -8.68 18 -8 18 C-8 17.34 -8 16.68 -8 16 C-5.09399739 14.74335022 -3.20395416 14 0 14 C0 9.38 0 4.76 0 0 Z M2 2 C2 5.3 2 8.6 2 12 C6.07964281 10.69844994 6.07964281 10.69844994 10 9 C10 6.69 10 4.38 10 2 C7.36 2 4.72 2 2 2 Z " fill="#939393" transform="translate(335,191)"/>
<path d="M0 0 C-52.08918706 21.51419129 -52.08918706 21.51419129 -71 21 C-70.67 20.34 -70.34 19.68 -70 19 C-67.41821289 18.22558594 -67.41821289 18.22558594 -63.97265625 17.484375 C-62.71428955 17.2059375 -61.45592285 16.9275 -60.15942383 16.640625 C-59.49053131 16.49560547 -58.82163879 16.35058594 -58.13247681 16.20117188 C-43.94208358 13.10823562 -30.38046477 9.17253956 -16.796875 4.03515625 C-15.92377686 3.70708984 -15.05067871 3.37902344 -14.15112305 3.04101562 C-12.46366014 2.40314414 -10.77997129 1.75516948 -9.10083008 1.09570312 C-8.34697021 0.80759766 -7.59311035 0.51949219 -6.81640625 0.22265625 C-6.15068604 -0.03765381 -5.48496582 -0.29796387 -4.79907227 -0.56616211 C-3 -1 -3 -1 0 0 Z " fill="#EFEEEF" transform="translate(322,212)"/>
<path d="M0 0 C0.763125 0.20625 1.52625 0.4125 2.3125 0.625 C0.94562778 4.61171063 -0.83945093 7.50994633 -3.6875 10.625 C-4.3475 10.625 -5.0075 10.625 -5.6875 10.625 C-5.89375 11.305625 -6.1 11.98625 -6.3125 12.6875 C-8.14158866 16.59509851 -10.79029034 19.46357939 -13.6875 22.625 C-14.0175 21.305 -14.3475 19.985 -14.6875 18.625 C-14.0275 18.625 -13.3675 18.625 -12.6875 18.625 C-13.0175 17.965 -13.3475 17.305 -13.6875 16.625 C-14.47125 17.140625 -15.255 17.65625 -16.0625 18.1875 C-16.92875 18.661875 -17.795 19.13625 -18.6875 19.625 C-19.3475 19.295 -20.0075 18.965 -20.6875 18.625 C-19.635625 17.6040625 -19.635625 17.6040625 -18.5625 16.5625 C-15.84131461 13.86457261 -13.42654225 10.95906548 -11.01953125 7.98046875 C-10.57996094 7.53316406 -10.14039063 7.08585938 -9.6875 6.625 C-9.0275 6.625 -8.3675 6.625 -7.6875 6.625 C-7.419375 5.84125 -7.15125 5.0575 -6.875 4.25 C-5.2732531 0.70929632 -3.95286172 -0.5515621 0 0 Z " fill="#D70F1B" transform="translate(261.6875,195.375)"/>
<path d="M0 0 C4.62 0 9.24 0 14 0 C14 2.31 14 4.62 14 7 C12.35 5.35 10.7 3.7 9 2 C9.33 7.61 9.66 13.22 10 19 C10.66 19.33 11.32 19.66 12 20 C12 20.66 12 21.32 12 22 C8.7 22 5.4 22 2 22 C2 21.34 2 20.68 2 20 C2.66 19.67 3.32 19.34 4 19 C4.33 13.39 4.66 7.78 5 2 C2.05270463 4.63106761 2.05270463 4.63106761 1 7 C0.34 7 -0.32 7 -1 7 C-0.67 4.69 -0.34 2.38 0 0 Z " fill="#000000" transform="translate(374,288)"/>
<path d="M0 0 C3.63 0 7.26 0 11 0 C11 4.29 11 8.58 11 13 C7.37 13 3.74 13 0 13 C0 8.71 0 4.42 0 0 Z " fill="#8E8E8E" transform="translate(370,191)"/>
<path d="M0 0 C0.66 0.33 1.32 0.66 2 1 C2 1.66 2 2.32 2 3 C1.34 3 0.68 3 0 3 C-0.0928125 4.5778125 -0.0928125 4.5778125 -0.1875 6.1875 C-1.14254096 10.66884605 -2.70694319 11.96025526 -6 15 C-6 15.99 -6 16.98 -6 18 C-9.13498292 19.85776765 -11.37471432 20.20140476 -15 20 C-15.33 20.99 -15.66 21.98 -16 23 C-16 22.34 -16 21.68 -16 21 C-16.66 20.67 -17.32 20.34 -18 20 C-17.34 20 -16.68 20 -16 20 C-15.731875 19.46375 -15.46375 18.9275 -15.1875 18.375 C-14.795625 17.59125 -14.40375 16.8075 -14 16 C-13.525625 14.948125 -13.05125 13.89625 -12.5625 12.8125 C-11 10 -11 10 -8 9 C-7.31867549 7.33927151 -6.65257873 5.672233 -6 4 C-3 2 -3 2 0 2 C0 1.34 0 0.68 0 0 Z " fill="#DF0A17" transform="translate(247,211)"/>
<path d="M0 0 C4.26880001 0.09701818 5.74443051 0.75554223 8.875 3.75 C10.99965516 6.9994726 11.55231227 8.24427658 11 12 C5.80589023 12.51941098 5.80589023 12.51941098 3 12 C0.27850241 9.0743901 -0.870557 7.16498704 -1.3125 3.1875 C-1 1 -1 1 0 0 Z " fill="#000000" transform="translate(468,216)"/>
<path d="M0 0 C0.99 0 1.98 0 3 0 C3.63019694 9.99562363 3.63019694 9.99562363 1 14.1875 C0.01 15.0846875 0.01 15.0846875 -1 16 C-2.32 15.67 -3.64 15.34 -5 15 C-5.59131554 9.3233708 -4.41839805 6.30178911 -1.38671875 1.50390625 C-0.92910156 1.00761719 -0.47148437 0.51132812 0 0 Z " fill="#000000" transform="translate(148,57)"/>
<path d="M0 0 C2.0703125 1.77734375 2.0703125 1.77734375 4.125 3.9375 C4.80820313 4.64777344 5.49140625 5.35804688 6.1953125 6.08984375 C6.79085937 6.72019531 7.38640625 7.35054687 8 8 C8.66 8.66 9.32 9.32 10 10 C9.21625 9.95875 8.4325 9.9175 7.625 9.875 C4.83883881 9.71271266 4.83883881 9.71271266 3 12 C2.61328125 11.52949219 2.2265625 11.05898437 1.828125 10.57421875 C-0.93026998 7.27643465 -3.5166945 4.54549248 -7 2 C-7 1.34 -7 0.68 -7 0 C-3.79903504 -1.06698832 -3.03591158 -1.18572396 0 0 Z " fill="#CD1924" transform="translate(215,196)"/>
<path d="M0 0 C0.66 0.33 1.32 0.66 2 1 C-12.4 11 -12.4 11 -17 11 C-17 11.66 -17 12.32 -17 13 C-19.26805795 13.69809445 -21.53866607 14.38371017 -23.8125 15.0625 C-24.45509766 15.26166016 -25.09769531 15.46082031 -25.75976562 15.66601562 C-30.66015625 17.11328125 -30.66015625 17.11328125 -34 16 C-33.34 16 -32.68 16 -32 16 C-32 15.34 -32 14.68 -32 14 C-31.43796875 13.89945313 -30.8759375 13.79890625 -30.296875 13.6953125 C-20.88991479 11.58884595 -6.89228161 6.89228161 0 0 Z " fill="#DDDDDD" transform="translate(359,193)"/>
<path d="M0 0 C-4.17866945 1.69626135 -8.35961127 3.3867488 -12.54272461 5.07202148 C-13.96425617 5.64565033 -15.38516381 6.22082791 -16.80541992 6.79760742 C-18.85171452 7.62830985 -20.90021799 8.45334272 -22.94921875 9.27734375 C-23.5796257 9.53466782 -24.21003265 9.79199188 -24.85954285 10.05711365 C-28.19723228 11.39260941 -31.4043853 12.66282321 -35 13 C-35.66 12.34 -36.32 11.68 -37 11 C-36.13761719 10.72027344 -35.27523438 10.44054687 -34.38671875 10.15234375 C-28.51055328 8.22257874 -22.66155551 6.27169077 -16.87890625 4.07421875 C-16.02659424 3.75138916 -15.17428223 3.42855957 -14.29614258 3.09594727 C-12.61452817 2.4546796 -10.93588286 1.80556461 -9.26049805 1.14819336 C-8.48875244 0.85436768 -7.71700684 0.56054199 -6.921875 0.2578125 C-6.23706055 -0.0088623 -5.55224609 -0.27553711 -4.84667969 -0.55029297 C-3 -1 -3 -1 0 0 Z " fill="#E6E6E6" transform="translate(322,212)"/>
<path d="M0 0 C0.763125 0.20625 1.52625 0.4125 2.3125 0.625 C0.9187718 5.05958973 -1.29332235 7.49878374 -4.6875 10.625 C-4.6875 9.305 -4.6875 7.985 -4.6875 6.625 C-7.80947478 7.9339572 -7.80947478 7.9339572 -9.6875 10.625 C-10.3475 10.295 -11.0075 9.965 -11.6875 9.625 C-11.0275 8.635 -10.3675 7.645 -9.6875 6.625 C-9.0275 6.625 -8.3675 6.625 -7.6875 6.625 C-7.419375 5.84125 -7.15125 5.0575 -6.875 4.25 C-5.2732531 0.70929632 -3.95286172 -0.5515621 0 0 Z " fill="#CD1E29" transform="translate(261.6875,195.375)"/>
<path d="M0 0 C2.31 0.66 4.62 1.32 7 2 C7 3.65 7 5.3 7 7 C5 8 5 8 2.4375 7.375 C0 6 0 6 -0.875 3.4375 C-0.91625 2.633125 -0.9575 1.82875 -1 1 C-0.67 0.67 -0.34 0.34 0 0 Z " fill="#E00B18" transform="translate(228,214)"/>
<path d="M0 0 C1.4606285 2.64738916 2 3.89448334 2 7 C-0.97 7 -3.94 7 -7 7 C-5.12050295 3.42895561 -3.82946843 1.45255699 0 0 Z " fill="#DA1220" transform="translate(211,252)"/>
<path d="M0 0 C0.33 0.66 0.66 1.32 1 2 C-0.1312477 4.92238988 -1.59289861 6.99408218 -4 9 C-4.66 9 -5.32 9 -6 9 C-6.0825 9.61875 -6.165 10.2375 -6.25 10.875 C-7 13 -7 13 -9.0625 14.25 C-9.701875 14.4975 -10.34125 14.745 -11 15 C-10.25 12.625 -10.25 12.625 -9 10 C-7.67479497 9.31731862 -6.34187818 8.6492959 -5 8 C-4.64587656 6.67203709 -4.31478446 5.33783393 -4 4 C-1.9375 1.75 -1.9375 1.75 0 0 Z " fill="#AF7276" transform="translate(225,244)"/>
<path d="M0 0 C0.99 0.33 1.98 0.66 3 1 C2.8671875 2.79296875 2.8671875 2.79296875 2 5 C-0.6171875 6.73828125 -0.6171875 6.73828125 -3.875 8.3125 C-5.47988281 9.11107422 -5.47988281 9.11107422 -7.1171875 9.92578125 C-10 11 -10 11 -13 10 C-9.04 7.69 -5.08 5.38 -1 3 C-1.33 2.34 -1.66 1.68 -2 1 C-1.34 0.67 -0.68 0.34 0 0 Z " fill="#9E9E9E" transform="translate(361,191)"/>
<path d="M0 0 C0.99 0.66 1.98 1.32 3 2 C3.66 1.67 4.32 1.34 5 1 C4.67 1.99 4.34 2.98 4 4 C3.01 4.33 2.02 4.66 1 5 C-0.21869929 7.50447516 -0.21869929 7.50447516 -1 10 C-1.99 9.67 -2.98 9.34 -4 9 C-4.33 7.35 -4.66 5.7 -5 4 C-3.68 4 -2.36 4 -1 4 C-0.67 2.68 -0.34 1.36 0 0 Z " fill="#C92632" transform="translate(235,217)"/>
<path d="M0 0 C2.31 0 4.62 0 7 0 C6.67 1.98 6.34 3.96 6 6 C6.99 6.33 7.98 6.66 9 7 C8.67 7.99 8.34 8.98 8 10 C6.66370254 8.52351062 5.33103329 7.0437367 4 5.5625 C3.2575 4.73878906 2.515 3.91507813 1.75 3.06640625 C0 1 0 1 0 0 Z " fill="#A57F82" transform="translate(251,233)"/>
<path d="M0 0 C3.7952131 1.49097658 5.61042731 3.75700849 8 7 C5.69 7.66 3.38 8.32 1 9 C0.67 8.01 0.34 7.02 0 6 C0.99 6 1.98 6 3 6 C2.505 5.566875 2.01 5.13375 1.5 4.6875 C0 3 0 3 0 0 Z " fill="#CC171D" transform="translate(264,249)"/>
<path d="M0 0 C-1.91315119 2.57619276 -2.9016314 2.98395232 -6.13671875 3.51171875 C-7.30847656 3.56972656 -8.48023438 3.62773437 -9.6875 3.6875 C-10.86699219 3.75324219 -12.04648438 3.81898438 -13.26171875 3.88671875 C-14.61716797 3.94279297 -14.61716797 3.94279297 -16 4 C-15.67 3.34 -15.34 2.68 -15 2 C-12.890625 1.3671875 -12.890625 1.3671875 -10.25 0.875 C-8.95835937 0.62363281 -8.95835937 0.62363281 -7.640625 0.3671875 C-5.05466179 0.0076009 -2.60686191 -0.06564041 0 0 Z " fill="#F5F4F5" transform="translate(267,229)"/>
<path d="M0 0 C2.18703385 -0.37907282 2.18703385 -0.37907282 4 -1 C4 -0.34 4 0.32 4 1 C-1.20333134 3.24281523 -4.34264585 4.55577239 -10 3 C-10 2.34 -10 1.68 -10 1 C-6.13752925 -0.49231824 -3.9551934 -1.18655802 0 0 Z " fill="#A3A3A3" transform="translate(328,209)"/>
<path d="M0 0 C0.33 0.66 0.66 1.32 1 2 C-1.31 5.3 -3.62 8.6 -6 12 C-6.99 11.67 -7.98 11.34 -9 11 C-8.34 10.01 -7.68 9.02 -7 8 C-6.34 8 -5.68 8 -5 8 C-4.731875 7.4225 -4.46375 6.845 -4.1875 6.25 C-2.98280141 3.9674132 -1.59201885 2.0262058 0 0 Z " fill="#AF7274" transform="translate(263,198)"/>
<path d="M0 0 C1.98 1.65 3.96 3.3 6 5 C5.01 5.33 4.02 5.66 3 6 C2.67 6.66 2.34 7.32 2 8 C0.4375 6.8125 0.4375 6.8125 -1 5 C-0.6875 2.3125 -0.6875 2.3125 0 0 Z " fill="#A28187" transform="translate(214,204)"/>
<path d="M0 0 C0.66 0.33 1.32 0.66 2 1 C1.67 2.32 1.34 3.64 1 5 C0.34 5 -0.32 5 -1 5 C-1 5.66 -1 6.32 -1 7 C-2.98 7.66 -4.96 8.32 -7 9 C-6.57847656 8.51789063 -6.15695313 8.03578125 -5.72265625 7.5390625 C-5.17480469 6.90742188 -4.62695312 6.27578125 -4.0625 5.625 C-3.51722656 4.99851563 -2.97195312 4.37203125 -2.41015625 3.7265625 C-0.93041376 2.04367666 -0.93041376 2.04367666 0 0 Z " fill="#C42933" transform="translate(248,206)"/>
<path d="M0 0 C0.99 0.99 1.98 1.98 3 3 C2.34 3 1.68 3 1 3 C0.67 4.32 0.34 5.64 0 7 C-1.32 6.34 -2.64 5.68 -4 5 C-3.34 4.67 -2.68 4.34 -2 4 C-0.86649466 1.98330173 -0.86649466 1.98330173 0 0 Z " fill="#D81523" transform="translate(242,224)"/>
<path d="M0 0 C1.32 0.66 2.64 1.32 4 2 C4 2.99 4 3.98 4 5 C2.0625 4.6875 2.0625 4.6875 0 4 C-0.33 3.01 -0.66 2.02 -1 1 C-0.67 0.67 -0.34 0.34 0 0 Z " fill="#E30A17" transform="translate(244,229)"/>
<path d="M0 0 C1.65 0 3.3 0 5 0 C4.319375 0.61875 4.319375 0.61875 3.625 1.25 C1.94049626 3.06408095 1.00734029 4.75285627 0 7 C-0.93423645 3.98968256 -1.04449911 3.13349732 0 0 Z " fill="#C31622" transform="translate(232,231)"/>
</svg>
