<?xml version="1.0" standalone="no"?>
<!DOCTYPE svg PUBLIC "-//W3C//DTD SVG 20010904//EN"
 "http://www.w3.org/TR/2001/REC-SVG-20010904/DTD/svg10.dtd">
<svg version="1.0" xmlns="http://www.w3.org/2000/svg"
 width="199.000000pt" height="131.000000pt" viewBox="0 0 199.000000 131.000000"
 preserveAspectRatio="xMidYMid meet">
<metadata>
Created by potrace 1.16, written by Peter Selinger 2001-2019
</metadata>
<g transform="translate(0.000000,131.000000) scale(0.100000,-0.100000)"
fill="#000000" stroke="none">
<path d="M895 943 c-44 -46 -84 -83 -88 -83 -5 0 -32 22 -60 49 -87 83 -111
101 -135 101 -22 0 -22 -1 -6 -25 15 -23 26 -29 46 -26 5 0 7 -3 5 -7 -1 -5
27 -36 62 -69 l65 -61 -97 -96 c-94 -93 -96 -96 -66 -96 29 0 77 42 167 146
26 30 14 36 112 -56 77 -73 102 -89 124 -81 16 6 12 13 -30 53 -27 26 -67 61
-89 78 -62 49 -63 55 -9 113 27 29 65 68 86 87 43 41 48 55 16 56 -16 1 -48
-25 -103 -83z"/>
<path d="M305 218 c-65 -38 -70 -113 -9 -153 61 -40 154 5 154 75 0 66 -86
112 -145 78z"/>
<path d="M478 223 c16 -6 17 -144 0 -161 -9 -9 -5 -12 21 -12 29 0 31 1 17 16
-11 10 -16 34 -16 70 0 30 2 54 5 54 2 0 20 -32 38 -71 l33 -72 36 74 36 74 1
-60 c1 -35 -4 -66 -11 -73 -9 -9 -3 -12 30 -12 39 0 42 2 32 19 -5 11 -10 47
-10 80 0 47 4 62 18 70 14 8 10 10 -21 11 -37 0 -39 -2 -66 -62 l-29 -63 -27
63 c-27 60 -29 62 -64 61 -20 0 -30 -3 -23 -6z"/>
<path d="M743 219 c23 -14 25 -130 1 -153 -14 -15 -12 -16 17 -16 26 0 30 3
21 12 -7 7 -12 38 -11 72 l0 61 31 -68 c17 -37 35 -66 40 -65 6 2 22 32 36 66
15 34 30 62 35 62 4 0 7 -27 7 -60 0 -46 -4 -61 -17 -69 -14 -8 -7 -10 32 -11
38 0 46 3 37 12 -16 16 -16 140 0 156 9 9 4 12 -24 12 -34 0 -37 -3 -59 -55
-13 -30 -27 -55 -31 -55 -4 0 -19 25 -33 55 -24 53 -26 55 -62 55 -31 -1 -35
-3 -20 -11z"/>
<path d="M1567 210 c-64 -50 -26 -159 56 -160 91 -1 141 94 81 154 -34 33 -98
36 -137 6z"/>
</g>
</svg>
