<?xml version="1.0" standalone="no"?>
<!DOCTYPE svg PUBLIC "-//W3C//DTD SVG 20010904//EN"
 "http://www.w3.org/TR/2001/REC-SVG-20010904/DTD/svg10.dtd">
<svg version="1.0" xmlns="http://www.w3.org/2000/svg"
 width="600.000000pt" height="56.000000pt" viewBox="0 0 600.000000 56.000000"
 preserveAspectRatio="xMidYMid meet">
<metadata>
Created by potrace 1.16, written by Peter Selinger 2001-2019
</metadata>
<g transform="translate(0.000000,56.000000) scale(0.100000,-0.100000)"
fill="#000000" stroke="none">
<path d="M168 486 c-10 -7 -18 -17 -18 -21 0 -4 -6 -21 -14 -38 -55 -120 -136
-322 -136 -337 0 -9 9 -29 21 -44 l20 -26 169 0 c182 0 193 3 206 56 6 24 -11
75 -72 209 -52 117 -64 144 -64 150 0 4 -9 20 -21 36 -22 32 -61 38 -91 15z"/>
<path d="M1472 352 c-9 -7 -12 -45 -10 -158 3 -132 5 -149 21 -152 15 -3 17 8
17 114 0 65 3 114 7 110 4 -3 26 -55 49 -114 57 -144 68 -146 123 -13 22 55
41 105 41 110 0 6 5 11 10 11 6 0 10 -44 10 -111 0 -100 2 -110 18 -107 15 3
17 19 17 158 l0 155 -24 0 c-21 0 -29 -14 -72 -119 -27 -66 -52 -122 -54 -125
-9 -8 -14 3 -62 120 -51 126 -61 140 -91 121z"/>
<path d="M1905 354 c-6 -2 -9 -63 -8 -156 l1 -153 97 -3 c88 -2 96 -1 93 15
-3 15 -15 18 -76 21 l-72 3 0 49 0 49 68 3 c52 2 67 6 67 18 0 12 -15 16 -67
18 l-68 3 0 49 0 49 73 3 c56 2 72 6 72 18 0 12 -17 15 -85 17 -47 1 -89 0
-95 -3z"/>
<path d="M2215 348 c-3 -8 -4 -79 -3 -158 l3 -145 67 -3 c120 -5 178 46 178
158 0 65 -24 116 -64 137 -43 22 -174 31 -181 11z m168 -49 c52 -40 56 -150 7
-194 -20 -18 -104 -35 -128 -27 -13 4 -18 223 -5 235 15 16 101 7 126 -14z"/>
<path d="M2585 350 c-12 -19 6 -30 50 -30 l44 0 3 -137 c3 -115 6 -138 18
-138 12 0 15 23 18 138 l3 137 50 0 c43 0 50 3 47 18 -3 15 -18 17 -115 20
-69 2 -114 -1 -118 -8z"/>
<path d="M2944 347 c-2 -7 -3 -78 -2 -157 3 -129 5 -145 21 -148 15 -3 17 5
17 57 l0 61 39 0 c38 0 41 -2 73 -60 21 -38 39 -60 50 -60 25 0 23 13 -12 76
-27 50 -28 54 -11 63 29 16 46 67 35 109 -7 28 -18 41 -44 54 -43 22 -158 25
-166 5z m158 -44 c24 -21 23 -58 -3 -84 -16 -16 -30 -19 -67 -17 l-47 3 -3 58
-3 57 52 0 c35 0 59 -6 71 -17z"/>
<path d="M3365 350 c-75 -30 -107 -148 -65 -235 24 -50 65 -75 122 -75 85 0
138 61 138 160 0 64 -24 116 -64 141 -32 20 -96 24 -131 9z m89 -34 c49 -20
66 -51 66 -117 0 -47 -5 -63 -25 -87 -33 -39 -74 -48 -115 -27 -80 41 -78 195
2 230 41 18 33 17 72 1z"/>
<path d="M3684 347 c-2 -7 -3 -78 -2 -157 3 -129 5 -145 21 -148 15 -3 17 7
17 112 0 64 4 116 9 116 5 0 46 -52 91 -116 111 -157 115 -155 115 46 0 131
-2 155 -15 155 -12 0 -16 -22 -20 -120 l-5 -120 -49 70 c-98 140 -127 175
-142 175 -8 0 -17 -6 -20 -13z"/>
<path d="M4292 345 c-63 -27 -93 -153 -55 -232 43 -92 193 -100 238 -13 14 28
14 31 -1 37 -11 4 -24 -4 -40 -25 -42 -54 -117 -49 -158 10 -21 29 -21 110 0
149 32 64 113 70 161 12 13 -17 27 -24 37 -20 15 6 15 9 2 35 -28 55 -115 77
-184 47z"/>
<path d="M5840 348 c-72 -19 -103 -93 -57 -136 12 -12 50 -30 82 -40 65 -19
82 -45 49 -69 -27 -20 -52 -16 -80 12 -14 14 -36 25 -49 25 -37 0 -33 -41 7
-75 29 -24 38 -27 95 -23 78 5 113 32 113 88 0 47 -28 73 -103 94 -63 18 -82
41 -52 62 26 19 52 17 75 -6 21 -21 65 -27 75 -10 8 13 -31 68 -53 73 -45 13
-70 14 -102 5z"/>
<path d="M4740 195 l0 -155 95 0 95 0 0 30 c0 29 -1 29 -62 32 l-63 3 -3 123
-3 122 -29 0 -30 0 0 -155z"/>
<path d="M5126 318 c-8 -18 -33 -86 -55 -151 -43 -125 -42 -133 10 -125 16 2
25 13 31 36 8 31 10 32 63 32 53 0 55 -1 69 -35 13 -29 20 -35 45 -35 41 0 40
6 -18 170 l-47 135 -42 3 c-40 3 -43 1 -56 -30z"/>
<path d="M5420 195 l0 -155 80 0 c86 0 131 15 150 49 17 32 11 68 -14 92 -23
22 -24 25 -9 42 26 28 21 76 -11 104 -24 20 -37 23 -112 23 l-84 0 0 -155z"/>
</g>
</svg>
