<svg version="1.1" id="Layer_1" xmlns="http://www.w3.org/2000/svg" xmlns:xlink="http://www.w3.org/1999/xlink" x="0px" y="0px"
	 width="100%" viewBox="0 0 225 225" enable-background="new 0 0 225 225" xml:space="preserve">
<path fill="#FFFEFD" opacity="1.000000" stroke="none" 
	d="
M131.000000,226.000000 
	C87.333336,226.000000 44.166672,226.000000 1.000006,226.000000 
	C1.000004,151.000000 1.000004,76.000015 1.000002,1.000016 
	C75.999992,1.000011 150.999985,1.000011 225.999969,1.000005 
	C225.999985,75.999985 225.999985,150.999969 226.000000,225.999969 
	C194.500000,226.000000 163.000000,226.000000 131.000000,226.000000 
M80.065727,210.670914 
	C83.056892,211.021027 86.433853,210.596756 88.969963,211.860260 
	C98.144554,216.431122 107.878944,217.907394 117.864059,217.687515 
	C128.762894,217.447495 138.246689,210.678635 149.191589,210.284988 
	C149.352524,210.279190 149.537445,210.231277 149.666092,210.139679 
	C154.984665,206.352173 161.515091,204.771713 166.872742,201.563873 
	C171.833939,198.593414 176.965652,195.114517 181.379028,191.354156 
	C186.044693,187.378830 190.581665,182.715759 194.492615,178.030838 
	C198.285660,173.487122 201.896805,168.268829 204.886826,163.113846 
	C207.960144,157.815292 210.342712,151.819458 212.738098,146.102005 
	C215.019440,140.656769 216.315369,134.359177 217.468475,128.500107 
	C218.645737,122.518318 219.015091,115.948853 219.085983,109.806068 
	C219.156433,103.701202 218.584564,97.131287 217.476624,91.122490 
	C216.396301,85.263550 214.980255,78.990379 212.740646,73.495697 
	C210.408264,67.773445 207.924637,61.840122 204.917206,56.503143 
	C201.998444,51.323536 198.312134,46.137070 194.547729,41.566734 
	C190.674377,36.864109 186.068039,32.212261 181.385254,28.260303 
	C176.837875,24.422625 171.675064,20.607956 166.519653,17.800959 
	C161.274506,14.945102 155.665680,12.087528 150.064255,9.964876 
	C144.617661,7.900898 138.606857,6.710650 132.877167,5.291435 
	C126.991127,3.833493 120.303520,3.539679 114.256004,3.555604 
	C107.857056,3.572454 100.837143,3.757860 94.657211,5.387121 
	C89.233406,6.817036 83.495346,7.783254 78.409889,9.752521 
	C72.503700,12.039603 66.494781,14.872251 61.014465,18.021400 
	C56.167595,20.806564 51.340523,24.398695 47.008091,27.945265 
	C42.042671,32.010002 37.089302,36.866814 33.164558,41.911419 
	C29.601973,46.490528 25.645983,51.336823 23.089899,56.424397 
	C20.236462,62.103817 17.010714,67.912117 15.071472,73.868584 
	C13.253423,79.452812 11.467110,85.379028 10.511460,91.100334 
	C9.497552,97.170410 9.021211,103.652351 8.901785,109.825218 
	C8.786570,115.780472 9.525421,122.142082 10.471869,128.056549 
	C11.438737,134.098648 13.257969,140.376236 15.235127,146.246765 
	C17.131548,151.877563 20.147812,157.442093 22.916143,162.763245 
	C25.705885,168.125534 29.614262,173.469070 33.528206,178.108078 
	C37.459297,182.767380 41.914745,187.568359 46.641174,191.402939 
	C51.156094,195.065903 56.099552,199.037521 61.148247,201.534012 
	C67.143333,204.498505 73.258263,207.444748 80.065727,210.670914 
z"/>
<path fill="#FE8C02" opacity="1.000000" stroke="none" 
	d="
M79.683762,210.556015 
	C73.258263,207.444748 67.143333,204.498505 61.148247,201.534012 
	C56.099552,199.037521 51.156094,195.065903 46.641174,191.402939 
	C41.914745,187.568359 37.459297,182.767380 33.528206,178.108078 
	C29.614262,173.469070 25.705885,168.125534 22.916143,162.763245 
	C20.147812,157.442093 17.131548,151.877563 15.235127,146.246765 
	C13.257969,140.376236 11.438737,134.098648 10.471869,128.056549 
	C9.525421,122.142082 8.786570,115.780472 8.901785,109.825218 
	C9.021211,103.652351 9.497552,97.170410 10.511460,91.100334 
	C11.467110,85.379028 13.253423,79.452812 15.071472,73.868584 
	C17.010714,67.912117 20.236462,62.103817 23.089899,56.424397 
	C25.645983,51.336823 29.601973,46.490528 33.164558,41.911419 
	C37.089302,36.866814 42.042671,32.010002 47.008091,27.945265 
	C51.340523,24.398695 56.167595,20.806564 61.014465,18.021400 
	C66.494781,14.872251 72.503700,12.039603 78.409889,9.752521 
	C83.495346,7.783254 89.233406,6.817036 94.657211,5.387121 
	C100.837143,3.757860 107.857056,3.572454 114.256004,3.555604 
	C120.303520,3.539679 126.991127,3.833493 132.877167,5.291435 
	C138.606857,6.710650 144.617661,7.900898 150.064255,9.964876 
	C155.665680,12.087528 161.274506,14.945102 166.519653,17.800959 
	C171.675064,20.607956 176.837875,24.422625 181.385254,28.260303 
	C186.068039,32.212261 190.674377,36.864109 194.547729,41.566734 
	C198.312134,46.137070 201.998444,51.323536 204.917206,56.503143 
	C207.924637,61.840122 210.408264,67.773445 212.740646,73.495697 
	C214.980255,78.990379 216.396301,85.263550 217.476624,91.122490 
	C218.584564,97.131287 219.156433,103.701202 219.085983,109.806068 
	C219.015091,115.948853 218.645737,122.518318 217.468475,128.500107 
	C216.315369,134.359177 215.019440,140.656769 212.738098,146.102005 
	C210.342712,151.819458 207.960144,157.815292 204.886826,163.113846 
	C201.896805,168.268829 198.285660,173.487122 194.492615,178.030838 
	C190.581665,182.715759 186.044693,187.378830 181.379028,191.354156 
	C176.965652,195.114517 171.833939,198.593414 166.872742,201.563873 
	C161.515091,204.771713 154.984665,206.352173 149.666092,210.139679 
	C149.537445,210.231277 149.352524,210.279190 149.191589,210.284988 
	C138.246689,210.678635 128.762894,217.447495 117.864059,217.687515 
	C107.878944,217.907394 98.144554,216.431122 88.969963,211.860260 
	C86.433853,210.596756 83.056892,211.021027 79.683762,210.556015 
M78.040184,135.340775 
	C78.324303,136.224533 78.608414,137.108276 79.121040,138.666916 
	C79.809845,140.654938 80.498650,142.642944 80.840309,145.268112 
	C80.462158,145.561539 80.084007,145.854950 79.130730,145.741104 
	C77.636368,141.610550 76.142006,137.480011 74.519089,132.994125 
	C73.838242,133.875565 73.064156,134.433929 73.132500,134.855820 
	C74.158546,141.189468 74.131332,148.014740 76.631378,153.726624 
	C83.321739,169.012146 101.839874,177.935654 119.971764,175.782074 
	C137.849411,173.658691 151.834015,162.793823 155.115646,147.302200 
	C156.132828,142.500397 154.524536,137.142426 153.530930,132.429871 
	C153.375580,133.338715 153.220230,134.247543 153.139786,135.589203 
	C153.139786,135.589203 152.974716,135.996246 152.192078,135.997223 
	C151.669907,135.969376 151.147751,135.941528 150.629868,135.106827 
	C150.696457,133.236938 150.763046,131.367065 150.823563,128.916214 
	C150.599045,128.614700 150.374527,128.313187 149.907227,127.742599 
	C149.907227,127.742599 149.866104,127.382523 149.678268,126.757294 
	C149.310135,126.552589 148.942001,126.347885 147.943695,126.081612 
	C146.961304,125.703979 145.978897,125.326347 144.442703,124.404945 
	C143.413651,124.356781 142.384583,124.308617 140.654449,124.534187 
	C138.097427,124.602844 135.540421,124.671494 132.768478,124.347321 
	C132.536713,123.813011 132.304932,123.278709 132.761246,122.423111 
	C133.514023,122.347473 134.266785,122.271835 135.421906,122.615150 
	C136.276459,122.461342 137.131012,122.307533 138.892685,122.019867 
	C142.220474,122.019867 145.548264,122.019867 148.876068,122.019867 
	C149.029816,121.533241 149.183563,121.046616 149.337311,120.559990 
	C146.550873,118.047417 143.971451,115.246796 140.943359,113.070480 
	C124.996849,101.609581 98.714088,101.096474 80.665588,119.286217 
	C80.262001,120.332649 79.858406,121.379082 79.454819,122.425522 
	C80.295456,122.349411 81.136101,122.273308 82.825600,122.031807 
	C86.560608,122.104279 90.295624,122.176750 94.560341,122.719460 
	C95.502472,122.765839 96.444603,122.812218 98.105507,122.738396 
	C99.066666,122.859245 100.027824,122.980095 101.006035,123.826797 
	C101.011292,124.311256 101.016548,124.795715 100.254837,125.277771 
	C99.499718,125.148071 98.744598,125.018372 97.636337,124.454788 
	C96.782738,124.492470 95.929131,124.530144 94.326073,124.664581 
	C89.022202,124.999275 83.363953,123.701561 78.405739,128.454163 
	C78.323685,129.119949 78.241631,129.785736 78.331627,131.130661 
	C78.269218,132.287811 78.206810,133.444946 78.040184,135.340775 
M178.115952,164.656815 
	C185.693802,164.999741 192.749680,160.184616 195.678482,151.963486 
	C198.526596,143.968887 198.588333,135.621323 196.147217,127.554794 
	C193.356308,118.332375 186.983032,113.568893 177.526306,112.569519 
	C177.313217,111.260849 177.100128,109.952187 177.206314,108.058563 
	C178.314133,105.380371 180.493759,102.630211 180.319702,100.038086 
	C179.877625,93.454391 179.163406,86.692596 177.174057,80.442650 
	C167.814178,51.036633 140.811172,32.634613 110.041878,34.143658 
	C81.279266,35.554287 55.467419,57.839752 49.455727,87.097687 
	C47.902115,94.658836 45.333206,102.937500 52.499557,109.604073 
	C52.735268,109.823334 52.496948,110.552162 52.128139,111.460953 
	C51.696362,112.008629 51.264584,112.556313 50.021786,113.056931 
	C42.622799,113.004921 37.064930,116.519730 33.837692,122.842880 
	C28.454348,133.390472 28.471395,144.371689 33.639477,155.015015 
	C36.986958,161.908936 43.884468,165.381729 51.115894,164.369247 
	C51.115894,147.641281 51.115894,130.837616 51.599560,114.037689 
	C51.918831,114.092720 52.240292,114.112915 52.730984,115.007484 
	C52.714149,131.334152 52.697315,147.660828 52.418385,164.277679 
	C52.660145,164.494873 52.901905,164.712067 53.997074,164.978714 
	C56.703220,165.469452 59.406017,166.296631 62.116776,166.323578 
	C63.719582,166.339508 66.267326,165.485138 66.756821,164.330002 
	C67.887192,161.662506 68.439896,158.579926 68.486992,155.653793 
	C68.669113,144.338882 68.460831,133.017990 68.609116,121.702080 
	C68.671471,116.943459 67.302132,113.558784 61.319363,112.643150 
	C62.139900,110.775146 62.849907,109.273422 63.464943,107.733757 
	C64.604599,104.880783 66.521568,102.046585 66.664886,99.133247 
	C67.865326,74.731522 86.239601,54.800568 109.569649,53.003281 
	C135.208832,51.028103 156.489395,67.520248 161.240234,92.838676 
	C162.306152,98.519249 160.862534,104.997185 166.128128,109.541824 
	C166.612549,109.959915 166.192612,111.425827 166.192612,112.676208 
	C160.241440,113.258331 158.961899,117.033325 159.093338,122.428413 
	C159.368896,133.739532 159.113510,145.062683 159.226517,156.379395 
	C159.250977,158.828979 159.395126,161.531662 160.453186,163.628876 
	C161.180679,165.070908 163.585907,166.484879 165.233170,166.475616 
	C168.756241,166.455811 172.274078,165.504410 176.271667,164.843048 
	C176.691711,164.599609 177.111771,164.356171 178.115952,164.656815 
z"/>
<path fill="#FEFDFB" opacity="1.000000" stroke="none" 
	d="
M52.680477,163.987503 
	C52.697315,147.660828 52.714149,131.334152 52.745777,114.174210 
	C52.666912,112.575104 52.573254,111.809288 52.479599,111.043465 
	C52.496948,110.552162 52.735268,109.823334 52.499557,109.604073 
	C45.333206,102.937500 47.902115,94.658836 49.455727,87.097687 
	C55.467419,57.839752 81.279266,35.554287 110.041878,34.143658 
	C140.811172,32.634613 167.814178,51.036633 177.174057,80.442650 
	C179.163406,86.692596 179.877625,93.454391 180.319702,100.038086 
	C180.493759,102.630211 178.314133,105.380371 176.709930,108.650772 
	C176.130600,111.225151 175.983719,113.207031 175.974792,115.189537 
	C175.900177,131.771164 175.850952,148.352890 175.794052,164.934601 
	C172.274078,165.504410 168.756241,166.455811 165.233170,166.475616 
	C163.585907,166.484879 161.180679,165.070908 160.453186,163.628876 
	C159.395126,161.531662 159.250977,158.828979 159.226517,156.379395 
	C159.113510,145.062683 159.368896,133.739532 159.093338,122.428413 
	C158.961899,117.033325 160.241440,113.258331 166.192612,112.676208 
	C166.192612,111.425827 166.612549,109.959915 166.128128,109.541824 
	C160.862534,104.997185 162.306152,98.519249 161.240234,92.838676 
	C156.489395,67.520248 135.208832,51.028103 109.569649,53.003281 
	C86.239601,54.800568 67.865326,74.731522 66.664886,99.133247 
	C66.521568,102.046585 64.604599,104.880783 63.464943,107.733757 
	C62.849907,109.273422 62.139900,110.775146 61.319363,112.643150 
	C67.302132,113.558784 68.671471,116.943459 68.609116,121.702080 
	C68.460831,133.017990 68.669113,144.338882 68.486992,155.653793 
	C68.439896,158.579926 67.887192,161.662506 66.756821,164.330002 
	C66.267326,165.485138 63.719582,166.339508 62.116776,166.323578 
	C59.406017,166.296631 56.703220,165.469452 53.483749,164.704193 
	C52.873775,164.282257 52.777126,164.134872 52.680477,163.987503 
z"/>
<path fill="#FEFDF9" opacity="1.000000" stroke="none" 
	d="
M154.118256,132.039093 
	C154.524536,137.142426 156.132828,142.500397 155.115646,147.302200 
	C151.834015,162.793823 137.849411,173.658691 119.971764,175.782074 
	C101.839874,177.935654 83.321739,169.012146 76.631378,153.726624 
	C74.131332,148.014740 74.158546,141.189468 73.132500,134.855820 
	C73.064156,134.433929 73.838242,133.875565 74.519089,132.994125 
	C76.142006,137.480011 77.636368,141.610550 79.562889,146.267685 
	C84.107094,151.550491 89.713821,151.194885 95.167542,151.097198 
	C102.402992,150.967575 106.541725,147.920670 108.936836,141.116776 
	C109.755539,138.791046 110.316078,136.374435 111.173080,133.757233 
	C111.903885,132.683060 112.456184,131.851028 113.382523,131.009842 
	C114.502220,131.008133 115.247864,131.015610 116.169724,131.267181 
	C116.907188,132.341507 117.468437,133.171722 118.017845,134.323395 
	C118.295464,135.198471 118.584938,135.752121 118.857498,136.491943 
	C118.840591,136.678131 119.030258,137.000351 119.007492,137.322678 
	C119.328094,138.417389 119.671463,139.189789 120.012573,140.292313 
	C120.385612,141.408630 120.760910,142.194794 121.163406,143.321411 
	C126.790970,152.696747 142.392166,154.235077 149.420715,146.195526 
	C150.667053,143.364166 151.610046,140.752777 152.708267,137.904022 
	C152.900574,137.109848 152.937653,136.553055 152.974716,135.996246 
	C152.974716,135.996246 153.139786,135.589203 153.294785,135.099060 
	C153.672607,133.752319 153.895432,132.895706 154.118256,132.039093 
z"/>
<path fill="#FEFDFA" opacity="1.000000" stroke="none" 
	d="
M100.988983,123.100952 
	C100.027824,122.980095 99.066666,122.859245 97.449951,122.606491 
	C95.873138,122.399475 94.951889,122.324348 94.030632,122.249222 
	C90.295624,122.176750 86.560608,122.104279 82.065315,122.062302 
	C81.322609,121.103798 81.340179,120.114784 81.357750,119.125778 
	C98.714088,101.096474 124.996849,101.609581 140.943359,113.070480 
	C143.971451,115.246796 146.550873,118.047417 149.337311,120.559990 
	C149.183563,121.046616 149.029816,121.533241 148.876068,122.019867 
	C145.548264,122.019867 142.220474,122.019867 138.070389,122.016815 
	C136.505249,122.074570 135.762405,122.135391 135.019562,122.196205 
	C134.266785,122.271835 133.514023,122.347473 132.158508,122.480942 
	C131.036880,122.692963 130.517990,122.847153 129.661438,122.962990 
	C128.879364,122.996796 128.434937,123.068954 127.658493,123.104568 
	C126.724220,123.321465 126.121964,123.574905 125.152206,123.811920 
	C122.181343,124.596634 119.577988,125.397781 116.550133,126.151276 
	C114.418060,126.080452 112.710487,126.057266 110.841484,125.938980 
	C110.680061,125.843864 110.307495,125.883888 110.146828,125.687378 
	C109.664963,125.412262 109.343765,125.333656 108.743347,125.111221 
	C107.845634,124.905838 107.227142,124.844299 106.410835,124.534927 
	C105.809311,124.209816 105.405594,124.132530 104.700417,123.932770 
	C103.968239,123.767365 103.537521,123.724426 102.902588,123.472969 
	C102.128563,123.209953 101.558777,123.155457 100.988983,123.100952 
z"/>
<path fill="#FEFDFA" opacity="1.000000" stroke="none" 
	d="
M51.115894,114.033958 
	C51.115894,130.837616 51.115894,147.641281 51.115894,164.369247 
	C43.884468,165.381729 36.986958,161.908936 33.639477,155.015015 
	C28.471395,144.371689 28.454348,133.390472 33.837692,122.842880 
	C37.064930,116.519730 42.622799,113.004921 50.470062,113.321510 
	C50.918343,113.586090 51.115894,114.033958 51.115894,114.033958 
z"/>
<path fill="#FFFEFC" opacity="1.000000" stroke="none" 
	d="
M178.142227,113.069923 
	C186.983032,113.568893 193.356308,118.332375 196.147217,127.554794 
	C198.588333,135.621323 198.526596,143.968887 195.678482,151.963486 
	C192.749680,160.184616 185.693802,164.999741 177.889709,163.911713 
	C177.604507,147.409119 177.545563,131.651627 177.566895,115.698341 
	C177.647156,115.502548 177.416428,115.147774 177.527191,114.797943 
	C177.806030,113.988716 177.974136,113.529320 178.142227,113.069923 
z"/>
<path fill="#FEFDF9" opacity="1.000000" stroke="none" 
	d="
M144.996506,124.948715 
	C145.978897,125.326347 146.961304,125.703979 148.401947,126.386612 
	C149.195496,126.921913 149.530807,127.152222 149.866104,127.382523 
	C149.866104,127.382523 149.907227,127.742599 150.040634,128.164520 
	C150.392578,128.890030 150.611115,129.193604 150.829636,129.497177 
	C150.763046,131.367065 150.696457,133.236938 150.434174,135.718124 
	C150.198898,136.890137 150.159317,137.450836 150.018372,138.347778 
	C149.563095,140.024368 149.209152,141.364731 148.594086,142.944962 
	C142.918259,150.990967 130.222336,150.855820 123.251610,142.572998 
	C122.747612,141.148346 122.307777,140.069214 121.877304,138.680359 
	C121.669090,138.034515 121.451515,137.698395 121.280861,136.996567 
	C121.160339,135.415054 120.992889,134.199265 120.900833,132.591919 
	C120.998940,131.138138 121.021667,130.075897 121.289398,128.795654 
	C123.025909,127.677284 124.517426,126.776909 126.326004,125.911430 
	C127.205063,125.675446 127.767059,125.404572 128.611542,125.169037 
	C129.260574,125.114685 129.627090,125.024994 130.369919,124.992203 
	C131.491943,124.946106 132.237671,124.843124 132.983398,124.740143 
	C135.540421,124.671494 138.097427,124.602844 141.295090,124.657684 
	C142.955994,124.837029 143.976242,124.892876 144.996506,124.948715 
z"/>
<path fill="#FEFDFA" opacity="1.000000" stroke="none" 
	d="
M78.922394,128.008484 
	C83.363953,123.701561 89.022202,124.999275 95.042419,124.772980 
	C96.502335,124.883804 97.245903,124.886230 97.989479,124.888664 
	C98.744598,125.018372 99.499718,125.148071 100.842163,125.461349 
	C101.956978,125.726578 102.484467,125.808220 103.256279,125.999985 
	C105.002342,127.072334 106.504082,128.034561 107.985306,129.433075 
	C107.783913,136.572388 107.798820,143.764084 100.674812,147.046844 
	C94.052322,150.098511 87.145828,149.758026 81.187454,144.630966 
	C80.498650,142.642944 79.809845,140.654938 79.056725,137.976776 
	C78.709740,136.391785 78.427071,135.496933 78.144402,134.602097 
	C78.206810,133.444946 78.269218,132.287811 78.442322,130.524719 
	C78.676140,129.281998 78.799263,128.645248 78.922394,128.008484 
z"/>
<path fill="#F89014" opacity="1.000000" stroke="none" 
	d="
M81.013885,144.949539 
	C87.145828,149.758026 94.052322,150.098511 100.674812,147.046844 
	C107.798820,143.764084 107.783913,136.572388 108.257111,129.671219 
	C109.364464,130.981842 110.179512,132.490601 110.994568,133.999359 
	C110.316078,136.374435 109.755539,138.791046 108.936836,141.116776 
	C106.541725,147.920670 102.402992,150.967575 95.167542,151.097198 
	C89.713821,151.194885 84.107094,151.550491 79.850449,146.471313 
	C80.084007,145.854950 80.462158,145.561539 81.013885,144.949539 
z"/>
<path fill="#F08500" opacity="1.000000" stroke="none" 
	d="
M177.834259,112.819717 
	C177.974136,113.529320 177.806030,113.988716 177.455582,114.883598 
	C177.202896,115.557381 177.274033,115.749069 177.486633,115.894135 
	C177.545563,131.651627 177.604507,147.409119 177.597641,163.639664 
	C177.111771,164.356171 176.691711,164.599609 176.032867,164.888824 
	C175.850952,148.352890 175.900177,131.771164 175.974792,115.189537 
	C175.983719,113.207031 176.130600,111.225151 176.550293,108.943253 
	C177.100128,109.952187 177.313217,111.260849 177.834259,112.819717 
z"/>
<path fill="#F89014" opacity="1.000000" stroke="none" 
	d="
M81.011673,119.205994 
	C81.340179,120.114784 81.322609,121.103798 81.640884,122.145004 
	C81.136101,122.273308 80.295456,122.349411 79.454819,122.425522 
	C79.858406,121.379082 80.262001,120.332649 81.011673,119.205994 
z"/>
<path fill="#F89014" opacity="1.000000" stroke="none" 
	d="
M132.875946,124.543732 
	C132.237671,124.843124 131.491943,124.946106 130.375977,124.669891 
	C130.003525,123.860916 130.001312,123.431122 129.999084,123.001343 
	C130.517990,122.847153 131.036880,122.692963 131.814484,122.641586 
	C132.304932,123.278709 132.536713,123.813011 132.875946,124.543732 
z"/>
<path fill="#F89014" opacity="1.000000" stroke="none" 
	d="
M150.119736,138.011551 
	C150.159317,137.450836 150.198898,136.890137 150.432037,136.121552 
	C151.147751,135.941528 151.669907,135.969376 152.583405,135.996735 
	C152.937653,136.553055 152.900574,137.109848 152.303131,137.867645 
	C151.201736,138.049622 150.660736,138.030579 150.119736,138.011551 
z"/>
<path fill="#F89014" opacity="1.000000" stroke="none" 
	d="
M103.011948,125.889862 
	C102.484467,125.808220 101.956978,125.726578 101.225655,125.462555 
	C101.016548,124.795715 101.011292,124.311256 100.997513,123.463875 
	C101.558777,123.155457 102.128563,123.209953 102.870781,123.840263 
	C103.032784,124.907341 103.022369,125.398598 103.011948,125.889862 
z"/>
<path fill="#F79B34" opacity="1.000000" stroke="none" 
	d="
M51.357727,114.035828 
	C51.115894,114.033958 50.918343,113.586090 50.875572,113.345047 
	C51.264584,112.556313 51.696362,112.008629 52.303867,111.252213 
	C52.573254,111.809288 52.666912,112.575104 52.662254,113.719604 
	C52.240292,114.112915 51.918831,114.092720 51.357727,114.035828 
z"/>
<path fill="#F89014" opacity="1.000000" stroke="none" 
	d="
M94.295486,122.484344 
	C94.951889,122.324348 95.873138,122.399475 97.090561,122.666595 
	C96.444603,122.812218 95.502472,122.765839 94.295486,122.484344 
z"/>
<path fill="#F89014" opacity="1.000000" stroke="none" 
	d="
M144.719604,124.676834 
	C143.976242,124.892876 142.955994,124.837029 141.645630,124.520813 
	C142.384583,124.308617 143.413651,124.356781 144.719604,124.676834 
z"/>
<path fill="#F89014" opacity="1.000000" stroke="none" 
	d="
M135.220734,122.405678 
	C135.762405,122.135391 136.505249,122.074570 137.616821,122.083740 
	C137.131012,122.307533 136.276459,122.461342 135.220734,122.405678 
z"/>
<path fill="#F89014" opacity="1.000000" stroke="none" 
	d="
M153.824585,132.234482 
	C153.895432,132.895706 153.672607,133.752319 153.257324,134.882660 
	C153.220230,134.247543 153.375580,133.338715 153.824585,132.234482 
z"/>
<path fill="#F89014" opacity="1.000000" stroke="none" 
	d="
M97.812912,124.671722 
	C97.245903,124.886230 96.502335,124.883804 95.417145,124.724594 
	C95.929131,124.530144 96.782738,124.492470 97.812912,124.671722 
z"/>
<path fill="#F89014" opacity="1.000000" stroke="none" 
	d="
M78.092293,134.971436 
	C78.427071,135.496933 78.709740,136.391785 78.942474,137.639328 
	C78.608414,137.108276 78.324303,136.224533 78.092293,134.971436 
z"/>
<path fill="#F89014" opacity="1.000000" stroke="none" 
	d="
M78.664062,128.231323 
	C78.799263,128.645248 78.676140,129.281998 78.356293,130.185150 
	C78.241631,129.785736 78.323685,129.119949 78.664062,128.231323 
z"/>
<path fill="#F79B34" opacity="1.000000" stroke="none" 
	d="
M52.549431,164.132599 
	C52.777126,164.134872 52.873775,164.282257 53.057045,164.679459 
	C52.901905,164.712067 52.660145,164.494873 52.549431,164.132599 
z"/>
<path fill="#F89014" opacity="1.000000" stroke="none" 
	d="
M150.826599,129.206696 
	C150.611115,129.193604 150.392578,128.890030 150.162018,128.299072 
	C150.374527,128.313187 150.599045,128.614700 150.826599,129.206696 
z"/>
<path fill="#F89014" opacity="1.000000" stroke="none" 
	d="
M149.772186,127.069908 
	C149.530807,127.152222 149.195496,126.921913 148.717041,126.417389 
	C148.942001,126.347885 149.310135,126.552589 149.772186,127.069908 
z"/>
<path fill="#FE8C02" opacity="1.000000" stroke="none" 
	d="
M103.256279,125.999985 
	C103.022369,125.398598 103.032784,124.907341 103.075012,124.048782 
	C103.537521,123.724426 103.968239,123.767365 104.903580,124.169662 
	C105.808350,124.613594 106.208504,124.698174 106.608650,124.782761 
	C107.227142,124.844299 107.845634,124.905838 108.904785,125.305672 
	C109.666130,125.723938 109.986809,125.803917 110.307495,125.883896 
	C110.307495,125.883888 110.680061,125.843864 111.087982,126.203293 
	C113.322136,126.441467 115.148384,126.320198 116.974625,126.198929 
	C119.577988,125.397781 122.181343,124.596634 125.495178,123.858437 
	C126.800613,123.661293 127.395561,123.401207 127.990517,123.141113 
	C128.434937,123.068954 128.879364,122.996796 129.661438,122.962982 
	C130.001312,123.431122 130.003525,123.860916 129.999695,124.613007 
	C129.627090,125.024994 129.260574,125.114685 128.285614,125.130920 
	C127.121117,125.330498 126.565025,125.603516 126.008934,125.876534 
	C124.517426,126.776909 123.025909,127.677284 121.025040,128.989624 
	C120.618942,130.595566 120.722191,131.789505 120.825447,132.983459 
	C120.992889,134.199265 121.160339,135.415054 121.263916,137.309235 
	C121.422676,138.321762 121.645302,138.655930 121.867935,138.990097 
	C122.307777,140.069214 122.747612,141.148346 122.888626,142.595490 
	C122.105263,142.969315 121.620735,142.975143 121.136200,142.980972 
	C120.760910,142.194794 120.385612,141.408630 120.023460,139.959503 
	C119.701157,138.531158 119.365707,137.765762 119.030258,137.000351 
	C119.030258,137.000351 118.840591,136.678131 118.887695,136.161499 
	C118.633102,135.097229 118.331398,134.549591 118.029694,134.001953 
	C117.468437,133.171722 116.907188,132.341507 115.988922,131.013367 
	C114.757439,130.683319 113.882957,130.851166 113.008484,131.019012 
	C112.456184,131.851028 111.903885,132.683060 111.173080,133.757233 
	C110.179512,132.490601 109.364464,130.981842 108.277618,129.234940 
	C106.504082,128.034561 105.002342,127.072334 103.256279,125.999985 
z"/>
<path fill="#F89014" opacity="1.000000" stroke="none" 
	d="
M121.163406,143.321411 
	C121.620735,142.975143 122.105263,142.969315 122.952789,142.941010 
	C130.222336,150.855820 142.918259,150.990967 148.643524,143.407440 
	C149.008514,144.558533 149.062943,145.487015 149.117371,146.415512 
	C142.392166,154.235077 126.790970,152.696747 121.163406,143.321411 
z"/>
<path fill="#FE8C02" opacity="1.000000" stroke="none" 
	d="
M149.420715,146.195526 
	C149.062943,145.487015 149.008514,144.558533 148.904648,143.167557 
	C149.209152,141.364731 149.563095,140.024368 150.018372,138.347778 
	C150.660736,138.030579 151.201736,138.049622 152.147888,138.105011 
	C151.610046,140.752777 150.667053,143.364166 149.420715,146.195526 
z"/>
<path fill="#F89014" opacity="1.000000" stroke="none" 
	d="
M113.382523,131.009827 
	C113.882957,130.851166 114.757439,130.683319 115.812714,130.769272 
	C115.247864,131.015610 114.502220,131.008133 113.382523,131.009827 
z"/>
<path fill="#F89014" opacity="1.000000" stroke="none" 
	d="
M119.007492,137.322678 
	C119.365707,137.765762 119.701157,138.531158 120.025719,139.629364 
	C119.671463,139.189789 119.328094,138.417389 119.007492,137.322678 
z"/>
<path fill="#F89014" opacity="1.000000" stroke="none" 
	d="
M118.017853,134.323395 
	C118.331398,134.549591 118.633102,135.097229 118.904602,135.975327 
	C118.584938,135.752121 118.295464,135.198471 118.017853,134.323395 
z"/>
<path fill="#F89014" opacity="1.000000" stroke="none" 
	d="
M116.550133,126.151276 
	C115.148384,126.320198 113.322136,126.441467 111.249405,126.298409 
	C112.710487,126.057266 114.418060,126.080452 116.550133,126.151276 
z"/>
<path fill="#F89014" opacity="1.000000" stroke="none" 
	d="
M127.658493,123.104568 
	C127.395561,123.401207 126.800613,123.661293 125.862686,123.874863 
	C126.121964,123.574905 126.724220,123.321465 127.658493,123.104568 
z"/>
<path fill="#F89014" opacity="1.000000" stroke="none" 
	d="
M106.410835,124.534927 
	C106.208504,124.698174 105.808350,124.613594 105.205048,124.292130 
	C105.405594,124.132530 105.809311,124.209816 106.410835,124.534927 
z"/>
<path fill="#F89014" opacity="1.000000" stroke="none" 
	d="
M110.146828,125.687378 
	C109.986809,125.803917 109.666130,125.723938 109.184006,125.449509 
	C109.343765,125.333656 109.664963,125.412262 110.146828,125.687378 
z"/>
<path fill="#FE8C02" opacity="1.000000" stroke="none" 
	d="
M177.566895,115.698341 
	C177.274033,115.749069 177.202896,115.557381 177.344818,115.233429 
	C177.416428,115.147774 177.647156,115.502548 177.566895,115.698341 
z"/>
<path fill="#F89014" opacity="1.000000" stroke="none" 
	d="
M120.900833,132.591919 
	C120.722191,131.789505 120.618942,130.595566 120.780045,129.207642 
	C121.021667,130.075897 120.998940,131.138138 120.900833,132.591919 
z"/>
<path fill="#F89014" opacity="1.000000" stroke="none" 
	d="
M126.326004,125.911430 
	C126.565025,125.603516 127.121117,125.330498 128.003128,125.095581 
	C127.767059,125.404572 127.205063,125.675446 126.326004,125.911430 
z"/>
<path fill="#F89014" opacity="1.000000" stroke="none" 
	d="
M121.877304,138.680359 
	C121.645302,138.655930 121.422676,138.321762 121.216995,137.674927 
	C121.451515,137.698395 121.669090,138.034515 121.877304,138.680359 
z"/>
</svg>