<?xml version="1.0" encoding="UTF-8" standalone="no"?>
<svg
   version="1.1"
   id="Layer_1"
   x="0px"
   y="0px"
   width="225"
   viewBox="0 0 225 225"
   enable-background="new 0 0 225 225"
   xml:space="preserve"
   sodipodi:docname="bd9fe7c02035c2804b060f052861c46b.svg"
   height="225"
   xmlns:inkscape="http://www.inkscape.org/namespaces/inkscape"
   xmlns:sodipodi="http://sodipodi.sourceforge.net/DTD/sodipodi-0.dtd"
   xmlns="http://www.w3.org/2000/svg"
   xmlns:svg="http://www.w3.org/2000/svg"><defs
   id="defs85" /><sodipodi:namedview
   id="namedview83"
   pagecolor="#ffffff"
   bordercolor="#666666"
   borderopacity="1.0"
   inkscape:pageshadow="2"
   inkscape:pageopacity="0.0"
   inkscape:pagecheckerboard="0" />
<path
   fill="#fffefd"
   opacity="1"
   stroke="none"
   d="M 130,225 C 86.333334,225 43.16667,225 4e-6,225 2e-6,150 2e-6,75.00001 0,1.1e-5 74.99999,6e-6 149.99998,6e-6 224.99997,0 c 1e-5,74.99998 1e-5,149.99996 3e-5,224.99996 C 193.5,225 162,225 130,225 M 79.065725,209.6709 c 2.991165,0.35012 6.368126,-0.0742 8.904236,1.18935 9.174591,4.57086 18.908979,6.04713 28.894099,5.82725 10.89883,-0.24002 20.38263,-7.00887 31.32753,-7.40252 0.16093,-0.006 0.34585,-0.0537 0.4745,-0.14531 5.31857,-3.78751 11.849,-5.36797 17.20665,-8.57581 4.9612,-2.97046 10.09291,-6.44935 14.50629,-10.20971 4.66566,-3.97533 9.20263,-8.6384 13.11358,-13.32332 3.79305,-4.54372 7.40419,-9.76201 10.39422,-14.91699 3.07331,-5.29856 5.45588,-11.29439 7.85127,-17.01185 2.28134,-5.44523 3.57727,-11.74282 4.73037,-17.60189 1.17727,-5.98179 1.54662,-12.55126 1.61751,-18.69404 0.0704,-6.10487 -0.50142,-12.674778 -1.60936,-18.683575 -1.08032,-5.85894 -2.49637,-12.132111 -4.73597,-17.626793 -2.33239,-5.722252 -4.81601,-11.655575 -7.82344,-16.992554 -2.91877,-5.179607 -6.60508,-10.366073 -10.36948,-14.936409 -3.87335,-4.702625 -8.47969,-9.354473 -13.16248,-13.306431 -4.54738,-3.837678 -9.71019,-7.652347 -14.8656,-10.459344 -5.24514,-2.855857 -10.85397,-5.713431 -16.4554,-7.836083 C 143.61766,6.900893 137.60686,5.710645 131.87717,4.29143 125.99113,2.833488 119.30352,2.539674 113.256,2.555599 c -6.39894,0.01685 -13.418862,0.202256 -19.598791,1.831517 -5.423805,1.429915 -11.161865,2.396133 -16.247322,4.3654 -5.906189,2.287082 -11.915108,5.11973 -17.395424,8.268879 -4.84687,2.785164 -9.673942,6.377295 -14.006374,9.923865 -4.96542,4.064737 -9.918789,8.921549 -13.843533,13.966154 -3.562585,4.579109 -7.518575,9.425404 -10.074659,14.512978 -2.853437,5.67942 -6.079185,11.48772 -8.018427,17.444187 -1.818049,5.584228 -3.604362,11.510444 -4.560012,17.23175 -1.013908,6.070076 -1.490249,12.552011 -1.609675,18.724891 -0.115215,5.95525 0.623636,12.31686 1.570084,18.23133 0.966868,6.0421 2.7861,12.31969 4.763258,18.19021 1.896421,5.6308 4.912685,11.19533 7.681016,16.51648 2.789742,5.36229 6.698119,10.70583 10.612063,15.34484 3.931091,4.6593 8.386539,9.46028 13.112968,13.29486 4.51492,3.66296 9.458378,7.63458 14.507073,10.13107 5.995086,2.96449 12.110016,5.91074 18.91748,9.13689 z"
   id="path2" />
<path
   fill="#fe8c02"
   opacity="1"
   stroke="none"
   d="m 78.68376,209.556 c -6.425499,-3.11126 -12.540429,-6.05751 -18.535515,-9.022 -5.048695,-2.49648 -9.992153,-6.46811 -14.507073,-10.13106 -4.726429,-3.83458 -9.181877,-8.63556 -13.112968,-13.29486 -3.913944,-4.63902 -7.822321,-9.98256 -10.612063,-15.34485 -2.768331,-5.32114 -5.784595,-10.88568 -7.681016,-16.51648 -1.977158,-5.87052 -3.79639,-12.14811 -4.763258,-18.19021 -0.946448,-5.91447 -1.685299,-12.27608 -1.570084,-18.23133 0.119426,-6.17287 0.595767,-12.654805 1.609675,-18.724881 0.95565,-5.721306 2.741963,-11.647522 4.560012,-17.23175 1.939242,-5.956467 5.16499,-11.764767 8.018427,-17.444187 2.556084,-5.087574 6.512074,-9.933869 10.074659,-14.512978 3.924744,-5.044605 8.878113,-9.901417 13.843533,-13.966154 4.332432,-3.54657 9.159504,-7.138701 14.006374,-9.923865 5.480316,-3.149149 11.489235,-5.981797 17.395424,-8.268879 5.085457,-1.969267 10.823517,-2.935485 16.247322,-4.3654 6.179929,-1.629261 13.199851,-1.814667 19.598791,-1.831517 6.04752,-0.015925 12.73513,0.277889 18.62117,1.735831 5.72969,1.419215 11.74049,2.609463 17.18708,4.673441 5.60143,2.122652 11.21026,4.980226 16.4554,7.836083 5.15541,2.806997 10.31822,6.621666 14.8656,10.459344 4.68279,3.951958 9.28913,8.603806 13.16248,13.306431 3.7644,4.570336 7.45071,9.756802 10.36948,14.936409 3.00743,5.336979 5.49105,11.270302 7.82344,16.992554 2.2396,5.494682 3.65565,11.767853 4.73597,17.626793 1.10794,6.008797 1.67981,12.578715 1.60936,18.683585 -0.0709,6.14278 -0.44024,12.71225 -1.61751,18.69404 -1.1531,5.85907 -2.44903,12.15665 -4.73037,17.60189 -2.39539,5.71745 -4.77796,11.71329 -7.85127,17.01185 -2.99003,5.15498 -6.60117,10.37327 -10.39422,14.91699 -3.91095,4.68492 -8.44792,9.34799 -13.11358,13.32332 -4.41338,3.76035 -9.54509,7.23925 -14.50629,10.20971 -5.35765,3.20784 -11.88808,4.7883 -17.20665,8.5758 -0.12865,0.0916 -0.31357,0.13951 -0.4745,0.14531 -10.9449,0.39366 -20.4287,7.1625 -31.32753,7.40253 -9.98512,0.21987 -19.719508,-1.2564 -28.894099,-5.82725 -2.53611,-1.2635 -5.913071,-0.83923 -9.286201,-1.30425 m -1.643578,-75.21524 c 0.284119,0.88376 0.56823,1.76751 1.080856,3.32615 0.688805,1.98802 1.37761,3.97602 1.719269,6.60119 -0.378151,0.29343 -0.756302,0.58684 -1.709579,0.47299 -1.494362,-4.13055 -2.988724,-8.26109 -4.611641,-12.74698 -0.680847,0.88144 -1.454933,1.43981 -1.386589,1.8617 1.026046,6.33365 0.998832,13.15892 3.498878,18.8708 6.690361,15.28553 25.208494,24.20903 43.340384,22.05545 17.87765,-2.12338 31.86225,-12.98825 35.14389,-28.47987 1.01718,-4.8018 -0.59111,-10.15977 -1.58472,-14.87233 -0.15535,0.90884 -0.3107,1.81767 -0.39114,3.15933 0,0 -0.16507,0.40705 -0.94771,0.40802 -0.52217,-0.0278 -1.04433,-0.0557 -1.56221,-0.89039 0.0666,-1.86989 0.13318,-3.73977 0.19369,-6.19062 -0.22452,-0.30151 -0.44903,-0.60302 -0.91633,-1.17361 0,0 -0.0411,-0.36008 -0.22896,-0.98531 -0.36814,-0.2047 -0.73627,-0.4094 -1.73458,-0.67568 -0.98239,-0.37763 -1.96479,-0.75526 -3.50099,-1.67667 -1.02905,-0.0482 -2.05812,-0.0963 -3.78825,0.12925 -2.55702,0.0687 -5.11403,0.1373 -7.88597,-0.18687 -0.23177,-0.53431 -0.46355,-1.06861 -0.007,-1.92421 0.75277,-0.0756 1.50553,-0.15128 2.66066,0.19204 0.85455,-0.15381 1.7091,-0.30762 3.47077,-0.59528 3.32779,0 6.65558,0 9.98339,0 0.15375,-0.48663 0.30749,-0.97325 0.46124,-1.45988 -2.78644,-2.51257 -5.36586,-5.31319 -8.39395,-7.48951 -15.94651,-11.4609 -42.229274,-11.97401 -60.277774,6.21574 -0.403587,1.04643 -0.807182,2.09286 -1.210769,3.1393 0.840637,-0.0761 1.681282,-0.15221 3.370781,-0.39371 3.735008,0.0725 7.470024,0.14494 11.734741,0.68765 0.942131,0.0464 1.884262,0.0928 3.545166,0.0189 0.961159,0.12085 1.922313,0.2417 2.900525,1.0884 0.005,0.48446 0.0105,0.96892 -0.751192,1.45097 -0.755122,-0.1297 -1.510242,-0.2594 -2.618503,-0.82298 -0.853599,0.0377 -1.707206,0.0754 -3.310264,0.20979 -5.303871,0.33469 -10.96212,-0.96302 -15.920334,3.78958 -0.08205,0.66579 -0.164108,1.33158 -0.07411,2.6765 -0.06241,1.15715 -0.124817,2.31429 -0.291443,4.21011 m 100.075766,29.31604 c 7.57785,0.34293 14.63373,-4.47219 17.56253,-12.69332 2.84812,-7.9946 2.90985,-16.34217 0.46874,-24.4087 -2.79091,-9.22241 -9.16419,-13.9859 -18.62091,-14.98527 -0.21309,-1.30867 -0.42618,-2.61733 -0.32,-4.51096 1.10782,-2.67819 3.28745,-5.42835 3.11339,-8.020475 -0.44208,-6.583699 -1.15629,-13.345494 -3.14564,-19.59544 C 166.81441,50.036588 139.8114,31.634568 109.04211,33.143613 80.279496,34.554242 54.467649,56.839707 48.455957,86.097642 c -1.553612,7.561149 -4.122521,15.839818 3.04383,22.506388 0.235711,0.21926 -0.0026,0.94809 -0.371418,1.85688 -0.431777,0.54768 -0.863555,1.09536 -2.106353,1.59598 -7.398987,-0.052 -12.956856,3.4628 -16.184094,9.78595 -5.383344,10.54759 -5.366297,21.52881 -0.198215,32.17213 3.347481,6.89393 10.244991,10.36672 17.476417,9.35424 0,-16.72797 0,-33.53163 0.483666,-50.33156 0.319271,0.055 0.640732,0.0752 1.131424,0.96979 -0.01684,16.32667 -0.03367,32.65335 -0.312599,49.2702 0.24176,0.21719 0.48352,0.43439 1.578689,0.70103 2.706146,0.49074 5.408943,1.31792 8.119702,1.34487 1.602806,0.0159 4.15055,-0.83844 4.640045,-1.99358 1.130371,-2.66749 1.683075,-5.75007 1.730171,-8.67621 0.182121,-11.31491 -0.02616,-22.6358 0.122124,-33.95171 0.06235,-4.75862 -1.306984,-8.1433 -7.289753,-9.05893 0.820537,-1.868 1.530544,-3.36973 2.14558,-4.90939 1.139656,-2.85298 3.056625,-5.68718 3.199943,-8.600518 1.20044,-24.401725 19.574715,-44.332679 42.904764,-46.129966 25.63918,-1.975178 46.91974,14.516967 51.67058,39.835395 1.06592,5.680573 -0.3777,12.158519 4.8879,16.703149 0.48442,0.41809 0.0645,1.88401 0.0645,3.13439 -5.95117,0.58212 -7.23071,4.35712 -7.09927,9.7522 0.27556,11.31112 0.0202,22.63427 0.13318,33.95098 0.0245,2.44959 0.16861,5.15227 1.22667,7.24949 0.72749,1.44203 3.13272,2.856 4.77998,2.84674 3.52307,-0.0198 7.04091,-0.97121 11.0385,-1.63257 0.42004,-0.24344 0.8401,-0.48688 1.84428,-0.18624 z"
   id="path4" />
<path
   fill="#fefdfb"
   opacity="1"
   stroke="none"
   d="m 51.680475,162.9875 c 0.01684,-16.32667 0.03367,-32.65335 0.0653,-49.81329 -0.07886,-1.59911 -0.172523,-2.36492 -0.266178,-3.13075 0.01735,-0.4913 0.255669,-1.22013 0.01996,-1.43939 -7.166351,-6.66657 -4.597442,-14.945239 -3.04383,-22.506388 6.011692,-29.257935 31.823539,-51.5434 60.586153,-52.954029 30.76929,-1.509045 57.7723,16.892975 67.13218,46.298992 1.98935,6.249946 2.70356,13.011741 3.14564,19.59544 0.17406,2.592125 -2.00557,5.342285 -3.60977,8.612685 -0.57933,2.57438 -0.72621,4.55626 -0.73514,6.53877 -0.0746,16.58162 -0.12384,33.16335 -0.18074,49.74506 -3.51997,0.56981 -7.03781,1.52121 -10.56088,1.54102 -1.64726,0.009 -4.05249,-1.40471 -4.77998,-2.84674 -1.05806,-2.09722 -1.20221,-4.7999 -1.22667,-7.24949 -0.11301,-11.31671 0.14238,-22.63986 -0.13318,-33.95099 -0.13144,-5.39507 1.1481,-9.17007 7.09927,-9.7522 0,-1.25038 0.41994,-2.7163 -0.0645,-3.13438 -5.2656,-4.54463 -3.82198,-11.022576 -4.8879,-16.703149 -4.75084,-25.318428 -26.0314,-41.810573 -51.67058,-39.835395 -23.330049,1.797287 -41.704324,21.728241 -42.904764,46.129966 -0.143318,2.913328 -2.060287,5.747538 -3.199943,8.600508 -0.615036,1.53966 -1.325043,3.04139 -2.14558,4.90939 5.982769,0.91563 7.352108,4.30031 7.289753,9.05893 -0.148285,11.31591 0.06,22.6368 -0.122124,33.95171 -0.0471,2.92614 -0.5998,6.00872 -1.730171,8.67621 -0.489495,1.15514 -3.037239,2.00951 -4.640045,1.99358 -2.710759,-0.0269 -5.413556,-0.85413 -8.633027,-1.61939 -0.609974,-0.42193 -0.706623,-0.56932 -0.803272,-0.71669 z"
   id="path6" />
<path
   fill="#fefdf9"
   opacity="1"
   stroke="none"
   d="m 153.11826,131.03908 c 0.40628,5.10334 2.01457,10.46131 0.99739,15.26311 -3.28164,15.49163 -17.26624,26.3565 -35.14389,28.47988 -18.13189,2.15358 -36.650023,-6.76993 -43.340384,-22.05546 -2.500046,-5.71188 -2.472832,-12.53714 -3.498878,-18.8708 -0.06834,-0.42188 0.705742,-0.98025 1.386589,-1.8617 1.622917,4.48589 3.117279,8.61643 5.0438,13.27356 4.544205,5.28281 10.150932,4.9272 15.604653,4.82952 7.23545,-0.12963 11.37419,-3.17653 13.7693,-9.98042 0.8187,-2.32573 1.37924,-4.74235 2.23624,-7.35955 0.73081,-1.07417 1.2831,-1.9062 2.20944,-2.74739 1.1197,-0.002 1.86534,0.006 2.7872,0.25734 0.73747,1.07433 1.29872,1.90454 1.84812,3.05621 0.27762,0.87508 0.5671,1.42873 0.83966,2.16855 -0.0169,0.18619 0.17276,0.50841 0.14999,0.83074 0.3206,1.09471 0.66397,1.86711 1.00508,2.96963 0.37304,1.11632 0.74834,1.90248 1.15084,3.0291 5.62756,9.37534 21.22876,10.91367 28.2573,2.87412 1.24634,-2.83136 2.18934,-5.44275 3.28756,-8.29151 0.1923,-0.79417 0.22938,-1.35097 0.26645,-1.90777 0,0 0.16507,-0.40705 0.32006,-0.89719 0.37783,-1.34674 0.60065,-2.20335 0.82348,-3.05997 z"
   id="path8" />
<path
   fill="#fefdfa"
   opacity="1"
   stroke="none"
   d="m 99.988978,122.10094 c -0.96116,-0.12085 -1.922314,-0.24169 -3.539029,-0.49446 -1.576813,-0.20702 -2.498062,-0.28214 -3.419319,-0.35727 -3.735008,-0.0725 -7.470024,-0.14494 -11.965317,-0.18692 -0.742706,-0.9585 -0.725136,-1.94752 -0.707565,-2.93652 17.356338,-18.02931 43.639102,-17.5162 59.585612,-6.0553 3.02809,2.17632 5.60751,4.97694 8.39395,7.48951 -0.15375,0.48663 -0.30749,0.97325 -0.46124,1.45988 -3.32781,0 -6.6556,0 -10.80568,-0.003 -1.56514,0.0578 -2.30799,0.11858 -3.05083,0.1794 -0.75278,0.0756 -1.50554,0.15126 -2.86105,0.28473 -1.12163,0.21202 -1.64052,0.36621 -2.49707,0.48205 -0.78208,0.0338 -1.2265,0.10596 -2.00295,0.14158 -0.93427,0.2169 -1.53653,0.47034 -2.50628,0.70735 -2.97087,0.78471 -5.57422,1.58586 -8.60208,2.33936 -2.13207,-0.0708 -3.83964,-0.094 -5.70865,-0.2123 -0.16142,-0.0951 -0.53398,-0.0551 -0.69465,-0.2516 -0.48187,-0.27512 -0.80306,-0.35372 -1.40348,-0.57616 -0.89772,-0.20538 -1.51621,-0.26692 -2.33251,-0.57629 -0.60153,-0.32511 -1.00525,-0.4024 -1.71042,-0.60216 -0.73218,-0.1654 -1.1629,-0.20834 -1.79783,-0.4598 -0.77403,-0.26302 -1.34381,-0.31751 -1.913612,-0.37202 z"
   id="path10" />
<path
   fill="#fefdfa"
   opacity="1"
   stroke="none"
   d="m 50.115892,113.03395 c 0,16.80366 0,33.60732 0,50.33529 -7.231426,1.01249 -14.128936,-2.4603 -17.476417,-9.35424 -5.168082,-10.64331 -5.185129,-21.62454 0.198215,-32.17213 3.227238,-6.32315 8.785107,-9.83796 16.63237,-9.52137 0.448281,0.26458 0.645832,0.71245 0.645832,0.71245 z"
   id="path12" />
<path
   fill="#fffefc"
   opacity="1"
   stroke="none"
   d="m 177.14223,112.06991 c 8.8408,0.49897 15.21408,5.26247 18.00499,14.48487 2.44111,8.06653 2.37938,16.4141 -0.46874,24.40871 -2.9288,8.22112 -9.98468,13.03625 -17.78877,11.94821 -0.2852,-16.50258 -0.34415,-32.26007 -0.32282,-48.21336 0.0803,-0.1958 -0.15046,-0.55057 -0.0397,-0.90041 0.27884,-0.80921 0.44695,-1.26862 0.61504,-1.72802 z"
   id="path14" />
<path
   fill="#fefdf9"
   opacity="1"
   stroke="none"
   d="m 143.99651,123.94871 c 0.98239,0.37763 1.96479,0.75527 3.40544,1.43789 0.79355,0.5353 1.12886,0.76561 1.46415,0.99591 0,0 0.0411,0.36008 0.17453,0.782 0.35195,0.72551 0.57048,1.02908 0.78901,1.33266 -0.0666,1.86988 -0.13318,3.73976 -0.39547,6.22094 -0.23527,1.17203 -0.27485,1.73272 -0.4158,2.62967 -0.45528,1.67659 -0.80922,3.01695 -1.42428,4.59718 -5.67583,8.04601 -18.37175,7.91085 -25.34248,-0.37196 -0.504,-1.42466 -0.94383,-2.5038 -1.37431,-3.89264 -0.20821,-0.64585 -0.42578,-0.98197 -0.59644,-1.68379 -0.12052,-1.58152 -0.28797,-2.79731 -0.38003,-4.40465 0.0981,-1.45378 0.12084,-2.51602 0.38857,-3.79627 1.73651,-1.11837 3.22803,-2.01874 5.0366,-2.88422 0.87906,-0.23598 1.44106,-0.50686 2.28554,-0.74239 0.64903,-0.0544 1.01555,-0.14405 1.75838,-0.17684 1.12202,-0.0461 1.86775,-0.14908 2.61348,-0.25206 2.55702,-0.0686 5.11403,-0.1373 8.31169,-0.0825 1.6609,0.17935 2.68115,0.2352 3.70142,0.29104 z"
   id="path16" />
<path
   fill="#fefdfa"
   opacity="1"
   stroke="none"
   d="m 77.922392,127.00847 c 4.441559,-4.30692 10.099808,-3.00921 16.120025,-3.2355 1.459916,0.11082 2.203484,0.11325 2.94706,0.11568 0.755119,0.12971 1.510239,0.25941 2.852681,0.57269 1.114822,0.26523 1.642312,0.34687 2.414122,0.53863 1.74606,1.07235 3.2478,2.03458 4.72903,3.43309 -0.2014,7.13932 -0.18649,14.33101 -7.310502,17.61377 -6.622488,3.05167 -13.528982,2.71119 -19.487356,-2.41587 -0.688804,-1.98803 -1.377609,-3.97603 -2.130729,-6.65419 -0.346985,-1.585 -0.629654,-2.47985 -0.912323,-3.37468 0.06241,-1.15715 0.124816,-2.31429 0.29792,-4.07738 0.233818,-1.24272 0.356941,-1.87947 0.480072,-2.51624 z"
   id="path18" />
<path
   fill="#f89014"
   opacity="1"
   stroke="none"
   d="m 80.013883,143.94954 c 6.131943,4.80849 13.038437,5.14897 19.660925,2.0973 7.124012,-3.28276 7.109102,-10.47445 7.582302,-17.37562 1.10735,1.31062 1.9224,2.81938 2.73746,4.32813 -0.67849,2.37507 -1.23903,4.79169 -2.05773,7.11743 -2.39511,6.80389 -6.53385,9.85078 -13.7693,9.98042 -5.453721,0.0977 -11.060448,0.45329 -15.317093,-4.62589 0.233558,-0.61636 0.611709,-0.90977 1.163436,-1.52177 z"
   id="path20" />
<path
   fill="#f08500"
   opacity="1"
   stroke="none"
   d="m 176.83426,111.81972 c 0.13988,0.70959 -0.0282,1.169 -0.37868,2.06388 -0.25268,0.67377 -0.18155,0.86547 0.031,1.01054 0.0589,15.75749 0.11788,31.51498 0.11101,47.74551 -0.48587,0.71651 -0.90593,0.95995 -1.56477,1.24916 -0.18192,-16.53593 -0.13269,-33.11766 -0.0581,-49.69928 0.009,-1.98251 0.15581,-3.96439 0.5755,-6.24629 0.54984,1.00894 0.76293,2.3176 1.28397,3.87647 z"
   id="path22" />
<path
   fill="#f89014"
   opacity="1"
   stroke="none"
   d="m 80.011671,118.20598 c 0.328506,0.90879 0.310936,1.89782 0.629211,2.93901 -0.504783,0.12831 -1.345428,0.20441 -2.186065,0.28052 0.403587,-1.04644 0.807182,-2.09287 1.556854,-3.21953 z"
   id="path24" />
<path
   fill="#f89014"
   opacity="1"
   stroke="none"
   d="m 131.87595,123.54372 c -0.63828,0.29939 -1.38401,0.40238 -2.49997,0.12616 -0.37246,-0.80897 -0.37467,-1.23877 -0.3769,-1.66855 0.51891,-0.15419 1.0378,-0.30838 1.8154,-0.35975 0.49045,0.63712 0.72223,1.17142 1.06147,1.90214 z"
   id="path26" />
<path
   fill="#f89014"
   opacity="1"
   stroke="none"
   d="m 149.11974,137.01154 c 0.0396,-0.56071 0.0792,-1.1214 0.3123,-1.88999 0.71571,-0.18002 1.23787,-0.15217 2.15136,-0.12482 0.35425,0.55632 0.31717,1.11312 -0.28027,1.87091 -1.10139,0.18198 -1.64239,0.16294 -2.18339,0.1439 z"
   id="path28" />
<path
   fill="#f89014"
   opacity="1"
   stroke="none"
   d="m 102.01195,124.88985 c -0.52748,-0.0816 -1.05497,-0.16328 -1.78629,-0.42731 -0.20911,-0.66683 -0.21437,-1.15129 -0.228152,-1.99867 0.561272,-0.30842 1.131052,-0.25393 1.873272,0.37638 0.162,1.06708 0.15159,1.55834 0.14117,2.0496 z"
   id="path30" />
<path
   fill="#f79b34"
   opacity="1"
   stroke="none"
   d="m 50.357725,113.03583 c -0.241833,-0.002 -0.439384,-0.44975 -0.482155,-0.69078 0.389012,-0.78875 0.82079,-1.33643 1.428295,-2.09284 0.269387,0.55708 0.363045,1.32289 0.358387,2.46738 -0.421962,0.39333 -0.743423,0.37312 -1.304527,0.31624 z"
   id="path32" />
<path
   fill="#f89014"
   opacity="1"
   stroke="none"
   d="m 93.295484,121.48434 c 0.656403,-0.15999 1.577652,-0.0849 2.795075,0.18226 -0.645958,0.14561 -1.588089,0.0992 -2.795075,-0.18226 z"
   id="path34" />
<path
   fill="#f89014"
   opacity="1"
   stroke="none"
   d="m 143.7196,123.67682 c -0.74336,0.21605 -1.76361,0.1602 -3.07397,-0.15602 0.73895,-0.21219 1.76802,-0.16402 3.07397,0.15602 z"
   id="path36" />
<path
   fill="#f89014"
   opacity="1"
   stroke="none"
   d="m 134.22073,121.40568 c 0.54167,-0.27029 1.28452,-0.33111 2.39609,-0.32194 -0.48581,0.22378 -1.34036,0.3776 -2.39609,0.32194 z"
   id="path38" />
<path
   fill="#f89014"
   opacity="1"
   stroke="none"
   d="m 152.82459,131.23447 c 0.0708,0.66123 -0.15198,1.51784 -0.56727,2.64818 -0.0371,-0.63512 0.11826,-1.54395 0.56727,-2.64818 z"
   id="path40" />
<path
   fill="#f89014"
   opacity="1"
   stroke="none"
   d="m 96.81291,123.67171 c -0.567009,0.21451 -1.310577,0.21208 -2.395767,0.0529 0.511986,-0.19445 1.365593,-0.23212 2.395767,-0.0529 z"
   id="path42" />
<path
   fill="#f89014"
   opacity="1"
   stroke="none"
   d="m 77.092291,133.97144 c 0.334778,0.52548 0.617447,1.42034 0.850181,2.66789 -0.33406,-0.53105 -0.618171,-1.41481 -0.850181,-2.66789 z"
   id="path44" />
<path
   fill="#f89014"
   opacity="1"
   stroke="none"
   d="m 77.66406,127.23132 c 0.135201,0.41393 0.01208,1.05068 -0.307769,1.95383 -0.114662,-0.39941 -0.03261,-1.0652 0.307769,-1.95383 z"
   id="path46" />
<path
   fill="#f79b34"
   opacity="1"
   stroke="none"
   d="m 51.549429,163.13259 c 0.227695,0.002 0.324344,0.14967 0.507614,0.54687 -0.15514,0.0326 -0.3969,-0.18459 -0.507614,-0.54687 z"
   id="path48" />
<path
   fill="#f89014"
   opacity="1"
   stroke="none"
   d="m 149.8266,128.2067 c -0.21549,-0.0131 -0.43402,-0.31667 -0.66458,-0.90763 0.21251,0.0141 0.43702,0.31562 0.66458,0.90763 z"
   id="path50" />
<path
   fill="#f89014"
   opacity="1"
   stroke="none"
   d="m 148.77219,126.0699 c -0.24138,0.0823 -0.57669,-0.148 -1.05515,-0.65252 0.22496,-0.0695 0.59309,0.1352 1.05515,0.65252 z"
   id="path52" />
<path
   fill="#fe8c02"
   opacity="1"
   stroke="none"
   d="m 102.25628,124.99997 c -0.23391,-0.60138 -0.2235,-1.09264 -0.18127,-1.9512 0.46251,-0.32435 0.89323,-0.28142 1.82857,0.12088 0.90477,0.44393 1.30492,0.52851 1.70507,0.6131 0.61849,0.0615 1.23698,0.12308 2.29614,0.52291 0.76134,0.41827 1.08202,0.49825 1.40271,0.57823 0,-10e-6 0.37256,-0.04 0.78048,0.31939 2.23416,0.23818 4.0604,0.11691 5.88665,-0.004 2.60336,-0.80115 5.20671,-1.6023 8.52055,-2.34049 1.30543,-0.19715 1.90038,-0.45723 2.49534,-0.71733 0.44442,-0.0722 0.88884,-0.14431 1.67092,-0.17813 0.33987,0.46814 0.34208,0.89794 0.33825,1.65003 -0.3726,0.41198 -0.73912,0.50167 -1.71408,0.51791 -1.16449,0.19958 -1.72058,0.4726 -2.27668,0.74561 -1.4915,0.90038 -2.98302,1.80075 -4.98389,3.1131 -0.4061,1.60595 -0.30285,2.79988 -0.19959,3.99384 0.16744,1.2158 0.33489,2.43159 0.43847,4.32577 0.15876,1.01253 0.38138,1.3467 0.60402,1.68087 0.43984,1.0791 0.87967,2.15825 1.02069,3.60539 -0.78337,0.37382 -1.2679,0.37965 -1.75243,0.38548 -0.37529,-0.78618 -0.75059,-1.57234 -1.11274,-3.02147 -0.3223,-1.42834 -0.65775,-2.19374 -0.9932,-2.95915 0,0 -0.18967,-0.32222 -0.14257,-0.83885 -0.25459,-1.06427 -0.55629,-1.61191 -0.858,-2.15955 -0.56125,-0.83023 -1.1225,-1.66044 -2.04077,-2.98858 -1.23148,-0.33005 -2.10596,-0.16221 -2.98044,0.006 -0.5523,0.83202 -1.10459,1.66405 -1.8354,2.73822 -0.99357,-1.26663 -1.80862,-2.77539 -2.89546,-4.52229 -1.77354,-1.20038 -3.27528,-2.16261 -5.02134,-3.23496 z"
   id="path54" />
<path
   fill="#f89014"
   opacity="1"
   stroke="none"
   d="m 120.16341,142.3214 c 0.45732,-0.34627 0.94185,-0.3521 1.78938,-0.3804 7.26955,7.91481 19.96547,8.04996 25.69073,0.46643 0.36499,1.15109 0.41942,2.07958 0.47385,3.00807 -6.7252,7.81957 -22.3264,6.28124 -27.95396,-3.0941 z"
   id="path56" />
<path
   fill="#fe8c02"
   opacity="1"
   stroke="none"
   d="m 148.42071,145.19552 c -0.35777,-0.7085 -0.4122,-1.637 -0.51606,-3.02797 0.3045,-1.80283 0.65844,-3.14319 1.11372,-4.81978 0.64237,-0.3172 1.18337,-0.29816 2.12952,-0.24277 -0.53784,2.64777 -1.48084,5.25916 -2.72718,8.09052 z"
   id="path58" />
<path
   fill="#f89014"
   opacity="1"
   stroke="none"
   d="m 112.38252,130.00982 c 0.50044,-0.15866 1.37492,-0.32651 2.43019,-0.24055 -0.56485,0.24634 -1.31049,0.23885 -2.43019,0.24055 z"
   id="path60" />
<path
   fill="#f89014"
   opacity="1"
   stroke="none"
   d="m 118.00749,136.32267 c 0.35822,0.44309 0.69367,1.20848 1.01823,2.30668 -0.35426,-0.43957 -0.69763,-1.21197 -1.01823,-2.30668 z"
   id="path62" />
<path
   fill="#f89014"
   opacity="1"
   stroke="none"
   d="m 117.01785,133.32338 c 0.31355,0.2262 0.61525,0.77384 0.88675,1.65194 -0.31966,-0.22321 -0.60914,-0.77686 -0.88675,-1.65194 z"
   id="path64" />
<path
   fill="#f89014"
   opacity="1"
   stroke="none"
   d="m 115.55013,125.15127 c -1.40175,0.16892 -3.22799,0.29019 -5.30073,0.14714 1.46109,-0.24114 3.16866,-0.21797 5.30073,-0.14714 z"
   id="path66" />
<path
   fill="#f89014"
   opacity="1"
   stroke="none"
   d="m 126.65849,122.10456 c -0.26293,0.29664 -0.85788,0.55672 -1.7958,0.77029 0.25927,-0.29994 0.86153,-0.55338 1.7958,-0.77029 z"
   id="path68" />
<path
   fill="#f89014"
   opacity="1"
   stroke="none"
   d="m 105.41084,123.53493 c -0.20234,0.16324 -0.60249,0.0787 -1.20579,-0.2428 0.20054,-0.1596 0.60426,-0.0823 1.20579,0.2428 z"
   id="path70" />
<path
   fill="#f89014"
   opacity="1"
   stroke="none"
   d="m 109.14683,124.68738 c -0.16002,0.11654 -0.4807,0.0366 -0.96282,-0.23787 0.15976,-0.11585 0.48095,-0.0373 0.96282,0.23787 z"
   id="path72" />
<path
   fill="#fe8c02"
   opacity="1"
   stroke="none"
   d="m 176.56689,114.69834 c -0.29286,0.0507 -0.36399,-0.14097 -0.22207,-0.46492 0.0716,-0.0857 0.30234,0.26912 0.22207,0.46492 z"
   id="path74" />
<path
   fill="#f89014"
   opacity="1"
   stroke="none"
   d="m 119.90083,131.59191 c -0.17864,-0.80242 -0.28189,-1.99635 -0.12078,-3.38428 0.24162,0.86826 0.21889,1.9305 0.12078,3.38428 z"
   id="path76" />
<path
   fill="#f89014"
   opacity="1"
   stroke="none"
   d="m 125.326,124.91142 c 0.23903,-0.30791 0.79512,-0.58092 1.67713,-0.81585 -0.23607,0.30899 -0.79807,0.57987 -1.67713,0.81585 z"
   id="path78" />
<path
   fill="#f89014"
   opacity="1"
   stroke="none"
   d="m 120.8773,137.68036 c -0.232,-0.0244 -0.45462,-0.3586 -0.66031,-1.00543 0.23453,0.0235 0.4521,0.35958 0.66031,1.00543 z"
   id="path80" />
</svg>
