<svg version="1.1" id="Layer_1" xmlns="http://www.w3.org/2000/svg" xmlns:xlink="http://www.w3.org/1999/xlink" x="0px" y="0px"
	 width="100%" viewBox="0 0 1116 390" enable-background="new 0 0 1116 390" xml:space="preserve">
<path fill="#FEFEFF" opacity="1.000000" stroke="none" 
	d="
M704.000000,391.000000 
	C469.333344,391.000000 235.166672,391.000000 1.000000,391.000000 
	C1.000000,261.000000 1.000000,131.000000 1.000000,1.000000 
	C373.000000,1.000000 745.000000,1.000000 1117.000000,1.000000 
	C1117.000000,131.000000 1117.000000,261.000000 1117.000000,391.000000 
	C979.500000,391.000000 842.000000,391.000000 704.000000,391.000000 
M249.256973,287.213684 
	C258.166260,292.394531 266.990936,297.732361 276.058441,302.619751 
	C277.808105,303.562805 280.915131,303.523804 282.697937,302.596191 
	C289.474182,299.070435 295.769012,294.600861 302.604614,291.211853 
	C314.338837,285.394135 318.765106,276.125427 318.652802,263.306824 
	C318.248657,217.173599 318.228638,171.036392 318.228516,124.900696 
	C318.228485,116.064194 314.734375,109.468933 307.329834,104.932289 
	C300.100708,100.503098 292.456390,96.688431 285.548279,91.818230 
	C279.959503,87.878166 275.376404,87.712372 270.063538,91.941147 
	C267.105225,94.295792 263.506104,95.845299 260.195953,97.757965 
	C249.022324,104.214294 237.848785,110.670738 226.155426,117.427490 
	C237.392654,124.037941 247.924835,130.380920 258.606445,136.461456 
	C264.913940,140.052048 267.587433,145.133499 267.536530,152.412689 
	C267.340759,180.396774 267.062897,208.391373 267.655792,236.364243 
	C267.885468,247.202011 264.478851,254.306091 254.643295,259.142883 
	C245.543091,263.618042 237.021179,269.269196 227.695908,274.723358 
	C235.127899,279.055450 241.860474,282.979858 249.256973,287.213684 
M97.800835,130.284058 
	C139.798447,105.731018 181.796066,81.177986 224.484497,56.221092 
	C211.843979,48.810104 199.629807,42.075294 187.869080,34.624714 
	C177.688431,28.175133 168.231995,28.454609 157.998184,34.519737 
	C118.802231,57.749470 79.447731,80.711876 40.129539,103.735008 
	C31.602694,108.727982 27.399776,116.046349 27.445787,125.927597 
	C27.509392,139.587494 27.453279,153.247955 27.475878,166.908112 
	C27.477942,168.155701 27.678932,169.402939 27.792423,170.706345 
	C28.484188,170.547684 28.839464,170.548141 29.104515,170.393723 
	C51.805672,157.169266 74.499863,143.932877 97.800835,130.284058 
M787.222473,129.304291 
	C775.916931,110.942650 759.323730,101.342293 737.994446,99.562302 
	C702.502869,96.600410 671.126831,126.252258 672.173584,161.780045 
	C673.432190,204.497818 713.807068,232.629684 754.297852,219.001495 
	C791.084045,206.620163 806.337952,165.870193 787.222473,129.304291 
M441.242035,191.248505 
	C438.196198,186.691391 435.150391,182.134277 432.022827,177.454865 
	C433.578918,176.520828 435.022339,175.706680 436.413513,174.811325 
	C450.487610,165.753235 457.493958,148.509567 454.100952,131.319077 
	C451.013672,115.677322 439.108185,102.639732 423.322540,101.431740 
	C405.007629,100.030190 386.503174,101.105171 367.818481,101.105171 
	C367.818481,140.436401 367.818481,180.279007 367.818481,220.227936 
	C377.584991,220.227936 386.997833,220.227936 396.825745,220.227936 
	C396.825745,206.837814 396.825745,193.743423 396.825745,180.649017 
	C397.254395,180.260651 397.683075,179.872299 398.111725,179.483932 
	C399.768921,180.748154 401.949219,181.679718 402.998932,183.330276 
	C410.135223,194.551666 416.986450,205.954025 424.068939,217.210373 
	C424.931946,218.581940 426.598633,220.339813 427.936523,220.377701 
	C437.541626,220.649704 447.157990,220.523209 458.093781,220.523209 
	C456.897278,216.991287 456.454529,214.039612 455.004974,211.716049 
	C450.782104,204.947128 446.156586,198.429413 441.242035,191.248505 
M1075.467529,128.533203 
	C1079.527344,128.533203 1083.587158,128.533203 1087.429443,128.533203 
	C1087.429443,118.526840 1087.429443,109.456444 1087.429443,100.486061 
	C1061.110352,100.486061 1035.198975,100.486061 1009.226318,100.486061 
	C1009.226318,140.561020 1009.226318,180.313736 1009.226318,220.136505 
	C1035.501221,220.136505 1061.546143,220.136505 1087.479980,220.136505 
	C1087.479980,210.655243 1087.479980,201.574905 1087.479980,192.030640 
	C1071.044189,192.030640 1054.957642,192.030640 1038.919922,192.030640 
	C1038.919922,185.658539 1038.919922,179.767761 1038.919922,173.361053 
	C1055.052490,173.361053 1070.805176,173.361053 1086.613770,173.361053 
	C1086.613770,163.724228 1086.613770,154.618881 1086.613770,144.936752 
	C1070.517456,144.936752 1054.630981,144.936752 1038.835205,144.936752 
	C1038.835205,139.251984 1038.835205,134.150787 1038.835205,128.532974 
	C1050.912231,128.532974 1062.695190,128.532974 1075.467529,128.533203 
M489.500854,220.531326 
	C509.457703,220.531326 529.414551,220.531326 549.411865,220.531326 
	C549.411865,210.749664 549.411865,201.555099 549.411865,191.894485 
	C532.905945,191.894485 516.818970,191.894485 500.814697,191.894485 
	C500.814697,185.638107 500.814697,179.863022 500.814697,173.428024 
	C516.792358,173.428024 532.501831,173.428024 548.291870,173.428024 
	C548.291870,163.649643 548.291870,154.541077 548.291870,144.939163 
	C532.309448,144.939163 516.557678,144.939163 500.971375,144.939163 
	C500.971375,139.208755 500.971375,133.982956 500.971375,128.291733 
	C517.325806,128.291733 533.244568,128.291733 549.207642,128.291733 
	C549.207642,118.707863 549.207642,109.619041 549.207642,100.524246 
	C522.989807,100.524246 497.097351,100.524246 471.292114,100.524246 
	C471.292114,140.637787 471.292114,180.391846 471.292114,220.531082 
	C477.219025,220.531082 482.860382,220.531082 489.500854,220.531326 
M616.972717,128.159424 
	C622.067078,129.969559 624.276184,134.065536 625.249634,139.137573 
	C634.496521,139.137573 643.484985,139.143738 652.473389,139.119598 
	C652.928711,139.118378 653.383301,138.855820 653.799194,138.727036 
	C654.703186,127.767738 649.890991,116.869354 641.060608,109.746765 
	C623.492249,95.576103 592.929810,96.250732 576.268555,111.497856 
	C565.657837,121.208031 562.433105,133.590225 565.285278,147.459839 
	C567.984985,160.588120 576.861877,167.995209 589.266663,171.592880 
	C593.085327,172.700378 597.044250,173.365295 600.970764,174.050674 
	C607.674133,175.220749 614.526245,175.795761 621.051819,177.584244 
	C623.261292,178.189774 625.934631,181.624008 626.092407,183.923676 
	C626.250610,186.228180 624.114502,189.675003 621.979492,190.987885 
	C610.465637,198.068268 596.450989,192.697708 592.638367,180.107605 
	C583.053833,180.107605 573.457947,180.107605 563.653931,180.107605 
	C563.660217,190.205627 566.398621,199.025192 572.916748,206.498032 
	C591.640869,227.964951 631.041870,227.015747 648.788696,204.694199 
	C660.805542,189.579697 658.508911,166.410919 643.135498,156.408737 
	C636.906799,152.356262 629.277954,150.133194 621.998779,148.114243 
	C615.481995,146.306778 608.523315,146.157852 601.850647,144.822327 
	C597.966736,144.044983 594.415955,141.921219 594.271851,137.348770 
	C594.129700,132.834091 596.862732,129.351349 601.038330,128.569733 
	C605.955200,127.649345 611.129639,128.104950 616.972717,128.159424 
M966.448120,107.920776 
	C958.265015,129.309158 950.081909,150.697556 942.084290,171.601028 
	C942.104980,171.658371 941.843262,170.916580 941.569946,170.179108 
	C933.494385,148.388306 925.450500,126.585579 917.266357,104.835625 
	C916.728882,103.407166 915.150085,101.366096 914.002258,101.330544 
	C904.746765,101.043861 895.478394,101.169899 885.376587,101.169899 
	C886.159851,104.818153 886.380432,107.830856 887.446411,110.506874 
	C900.050903,142.151794 912.761841,173.754440 925.498962,205.346359 
	C927.596313,210.548340 928.629028,217.781662 932.549438,220.212662 
	C936.784851,222.838959 943.835815,220.818207 949.649231,221.054840 
	C952.233948,221.160049 953.347412,220.243454 954.310120,217.812073 
	C968.807983,181.197006 983.456421,144.641617 997.982544,108.037720 
	C998.773010,106.045845 998.798828,103.750542 999.230225,101.316788 
	C988.739197,101.316788 979.104126,101.316788 969.234253,101.316788 
	C968.433105,103.255486 967.613647,105.238548 966.448120,107.920776 
M140.246170,171.818558 
	C135.037003,179.671753 132.468033,188.244064 132.820160,197.728943 
	C133.465637,215.115356 141.578674,228.059906 156.945679,235.645462 
	C172.669159,243.406998 188.442734,242.089020 202.596832,231.492447 
	C216.584747,221.020279 222.334579,206.453705 219.426727,189.318588 
	C216.332703,171.086441 205.250717,158.862213 187.347061,154.332306 
	C168.410507,149.541031 152.654343,155.718674 140.246170,171.818558 
M844.536438,163.500183 
	C844.536438,142.881180 844.536438,122.262169 844.536438,101.573502 
	C834.433533,101.573502 824.908386,101.573502 815.533386,101.573502 
	C815.533386,141.370880 815.533386,180.755844 815.533386,220.196960 
	C841.971375,220.196960 868.036560,220.196960 894.236816,220.196960 
	C894.236816,210.771591 894.236816,201.688263 894.236816,192.038239 
	C877.550171,192.038239 861.153198,192.038239 844.536255,192.038239 
	C844.536255,182.480072 844.536255,173.490143 844.536438,163.500183 
M62.516605,214.035004 
	C52.146500,220.030289 41.819752,226.102783 31.376881,231.968521 
	C28.646090,233.502396 27.268740,235.113602 27.365450,238.518295 
	C27.639795,248.176651 27.513033,257.848206 27.447256,267.513916 
	C27.382538,277.023926 31.423449,284.165100 39.578606,288.981018 
	C51.323097,295.916565 63.084766,302.823059 74.852333,309.719391 
	C76.368927,310.608185 77.964622,311.362000 79.924118,312.388031 
	C79.924118,276.087646 79.924118,240.385284 79.924118,204.009537 
	C74.028412,207.421051 68.598572,210.562988 62.516605,214.035004 
M139.481262,286.000366 
	C137.781662,285.102051 136.082077,284.203766 133.998596,283.102539 
	C133.998596,302.989227 133.931015,322.300568 134.130234,341.609100 
	C134.145737,343.111176 135.700638,345.120483 137.101379,345.996613 
	C144.008133,350.316650 151.299805,354.038269 158.087128,358.528198 
	C168.010742,365.092865 177.554214,364.770813 187.515503,358.682495 
	C199.008591,351.657959 210.724991,344.999023 222.329620,338.156281 
	C223.389847,337.531128 224.342667,336.723846 225.700104,335.745453 
	C196.832703,319.087433 168.477905,302.725250 139.481262,286.000366 
M486.174988,314.451294 
	C486.174988,302.687958 486.174988,290.924652 486.174988,279.161316 
	C489.328186,291.993561 491.791168,304.866913 493.917328,317.795715 
	C494.449371,321.031067 495.424896,322.329285 498.887726,322.259430 
	C506.251617,322.110931 506.259979,322.304352 507.579041,315.257263 
	C507.762634,314.276337 507.863434,313.280212 508.025513,312.294891 
	C509.796417,301.529175 511.571930,290.764221 513.346130,279.999054 
	C513.674622,280.026062 514.003052,280.053070 514.331543,280.080078 
	C514.331543,294.001129 514.331543,307.922180 514.331543,321.787811 
	C518.396729,321.787811 521.960449,321.787811 525.582275,321.787811 
	C525.582275,298.492828 525.582275,275.586060 525.582275,252.407669 
	C520.039429,252.407669 514.775879,252.407669 508.989838,252.407669 
	C506.519531,267.231262 504.041992,282.098145 501.564453,296.965027 
	C500.317505,296.119415 500.095215,295.374634 499.959473,294.614349 
	C497.649841,281.683167 495.416290,268.737579 492.953522,255.835754 
	C492.693573,254.473892 491.179077,252.395782 490.111206,252.308624 
	C485.378265,251.922241 480.595886,252.141281 475.800446,252.141281 
	C475.800446,275.824127 475.800446,298.844391 475.800446,321.780121 
	C479.459412,321.780121 482.686707,321.780121 486.175110,321.780121 
	C486.175110,319.406097 486.175110,317.422211 486.174988,314.451294 
M558.990479,293.629303 
	C560.685791,303.066833 562.381042,312.504395 564.069946,321.906097 
	C568.196289,321.906097 571.796997,321.906097 575.685608,321.906097 
	C577.938904,308.345093 580.158081,294.989624 582.377197,281.634186 
	C582.749817,281.657745 583.122498,281.681274 583.495117,281.704834 
	C583.495117,295.084686 583.495117,308.464539 583.495117,321.763580 
	C587.704895,321.763580 591.251953,321.763580 594.738464,321.763580 
	C594.738464,298.444427 594.738464,275.533813 594.738464,252.518692 
	C589.086975,252.518692 583.715088,252.518692 578.230652,252.518692 
	C575.687927,267.987732 573.202637,283.107605 570.717346,298.227478 
	C570.451050,298.244263 570.184753,298.261047 569.918457,298.277832 
	C567.178528,282.993103 564.438538,267.708344 561.697144,252.415405 
	C555.959534,252.415405 550.709045,252.415405 545.290955,252.415405 
	C545.290955,275.735199 545.290955,298.777344 545.290955,321.783447 
	C548.816406,321.783447 552.030151,321.783447 555.831360,321.783447 
	C555.831360,308.162537 555.831360,294.920197 555.831360,281.677826 
	C556.125366,281.664703 556.419373,281.651611 556.713318,281.638489 
	C557.429138,285.351685 558.144897,289.064911 558.990479,293.629303 
M1035.856934,260.570618 
	C1035.856934,257.834045 1035.856934,255.097488 1035.856934,252.521301 
	C1031.713623,252.521301 1028.473999,252.521301 1024.911133,252.521301 
	C1024.911133,265.264832 1024.911133,277.634521 1024.911133,290.004242 
	C1023.829041,288.919373 1023.425842,287.721771 1023.071411,286.509949 
	C1020.085754,276.303894 1017.181702,266.072815 1014.046936,255.912903 
	C1013.605896,254.483566 1012.147095,252.444046 1010.990967,252.325211 
	C1006.778442,251.892181 1002.494568,252.154160 998.231201,252.154160 
	C998.231201,275.811798 998.231201,298.737030 998.231201,321.763977 
	C1001.834534,321.763977 1005.186218,321.763977 1009.006104,321.763977 
	C1009.006104,306.241730 1009.006104,291.115845 1009.006104,275.989990 
	C1009.258972,275.965271 1009.511841,275.940552 1009.764709,275.915802 
	C1014.285706,291.284149 1018.806702,306.652466 1023.260620,321.792786 
	C1027.695068,321.792786 1031.597168,321.792786 1035.856812,321.792786 
	C1035.856812,301.465088 1035.856812,281.509460 1035.856934,260.570618 
M693.104492,286.231476 
	C690.122375,276.015503 687.220459,265.774628 684.062744,255.613205 
	C683.640564,254.254562 682.012512,252.436707 680.792053,252.312439 
	C676.715210,251.897278 672.569885,252.155075 668.325073,252.155075 
	C668.325073,275.757324 668.325073,298.814453 668.325073,321.940857 
	C671.929382,321.940857 675.202026,321.940857 678.965454,321.940857 
	C678.965454,306.235626 678.965454,290.740173 678.965454,275.244751 
	C679.767395,275.622589 679.953369,276.034088 680.078979,276.463287 
	C684.142212,290.348877 688.134827,304.255890 692.348755,318.095520 
	C692.819824,319.642456 694.377625,321.727478 695.717224,321.967377 
	C698.901733,322.537598 702.257568,322.150970 705.665405,322.150970 
	C705.665405,298.601318 705.665405,275.551819 705.665405,252.473053 
	C702.076904,252.473053 698.837097,252.473053 695.169495,252.473053 
	C695.169495,265.178711 695.169495,277.571014 695.169495,289.963318 
	C694.937866,289.993530 694.706177,290.023773 694.474548,290.053986 
	C694.095276,289.022980 693.716003,287.991974 693.104492,286.231476 
M457.624817,285.500305 
	C457.624756,280.003204 457.680664,274.505432 457.612915,269.009186 
	C457.472382,257.610107 450.873199,251.162262 439.411011,251.139206 
	C427.921051,251.116089 421.232513,257.567688 421.152191,268.960388 
	C421.066437,281.119965 421.065674,293.281097 421.152466,305.440613 
	C421.235107,317.019592 427.546417,323.061523 439.358124,323.087189 
	C451.156616,323.112823 457.420929,317.121948 457.606110,305.489777 
	C457.706848,299.161407 457.624298,292.830139 457.624817,285.500305 
M979.863647,284.500275 
	C979.863525,279.168945 979.908508,273.837158 979.853882,268.506378 
	C979.744385,257.819458 973.779419,251.814621 962.716858,251.179153 
	C951.889709,250.557205 944.263123,256.073151 943.753235,266.461334 
	C943.076660,280.247009 943.050598,294.118347 943.755371,307.901184 
	C944.322876,318.999146 951.313293,323.616241 964.123413,323.011536 
	C973.752014,322.557007 979.744507,316.119904 979.849915,305.992310 
	C979.921021,299.162323 979.863525,292.330933 979.863647,284.500275 
M626.009521,271.500427 
	C626.009521,265.098206 626.009521,258.695984 626.009521,252.429108 
	C621.533813,252.429108 617.928650,252.429108 613.957764,252.429108 
	C613.957764,270.640808 613.772644,288.572510 614.025146,306.498108 
	C614.184387,317.804657 620.276855,323.197693 631.864563,323.165161 
	C643.226562,323.133270 649.442566,317.384979 649.559692,306.189789 
	C649.738953,289.050568 649.608704,271.908081 649.577209,254.767014 
	C649.575745,253.982559 649.254456,253.198685 649.110535,252.543884 
	C645.310791,252.543884 641.755371,252.543884 637.990356,252.543884 
	C637.990356,270.245209 638.002502,287.546478 637.983337,304.847717 
	C637.977173,310.431366 636.176880,312.817810 632.071289,312.861664 
	C627.932373,312.905884 626.042786,310.513397 626.021790,304.951843 
	C625.980957,294.134766 626.009644,283.317413 626.009521,271.500427 
M829.270508,309.857086 
	C832.632751,309.347717 834.057983,310.742462 834.184204,314.186859 
	C834.278687,316.766449 835.089050,319.319824 835.586426,321.914734 
	C839.717957,321.914734 843.482544,321.914734 847.728638,321.914734 
	C843.694824,298.604340 839.717346,275.619934 835.701965,252.416107 
	C829.701599,252.416107 823.975525,252.416107 817.912781,252.416107 
	C813.898987,275.612274 809.920776,298.602142 805.886108,321.918884 
	C809.821472,321.918884 813.245056,321.918884 816.936707,321.918884 
	C817.708008,317.949524 818.456787,314.095886 819.280457,309.856812 
	C822.414124,309.856812 825.375916,309.856812 829.270508,309.857086 
M779.101562,309.171753 
	C777.679199,312.578766 774.718750,313.787048 771.842834,312.265472 
	C769.981689,311.280823 768.096863,308.369202 768.038940,306.270935 
	C767.689636,293.618256 767.899719,280.950897 767.844055,268.288818 
	C767.826721,264.346680 769.258057,261.805695 773.516113,261.694672 
	C777.749817,261.584320 779.449402,264.219452 779.742615,267.965302 
	C779.944397,270.542450 779.781250,273.148163 779.781250,275.720459 
	C783.954468,275.720459 787.372070,275.720459 791.066345,275.720459 
	C791.066345,272.469452 791.217468,269.493835 791.038391,266.538177 
	C790.463440,257.047852 784.426086,251.595291 774.176147,251.154663 
	C763.995605,250.717010 756.463440,255.695206 756.030151,264.920532 
	C755.328552,279.857880 755.408325,294.872650 756.050354,309.816376 
	C756.406067,318.094452 762.713806,322.697998 771.486633,323.014191 
	C782.433167,323.408752 789.046570,319.585419 790.532166,311.018982 
	C791.358765,306.252319 790.680542,301.224670 790.680542,296.265991 
	C787.065796,296.265991 783.646851,296.265991 780.129883,296.265991 
	C779.856689,300.484375 779.600952,304.431946 779.101562,309.171753 
M402.385498,259.414917 
	C397.431854,252.136536 390.757690,249.792725 380.983612,251.899139 
	C374.073517,253.388351 369.183960,258.335754 369.029785,265.336945 
	C368.711212,279.805603 368.676270,294.291107 368.999786,308.759064 
	C369.179901,316.813782 374.995422,322.215271 383.046387,322.970795 
	C394.075165,324.005768 401.510406,320.367523 403.426361,312.130676 
	C404.602814,307.072937 404.447113,301.705322 404.906067,296.282166 
	C400.472351,296.282166 396.909058,296.282166 392.892883,296.282166 
	C392.892883,300.031555 393.054810,303.504059 392.848724,306.954590 
	C392.628845,310.635986 390.541992,312.871613 386.741730,312.764679 
	C382.990906,312.659119 380.934784,310.488220 380.923584,306.695953 
	C380.885284,293.717163 380.880524,280.738098 380.923920,267.759369 
	C380.936432,264.025452 382.785278,261.785187 386.675293,261.688721 
	C390.549866,261.592651 392.533356,263.792877 392.830536,267.438843 
	C393.054474,270.186157 392.874817,272.966370 392.874817,275.639526 
	C397.185669,275.639526 400.736298,275.639526 405.238373,275.639526 
	C404.361633,270.121887 403.564423,265.104645 402.385498,259.414917 
M1088.908203,308.100769 
	C1089.689453,300.247681 1086.951782,293.767456 1081.264526,288.420715 
	C1077.269043,284.664459 1072.734131,281.300110 1069.515869,276.962616 
	C1067.362671,274.060638 1066.488281,269.788940 1066.303467,266.067535 
	C1066.235352,264.698059 1069.723022,262.125336 1071.712524,261.995605 
	C1073.391479,261.886139 1075.595093,264.260254 1076.901123,266.027008 
	C1077.717773,267.131561 1077.300903,269.147919 1077.444824,270.840149 
	C1081.330078,270.840149 1084.893188,270.840149 1088.409180,270.840149 
	C1089.808594,259.419220 1084.614014,252.757050 1073.501343,251.341522 
	C1062.527588,249.943680 1055.265015,255.397842 1053.793701,266.026123 
	C1052.701782,273.912720 1055.416504,280.376129 1060.975220,285.792816 
	C1065.137817,289.849182 1069.815430,293.470184 1073.434814,297.954071 
	C1075.423462,300.417603 1076.356567,304.224060 1076.561401,307.500275 
	C1076.770752,310.851746 1074.202637,312.937592 1070.635498,312.773651 
	C1067.194336,312.615540 1065.040405,310.808624 1064.892212,307.169250 
	C1064.813477,305.238922 1064.878174,303.302795 1064.878174,301.302521 
	C1060.660400,301.302521 1057.092773,301.302521 1053.571045,301.302521 
	C1052.122925,313.488403 1056.713257,321.355896 1066.384399,322.748383 
	C1077.602783,324.363647 1086.912598,321.184326 1088.908203,308.100769 
M894.391052,262.154449 
	C900.321960,260.013336 895.745605,255.718658 897.183472,252.433167 
	C884.474060,252.433167 872.578064,252.433167 860.508545,252.433167 
	C860.508545,255.759735 860.508545,258.798584 860.508545,262.394928 
	C864.760498,262.394928 868.657776,262.394928 872.939453,262.394928 
	C872.939453,282.511719 872.939453,302.070099 872.939453,321.891235 
	C877.066833,321.891235 880.788330,321.891235 885.043030,321.891235 
	C885.043030,301.985229 885.043030,282.296906 885.043030,262.159088 
	C888.188843,262.159088 890.809937,262.159088 894.391052,262.154449 
M913.000000,304.498810 
	C913.000000,310.272125 913.000000,316.045441 913.000000,321.814270 
	C917.344360,321.814270 921.073975,321.814270 924.720764,321.814270 
	C924.720764,298.451294 924.720764,275.432190 924.720764,252.418793 
	C920.682617,252.418793 917.084473,252.418793 913.000000,252.418793 
	C913.000000,269.618103 913.000000,286.558746 913.000000,304.498810 
M725.000000,265.509949 
	C725.000000,284.271179 725.000000,303.032410 725.000000,321.821320 
	C729.330872,321.821320 733.060181,321.821320 736.727722,321.821320 
	C736.727722,298.464722 736.727722,275.444916 736.727722,252.412750 
	C732.697876,252.412750 729.099060,252.412750 725.000000,252.412750 
	C725.000000,256.607697 725.000000,260.561035 725.000000,265.509949 
z"/>
<path fill="#293C74" opacity="1.000000" stroke="none" 
	d="
M248.925018,287.058960 
	C241.860474,282.979858 235.127899,279.055450 227.695908,274.723358 
	C237.021179,269.269196 245.543091,263.618042 254.643295,259.142883 
	C264.478851,254.306091 267.885468,247.202011 267.655792,236.364243 
	C267.062897,208.391373 267.340759,180.396774 267.536530,152.412689 
	C267.587433,145.133499 264.913940,140.052048 258.606445,136.461456 
	C247.924835,130.380920 237.392654,124.037941 226.155426,117.427490 
	C237.848785,110.670738 249.022324,104.214294 260.195953,97.757965 
	C263.506104,95.845299 267.105225,94.295792 270.063538,91.941147 
	C275.376404,87.712372 279.959503,87.878166 285.548279,91.818230 
	C292.456390,96.688431 300.100708,100.503098 307.329834,104.932289 
	C314.734375,109.468933 318.228485,116.064194 318.228516,124.900696 
	C318.228638,171.036392 318.248657,217.173599 318.652802,263.306824 
	C318.765106,276.125427 314.338837,285.394135 302.604614,291.211853 
	C295.769012,294.600861 289.474182,299.070435 282.697937,302.596191 
	C280.915131,303.523804 277.808105,303.562805 276.058441,302.619751 
	C266.990936,297.732361 258.166260,292.394531 248.925018,287.058960 
z"/>
<path fill="#283B73" opacity="1.000000" stroke="none" 
	d="
M97.497681,130.490677 
	C74.499863,143.932877 51.805672,157.169266 29.104515,170.393723 
	C28.839464,170.548141 28.484188,170.547684 27.792423,170.706345 
	C27.678932,169.402939 27.477942,168.155701 27.475878,166.908112 
	C27.453279,153.247955 27.509392,139.587494 27.445787,125.927597 
	C27.399776,116.046349 31.602694,108.727982 40.129539,103.735008 
	C79.447731,80.711876 118.802231,57.749470 157.998184,34.519737 
	C168.231995,28.454609 177.688431,28.175133 187.869080,34.624714 
	C199.629807,42.075294 211.843979,48.810104 224.484497,56.221092 
	C181.796066,81.177986 139.798447,105.731018 97.497681,130.490677 
z"/>
<path fill="#273A72" opacity="1.000000" stroke="none" 
	d="
M787.437012,129.601624 
	C806.337952,165.870193 791.084045,206.620163 754.297852,219.001495 
	C713.807068,232.629684 673.432190,204.497818 672.173584,161.780045 
	C671.126831,126.252258 702.502869,96.600410 737.994446,99.562302 
	C759.323730,101.342293 775.916931,110.942650 787.437012,129.601624 
M762.830505,177.161133 
	C768.017029,164.688599 767.969910,152.412094 760.409058,140.951279 
	C753.043945,129.787231 738.796997,125.173538 725.025208,128.807632 
	C711.409973,132.400375 703.265442,142.505280 701.683716,157.767349 
	C700.000061,174.012695 708.547607,188.125198 722.904724,192.804611 
	C738.277710,197.815125 754.242676,191.761261 762.830505,177.161133 
z"/>
<path fill="#263A72" opacity="1.000000" stroke="none" 
	d="
M441.465485,191.530853 
	C446.156586,198.429413 450.782104,204.947128 455.004974,211.716049 
	C456.454529,214.039612 456.897278,216.991287 458.093781,220.523209 
	C447.157990,220.523209 437.541626,220.649704 427.936523,220.377701 
	C426.598633,220.339813 424.931946,218.581940 424.068939,217.210373 
	C416.986450,205.954025 410.135223,194.551666 402.998932,183.330276 
	C401.949219,181.679718 399.768921,180.748154 398.111725,179.483932 
	C397.683075,179.872299 397.254395,180.260651 396.825745,180.649017 
	C396.825745,193.743423 396.825745,206.837814 396.825745,220.227936 
	C386.997833,220.227936 377.584991,220.227936 367.818481,220.227936 
	C367.818481,180.279007 367.818481,140.436401 367.818481,101.105171 
	C386.503174,101.105171 405.007629,100.030190 423.322540,101.431740 
	C439.108185,102.639732 451.013672,115.677322 454.100952,131.319077 
	C457.493958,148.509567 450.487610,165.753235 436.413513,174.811325 
	C435.022339,175.706680 433.578918,176.520828 432.022827,177.454865 
	C435.150391,182.134277 438.196198,186.691391 441.465485,191.530853 
M412.095215,128.448700 
	C407.151642,128.448700 402.208099,128.448700 397.177246,128.448700 
	C397.177246,137.149750 397.177246,145.331436 397.177246,153.844635 
	C402.480133,153.844635 407.435333,153.956635 412.383606,153.819397 
	C420.605194,153.591339 426.332611,148.445984 426.443115,141.384048 
	C426.557281,134.084808 421.547821,129.269806 412.095215,128.448700 
z"/>
<path fill="#273A72" opacity="1.000000" stroke="none" 
	d="
M1074.972900,128.533081 
	C1062.695190,128.532974 1050.912231,128.532974 1038.835205,128.532974 
	C1038.835205,134.150787 1038.835205,139.251984 1038.835205,144.936752 
	C1054.630981,144.936752 1070.517456,144.936752 1086.613770,144.936752 
	C1086.613770,154.618881 1086.613770,163.724228 1086.613770,173.361053 
	C1070.805176,173.361053 1055.052490,173.361053 1038.919922,173.361053 
	C1038.919922,179.767761 1038.919922,185.658539 1038.919922,192.030640 
	C1054.957642,192.030640 1071.044189,192.030640 1087.479980,192.030640 
	C1087.479980,201.574905 1087.479980,210.655243 1087.479980,220.136505 
	C1061.546143,220.136505 1035.501221,220.136505 1009.226318,220.136505 
	C1009.226318,180.313736 1009.226318,140.561020 1009.226318,100.486061 
	C1035.198975,100.486061 1061.110352,100.486061 1087.429443,100.486061 
	C1087.429443,109.456444 1087.429443,118.526840 1087.429443,128.533203 
	C1083.587158,128.533203 1079.527344,128.533203 1074.972900,128.533081 
z"/>
<path fill="#263A72" opacity="1.000000" stroke="none" 
	d="
M489.001282,220.531204 
	C482.860382,220.531082 477.219025,220.531082 471.292114,220.531082 
	C471.292114,180.391846 471.292114,140.637787 471.292114,100.524246 
	C497.097351,100.524246 522.989807,100.524246 549.207642,100.524246 
	C549.207642,109.619041 549.207642,118.707863 549.207642,128.291733 
	C533.244568,128.291733 517.325806,128.291733 500.971375,128.291733 
	C500.971375,133.982956 500.971375,139.208755 500.971375,144.939163 
	C516.557678,144.939163 532.309448,144.939163 548.291870,144.939163 
	C548.291870,154.541077 548.291870,163.649643 548.291870,173.428024 
	C532.501831,173.428024 516.792358,173.428024 500.814697,173.428024 
	C500.814697,179.863022 500.814697,185.638107 500.814697,191.894485 
	C516.818970,191.894485 532.905945,191.894485 549.411865,191.894485 
	C549.411865,201.555099 549.411865,210.749664 549.411865,220.531326 
	C529.414551,220.531326 509.457703,220.531326 489.001282,220.531204 
z"/>
<path fill="#263A72" opacity="1.000000" stroke="none" 
	d="
M616.582520,128.061676 
	C611.129639,128.104950 605.955200,127.649345 601.038330,128.569733 
	C596.862732,129.351349 594.129700,132.834091 594.271851,137.348770 
	C594.415955,141.921219 597.966736,144.044983 601.850647,144.822327 
	C608.523315,146.157852 615.481995,146.306778 621.998779,148.114243 
	C629.277954,150.133194 636.906799,152.356262 643.135498,156.408737 
	C658.508911,166.410919 660.805542,189.579697 648.788696,204.694199 
	C631.041870,227.015747 591.640869,227.964951 572.916748,206.498032 
	C566.398621,199.025192 563.660217,190.205627 563.653931,180.107605 
	C573.457947,180.107605 583.053833,180.107605 592.638367,180.107605 
	C596.450989,192.697708 610.465637,198.068268 621.979492,190.987885 
	C624.114502,189.675003 626.250610,186.228180 626.092407,183.923676 
	C625.934631,181.624008 623.261292,178.189774 621.051819,177.584244 
	C614.526245,175.795761 607.674133,175.220749 600.970764,174.050674 
	C597.044250,173.365295 593.085327,172.700378 589.266663,171.592880 
	C576.861877,167.995209 567.984985,160.588120 565.285278,147.459839 
	C562.433105,133.590225 565.657837,121.208031 576.268555,111.497856 
	C592.929810,96.250732 623.492249,95.576103 641.060608,109.746765 
	C649.890991,116.869354 654.703186,127.767738 653.799194,138.727036 
	C653.383301,138.855820 652.928711,139.118378 652.473389,139.119598 
	C643.484985,139.143738 634.496521,139.137573 625.249634,139.137573 
	C624.276184,134.065536 622.067078,129.969559 616.582520,128.061676 
z"/>
<path fill="#273B72" opacity="1.000000" stroke="none" 
	d="
M966.621155,107.571198 
	C967.613647,105.238548 968.433105,103.255486 969.234253,101.316788 
	C979.104126,101.316788 988.739197,101.316788 999.230225,101.316788 
	C998.798828,103.750542 998.773010,106.045845 997.982544,108.037720 
	C983.456421,144.641617 968.807983,181.197006 954.310120,217.812073 
	C953.347412,220.243454 952.233948,221.160049 949.649231,221.054840 
	C943.835815,220.818207 936.784851,222.838959 932.549438,220.212662 
	C928.629028,217.781662 927.596313,210.548340 925.498962,205.346359 
	C912.761841,173.754440 900.050903,142.151794 887.446411,110.506874 
	C886.380432,107.830856 886.159851,104.818153 885.376587,101.169899 
	C895.478394,101.169899 904.746765,101.043861 914.002258,101.330544 
	C915.150085,101.366096 916.728882,103.407166 917.266357,104.835625 
	C925.450500,126.585579 933.494385,148.388306 941.569946,170.179108 
	C941.843262,170.916580 942.104980,171.658371 942.084290,171.601028 
	C950.081909,150.697556 958.265015,129.309158 966.621155,107.571198 
z"/>
<path fill="#1DA2AD" opacity="1.000000" stroke="none" 
	d="
M140.461975,171.530212 
	C152.654343,155.718674 168.410507,149.541031 187.347061,154.332306 
	C205.250717,158.862213 216.332703,171.086441 219.426727,189.318588 
	C222.334579,206.453705 216.584747,221.020279 202.596832,231.492447 
	C188.442734,242.089020 172.669159,243.406998 156.945679,235.645462 
	C141.578674,228.059906 133.465637,215.115356 132.820160,197.728943 
	C132.468033,188.244064 135.037003,179.671753 140.461975,171.530212 
z"/>
<path fill="#273B72" opacity="1.000000" stroke="none" 
	d="
M844.536377,164.000183 
	C844.536255,173.490143 844.536255,182.480072 844.536255,192.038239 
	C861.153198,192.038239 877.550171,192.038239 894.236816,192.038239 
	C894.236816,201.688263 894.236816,210.771591 894.236816,220.196960 
	C868.036560,220.196960 841.971375,220.196960 815.533386,220.196960 
	C815.533386,180.755844 815.533386,141.370880 815.533386,101.573502 
	C824.908386,101.573502 834.433533,101.573502 844.536438,101.573502 
	C844.536438,122.262169 844.536438,142.881180 844.536377,164.000183 
z"/>
<path fill="#283B73" opacity="1.000000" stroke="none" 
	d="
M62.842667,213.869965 
	C68.598572,210.562988 74.028412,207.421051 79.924118,204.009537 
	C79.924118,240.385284 79.924118,276.087646 79.924118,312.388031 
	C77.964622,311.362000 76.368927,310.608185 74.852333,309.719391 
	C63.084766,302.823059 51.323097,295.916565 39.578606,288.981018 
	C31.423449,284.165100 27.382538,277.023926 27.447256,267.513916 
	C27.513033,257.848206 27.639795,248.176651 27.365450,238.518295 
	C27.268740,235.113602 28.646090,233.502396 31.376881,231.968521 
	C41.819752,226.102783 52.146500,220.030289 62.842667,213.869965 
z"/>
<path fill="#283A73" opacity="1.000000" stroke="none" 
	d="
M139.802185,286.181702 
	C168.477905,302.725250 196.832703,319.087433 225.700104,335.745453 
	C224.342667,336.723846 223.389847,337.531128 222.329620,338.156281 
	C210.724991,344.999023 199.008591,351.657959 187.515503,358.682495 
	C177.554214,364.770813 168.010742,365.092865 158.087128,358.528198 
	C151.299805,354.038269 144.008133,350.316650 137.101379,345.996613 
	C135.700638,345.120483 134.145737,343.111176 134.130234,341.609100 
	C133.931015,322.300568 133.998596,302.989227 133.998596,283.102539 
	C136.082077,284.203766 137.781662,285.102051 139.802185,286.181702 
z"/>
<path fill="#24A5B0" opacity="1.000000" stroke="none" 
	d="
M486.175049,314.944794 
	C486.175110,317.422211 486.175110,319.406097 486.175110,321.780121 
	C482.686707,321.780121 479.459412,321.780121 475.800446,321.780121 
	C475.800446,298.844391 475.800446,275.824127 475.800446,252.141281 
	C480.595886,252.141281 485.378265,251.922241 490.111206,252.308624 
	C491.179077,252.395782 492.693573,254.473892 492.953522,255.835754 
	C495.416290,268.737579 497.649841,281.683167 499.959473,294.614349 
	C500.095215,295.374634 500.317505,296.119415 501.564453,296.965027 
	C504.041992,282.098145 506.519531,267.231262 508.989838,252.407669 
	C514.775879,252.407669 520.039429,252.407669 525.582275,252.407669 
	C525.582275,275.586060 525.582275,298.492828 525.582275,321.787811 
	C521.960449,321.787811 518.396729,321.787811 514.331543,321.787811 
	C514.331543,307.922180 514.331543,294.001129 514.331543,280.080078 
	C514.003052,280.053070 513.674622,280.026062 513.346130,279.999054 
	C511.571930,290.764221 509.796417,301.529175 508.025513,312.294891 
	C507.863434,313.280212 507.762634,314.276337 507.579041,315.257263 
	C506.259979,322.304352 506.251617,322.110931 498.887726,322.259430 
	C495.424896,322.329285 494.449371,321.031067 493.917328,317.795715 
	C491.791168,304.866913 489.328186,291.993561 486.174988,279.161316 
	C486.174988,290.924652 486.174988,302.687958 486.175049,314.944794 
z"/>
<path fill="#23A5B0" opacity="1.000000" stroke="none" 
	d="
M558.925598,293.203705 
	C558.144897,289.064911 557.429138,285.351685 556.713318,281.638489 
	C556.419373,281.651611 556.125366,281.664703 555.831360,281.677826 
	C555.831360,294.920197 555.831360,308.162537 555.831360,321.783447 
	C552.030151,321.783447 548.816406,321.783447 545.290955,321.783447 
	C545.290955,298.777344 545.290955,275.735199 545.290955,252.415405 
	C550.709045,252.415405 555.959534,252.415405 561.697144,252.415405 
	C564.438538,267.708344 567.178528,282.993103 569.918457,298.277832 
	C570.184753,298.261047 570.451050,298.244263 570.717346,298.227478 
	C573.202637,283.107605 575.687927,267.987732 578.230652,252.518692 
	C583.715088,252.518692 589.086975,252.518692 594.738464,252.518692 
	C594.738464,275.533813 594.738464,298.444427 594.738464,321.763580 
	C591.251953,321.763580 587.704895,321.763580 583.495117,321.763580 
	C583.495117,308.464539 583.495117,295.084686 583.495117,281.704834 
	C583.122498,281.681274 582.749817,281.657745 582.377197,281.634186 
	C580.158081,294.989624 577.938904,308.345093 575.685608,321.906097 
	C571.796997,321.906097 568.196289,321.906097 564.069946,321.906097 
	C562.381042,312.504395 560.685791,303.066833 558.925598,293.203705 
z"/>
<path fill="#21A4AF" opacity="1.000000" stroke="none" 
	d="
M1035.856934,261.062195 
	C1035.856812,281.509460 1035.856812,301.465088 1035.856812,321.792786 
	C1031.597168,321.792786 1027.695068,321.792786 1023.260620,321.792786 
	C1018.806702,306.652466 1014.285706,291.284149 1009.764709,275.915802 
	C1009.511841,275.940552 1009.258972,275.965271 1009.006104,275.989990 
	C1009.006104,291.115845 1009.006104,306.241730 1009.006104,321.763977 
	C1005.186218,321.763977 1001.834534,321.763977 998.231201,321.763977 
	C998.231201,298.737030 998.231201,275.811798 998.231201,252.154160 
	C1002.494568,252.154160 1006.778442,251.892181 1010.990967,252.325211 
	C1012.147095,252.444046 1013.605896,254.483566 1014.046936,255.912903 
	C1017.181702,266.072815 1020.085754,276.303894 1023.071411,286.509949 
	C1023.425842,287.721771 1023.829041,288.919373 1024.911133,290.004242 
	C1024.911133,277.634521 1024.911133,265.264832 1024.911133,252.521301 
	C1028.473999,252.521301 1031.713623,252.521301 1035.856934,252.521301 
	C1035.856934,255.097488 1035.856934,257.834045 1035.856934,261.062195 
z"/>
<path fill="#1FA3AE" opacity="1.000000" stroke="none" 
	d="
M693.220581,286.596222 
	C693.716003,287.991974 694.095276,289.022980 694.474548,290.053986 
	C694.706177,290.023773 694.937866,289.993530 695.169495,289.963318 
	C695.169495,277.571014 695.169495,265.178711 695.169495,252.473053 
	C698.837097,252.473053 702.076904,252.473053 705.665405,252.473053 
	C705.665405,275.551819 705.665405,298.601318 705.665405,322.150970 
	C702.257568,322.150970 698.901733,322.537598 695.717224,321.967377 
	C694.377625,321.727478 692.819824,319.642456 692.348755,318.095520 
	C688.134827,304.255890 684.142212,290.348877 680.078979,276.463287 
	C679.953369,276.034088 679.767395,275.622589 678.965454,275.244751 
	C678.965454,290.740173 678.965454,306.235626 678.965454,321.940857 
	C675.202026,321.940857 671.929382,321.940857 668.325073,321.940857 
	C668.325073,298.814453 668.325073,275.757324 668.325073,252.155075 
	C672.569885,252.155075 676.715210,251.897278 680.792053,252.312439 
	C682.012512,252.436707 683.640564,254.254562 684.062744,255.613205 
	C687.220459,265.774628 690.122375,276.015503 693.220581,286.596222 
z"/>
<path fill="#25A6B0" opacity="1.000000" stroke="none" 
	d="
M457.624634,286.000244 
	C457.624298,292.830139 457.706848,299.161407 457.606110,305.489777 
	C457.420929,317.121948 451.156616,323.112823 439.358124,323.087189 
	C427.546417,323.061523 421.235107,317.019592 421.152466,305.440613 
	C421.065674,293.281097 421.066437,281.119965 421.152191,268.960388 
	C421.232513,257.567688 427.921051,251.116089 439.411011,251.139206 
	C450.873199,251.162262 457.472382,257.610107 457.612915,269.009186 
	C457.680664,274.505432 457.624756,280.003204 457.624634,286.000244 
M444.898285,265.192200 
	C443.632904,261.909760 440.728638,260.859192 438.054779,262.048950 
	C436.086853,262.924591 433.691956,265.610291 433.631561,267.555908 
	C433.225281,280.650909 433.278473,293.765106 433.444550,306.869781 
	C433.492676,310.669647 435.719971,313.078613 439.874939,312.829773 
	C443.862183,312.591003 445.309387,309.926605 445.306335,306.404114 
	C445.294617,292.959717 445.163330,279.515411 444.898285,265.192200 
z"/>
<path fill="#24A5B0" opacity="1.000000" stroke="none" 
	d="
M979.863586,285.000244 
	C979.863525,292.330933 979.921021,299.162323 979.849915,305.992310 
	C979.744507,316.119904 973.752014,322.557007 964.123413,323.011536 
	C951.313293,323.616241 944.322876,318.999146 943.755371,307.901184 
	C943.050598,294.118347 943.076660,280.247009 943.753235,266.461334 
	C944.263123,256.073151 951.889709,250.557205 962.716858,251.179153 
	C973.779419,251.814621 979.744385,257.819458 979.853882,268.506378 
	C979.908508,273.837158 979.863525,279.168945 979.863586,285.000244 
M963.140137,312.757629 
	C964.675049,310.826477 967.479980,308.933624 967.539551,306.957977 
	C967.935242,293.836212 967.863953,280.694885 967.666382,267.564117 
	C967.609070,263.754242 965.331970,261.435883 961.156128,261.712128 
	C957.138489,261.977966 955.827454,264.414276 955.838989,268.102997 
	C955.878540,280.740692 955.908630,293.378967 955.824402,306.016266 
	C955.794128,310.563293 957.781738,312.862579 963.140137,312.757629 
z"/>
<path fill="#21A4AF" opacity="1.000000" stroke="none" 
	d="
M626.009521,272.000305 
	C626.009644,283.317413 625.980957,294.134766 626.021790,304.951843 
	C626.042786,310.513397 627.932373,312.905884 632.071289,312.861664 
	C636.176880,312.817810 637.977173,310.431366 637.983337,304.847717 
	C638.002502,287.546478 637.990356,270.245209 637.990356,252.543884 
	C641.755371,252.543884 645.310791,252.543884 649.110535,252.543884 
	C649.254456,253.198685 649.575745,253.982559 649.577209,254.767014 
	C649.608704,271.908081 649.738953,289.050568 649.559692,306.189789 
	C649.442566,317.384979 643.226562,323.133270 631.864563,323.165161 
	C620.276855,323.197693 614.184387,317.804657 614.025146,306.498108 
	C613.772644,288.572510 613.957764,270.640808 613.957764,252.429108 
	C617.928650,252.429108 621.533813,252.429108 626.009521,252.429108 
	C626.009521,258.695984 626.009521,265.098206 626.009521,272.000305 
z"/>
<path fill="#21A4AF" opacity="1.000000" stroke="none" 
	d="
M828.804077,309.856934 
	C825.375916,309.856812 822.414124,309.856812 819.280457,309.856812 
	C818.456787,314.095886 817.708008,317.949524 816.936707,321.918884 
	C813.245056,321.918884 809.821472,321.918884 805.886108,321.918884 
	C809.920776,298.602142 813.898987,275.612274 817.912781,252.416107 
	C823.975525,252.416107 829.701599,252.416107 835.701965,252.416107 
	C839.717346,275.619934 843.694824,298.604340 847.728638,321.914734 
	C843.482544,321.914734 839.717957,321.914734 835.586426,321.914734 
	C835.089050,319.319824 834.278687,316.766449 834.184204,314.186859 
	C834.057983,310.742462 832.632751,309.347717 828.804077,309.856934 
M829.769958,286.727142 
	C828.718445,280.507629 827.666931,274.288086 826.615479,268.068573 
	C826.357910,268.025574 826.100342,267.982574 825.842834,267.939575 
	C824.134338,278.446442 822.425903,288.953278 820.673523,299.730072 
	C824.746765,299.730072 828.153442,299.730072 831.687378,299.730072 
	C831.054138,295.486664 830.465271,291.539978 829.769958,286.727142 
z"/>
<path fill="#23A5B0" opacity="1.000000" stroke="none" 
	d="
M779.223389,308.775635 
	C779.600952,304.431946 779.856689,300.484375 780.129883,296.265991 
	C783.646851,296.265991 787.065796,296.265991 790.680542,296.265991 
	C790.680542,301.224670 791.358765,306.252319 790.532166,311.018982 
	C789.046570,319.585419 782.433167,323.408752 771.486633,323.014191 
	C762.713806,322.697998 756.406067,318.094452 756.050354,309.816376 
	C755.408325,294.872650 755.328552,279.857880 756.030151,264.920532 
	C756.463440,255.695206 763.995605,250.717010 774.176147,251.154663 
	C784.426086,251.595291 790.463440,257.047852 791.038391,266.538177 
	C791.217468,269.493835 791.066345,272.469452 791.066345,275.720459 
	C787.372070,275.720459 783.954468,275.720459 779.781250,275.720459 
	C779.781250,273.148163 779.944397,270.542450 779.742615,267.965302 
	C779.449402,264.219452 777.749817,261.584320 773.516113,261.694672 
	C769.258057,261.805695 767.826721,264.346680 767.844055,268.288818 
	C767.899719,280.950897 767.689636,293.618256 768.038940,306.270935 
	C768.096863,308.369202 769.981689,311.280823 771.842834,312.265472 
	C774.718750,313.787048 777.679199,312.578766 779.223389,308.775635 
z"/>
<path fill="#21A4AF" opacity="1.000000" stroke="none" 
	d="
M402.576355,259.751160 
	C403.564423,265.104645 404.361633,270.121887 405.238373,275.639526 
	C400.736298,275.639526 397.185669,275.639526 392.874817,275.639526 
	C392.874817,272.966370 393.054474,270.186157 392.830536,267.438843 
	C392.533356,263.792877 390.549866,261.592651 386.675293,261.688721 
	C382.785278,261.785187 380.936432,264.025452 380.923920,267.759369 
	C380.880524,280.738098 380.885284,293.717163 380.923584,306.695953 
	C380.934784,310.488220 382.990906,312.659119 386.741730,312.764679 
	C390.541992,312.871613 392.628845,310.635986 392.848724,306.954590 
	C393.054810,303.504059 392.892883,300.031555 392.892883,296.282166 
	C396.909058,296.282166 400.472351,296.282166 404.906067,296.282166 
	C404.447113,301.705322 404.602814,307.072937 403.426361,312.130676 
	C401.510406,320.367523 394.075165,324.005768 383.046387,322.970795 
	C374.995422,322.215271 369.179901,316.813782 368.999786,308.759064 
	C368.676270,294.291107 368.711212,279.805603 369.029785,265.336945 
	C369.183960,258.335754 374.073517,253.388351 380.983612,251.899139 
	C390.757690,249.792725 397.431854,252.136536 402.576355,259.751160 
z"/>
<path fill="#22A4AF" opacity="1.000000" stroke="none" 
	d="
M1088.867920,308.529510 
	C1086.912598,321.184326 1077.602783,324.363647 1066.384399,322.748383 
	C1056.713257,321.355896 1052.122925,313.488403 1053.571045,301.302521 
	C1057.092773,301.302521 1060.660400,301.302521 1064.878174,301.302521 
	C1064.878174,303.302795 1064.813477,305.238922 1064.892212,307.169250 
	C1065.040405,310.808624 1067.194336,312.615540 1070.635498,312.773651 
	C1074.202637,312.937592 1076.770752,310.851746 1076.561401,307.500275 
	C1076.356567,304.224060 1075.423462,300.417603 1073.434814,297.954071 
	C1069.815430,293.470184 1065.137817,289.849182 1060.975220,285.792816 
	C1055.416504,280.376129 1052.701782,273.912720 1053.793701,266.026123 
	C1055.265015,255.397842 1062.527588,249.943680 1073.501343,251.341522 
	C1084.614014,252.757050 1089.808594,259.419220 1088.409180,270.840149 
	C1084.893188,270.840149 1081.330078,270.840149 1077.444824,270.840149 
	C1077.300903,269.147919 1077.717773,267.131561 1076.901123,266.027008 
	C1075.595093,264.260254 1073.391479,261.886139 1071.712524,261.995605 
	C1069.723022,262.125336 1066.235352,264.698059 1066.303467,266.067535 
	C1066.488281,269.788940 1067.362671,274.060638 1069.515869,276.962616 
	C1072.734131,281.300110 1077.269043,284.664459 1081.264526,288.420715 
	C1086.951782,293.767456 1089.689453,300.247681 1088.867920,308.529510 
z"/>
<path fill="#1EA3AE" opacity="1.000000" stroke="none" 
	d="
M893.911011,262.156769 
	C890.809937,262.159088 888.188843,262.159088 885.043030,262.159088 
	C885.043030,282.296906 885.043030,301.985229 885.043030,321.891235 
	C880.788330,321.891235 877.066833,321.891235 872.939453,321.891235 
	C872.939453,302.070099 872.939453,282.511719 872.939453,262.394928 
	C868.657776,262.394928 864.760498,262.394928 860.508545,262.394928 
	C860.508545,258.798584 860.508545,255.759735 860.508545,252.433167 
	C872.578064,252.433167 884.474060,252.433167 897.183472,252.433167 
	C895.745605,255.718658 900.321960,260.013336 893.911011,262.156769 
z"/>
<path fill="#1DA2AD" opacity="1.000000" stroke="none" 
	d="
M913.000000,303.999084 
	C913.000000,286.558746 913.000000,269.618103 913.000000,252.418793 
	C917.084473,252.418793 920.682617,252.418793 924.720764,252.418793 
	C924.720764,275.432190 924.720764,298.451294 924.720764,321.814270 
	C921.073975,321.814270 917.344360,321.814270 913.000000,321.814270 
	C913.000000,316.045441 913.000000,310.272125 913.000000,303.999084 
z"/>
<path fill="#1DA2AD" opacity="1.000000" stroke="none" 
	d="
M725.000000,265.012146 
	C725.000000,260.561035 725.000000,256.607697 725.000000,252.412750 
	C729.099060,252.412750 732.697876,252.412750 736.727722,252.412750 
	C736.727722,275.444916 736.727722,298.464722 736.727722,321.821320 
	C733.060181,321.821320 729.330872,321.821320 725.000000,321.821320 
	C725.000000,303.032410 725.000000,284.271179 725.000000,265.012146 
z"/>
<path fill="#FDFDFE" opacity="1.000000" stroke="none" 
	d="
M762.639526,177.485413 
	C754.242676,191.761261 738.277710,197.815125 722.904724,192.804611 
	C708.547607,188.125198 700.000061,174.012695 701.683716,157.767349 
	C703.265442,142.505280 711.409973,132.400375 725.025208,128.807632 
	C738.796997,125.173538 753.043945,129.787231 760.409058,140.951279 
	C767.969910,152.412094 768.017029,164.688599 762.639526,177.485413 
z"/>
<path fill="#F9FAFB" opacity="1.000000" stroke="none" 
	d="
M412.540894,128.449295 
	C421.547821,129.269806 426.557281,134.084808 426.443115,141.384048 
	C426.332611,148.445984 420.605194,153.591339 412.383606,153.819397 
	C407.435333,153.956635 402.480133,153.844635 397.177246,153.844635 
	C397.177246,145.331436 397.177246,137.149750 397.177246,128.448700 
	C402.208099,128.448700 407.151642,128.448700 412.540894,128.449295 
z"/>
<path fill="#FAFDFD" opacity="1.000000" stroke="none" 
	d="
M444.987488,265.631653 
	C445.163330,279.515411 445.294617,292.959717 445.306335,306.404114 
	C445.309387,309.926605 443.862183,312.591003 439.874939,312.829773 
	C435.719971,313.078613 433.492676,310.669647 433.444550,306.869781 
	C433.278473,293.765106 433.225281,280.650909 433.631561,267.555908 
	C433.691956,265.610291 436.086853,262.924591 438.054779,262.048950 
	C440.728638,260.859192 443.632904,261.909760 444.987488,265.631653 
z"/>
<path fill="#FAFDFD" opacity="1.000000" stroke="none" 
	d="
M962.751099,312.795074 
	C957.781738,312.862579 955.794128,310.563293 955.824402,306.016266 
	C955.908630,293.378967 955.878540,280.740692 955.838989,268.102997 
	C955.827454,264.414276 957.138489,261.977966 961.156128,261.712128 
	C965.331970,261.435883 967.609070,263.754242 967.666382,267.564117 
	C967.863953,280.694885 967.935242,293.836212 967.539551,306.957977 
	C967.479980,308.933624 964.675049,310.826477 962.751099,312.795074 
z"/>
<path fill="#F3FAFB" opacity="1.000000" stroke="none" 
	d="
M829.823120,287.160217 
	C830.465271,291.539978 831.054138,295.486664 831.687378,299.730072 
	C828.153442,299.730072 824.746765,299.730072 820.673523,299.730072 
	C822.425903,288.953278 824.134338,278.446442 825.842834,267.939575 
	C826.100342,267.982574 826.357910,268.025574 826.615479,268.068573 
	C827.666931,274.288086 828.718445,280.507629 829.823120,287.160217 
z"/>
</svg>